# Blender 5.1.0
# www.blender.org
mtllib little_car.mtl
o Cube
v -2.693354 -0.099632 1.168849
v -2.814006 1.187589 1.168849
v -2.693354 -0.099632 -1.255615
v -2.814006 1.187589 -1.255615
v 2.970578 -0.099632 1.168849
v 2.970578 1.149667 1.064553
v 2.970578 -0.099632 -1.255615
v 2.970578 1.149667 -1.151515
v 1.527623 -0.099632 -1.255615
v -1.168533 -0.099632 -1.255615
v -1.156975 1.384034 -1.135954
v 1.847494 1.329271 -1.183302
v -1.168532 -0.099632 1.168849
v 1.527623 -0.099632 1.168849
v 1.847533 1.329172 1.096547
v -1.157074 1.384043 1.049199
v -2.693354 -0.099632 -0.447461
v -2.693354 -0.099632 0.360694
v -2.891713 1.217963 0.360694
v -2.891713 1.217963 -0.447461
v 2.970578 -0.099632 0.360694
v 2.970578 -0.099632 -0.447461
v 2.970578 1.226245 -0.447461
v 2.970578 1.226245 0.360694
v 1.846892 1.355430 -0.447461
v 1.846905 1.355433 0.360694
v -1.151983 1.452759 -0.452982
v -1.152032 1.452766 0.366216
v -1.168532 -0.099632 -0.447461
v -1.168532 -0.099632 0.360694
v 1.527623 -0.099632 -0.447461
v 1.527623 -0.099632 0.360694
v -2.265515 -0.099632 -1.255615
v -1.717024 1.261703 1.168849
v -2.265515 1.261703 1.168849
v -2.265514 1.261703 -1.255615
v -1.717023 1.261703 -1.255615
v -2.265514 -0.099632 1.168849
v -1.717024 -0.099632 -0.447461
v -2.265515 -0.099632 -0.447461
v -1.717023 -0.099632 0.360694
v -2.265515 -0.099632 0.360694
v -2.265515 1.344503 -0.447461
v -1.717024 1.344503 -0.447461
v -2.265515 1.344503 0.360694
v -1.717024 1.344503 0.360694
v -0.856755 2.678941 -1.017581
v 1.521830 2.534871 -1.059270
v 1.521791 2.534862 0.972502
v -0.856656 2.678930 0.930803
v 1.570215 2.535042 0.361290
v -0.972141 2.750935 0.355741
v 1.555138 2.598508 -0.447461
v -0.972189 2.750942 -0.442517
v -2.801011 0.934171 -1.159077
v -2.916851 0.924306 -1.131111
v -2.800382 0.970034 -1.138293
v -2.916317 0.954752 -1.113467
v -2.799831 1.001468 -1.110323
v -2.915846 0.981644 -1.089538
v -2.799379 1.027265 -1.076241
v -2.915456 1.003883 -1.060157
v -2.799043 1.046434 -1.037357
v -2.915164 1.020517 -1.026417
v -2.798836 1.058239 -0.995166
v -2.914984 1.030808 -0.989634
v -2.798766 1.062225 -0.951288
v -2.914923 1.034291 -0.951288
v -2.798836 1.058239 -0.907411
v -2.914984 1.030808 -0.912943
v -2.799043 1.046434 -0.865220
v -2.915164 1.020517 -0.876160
v -2.799379 1.027265 -0.826336
v -2.915456 1.003883 -0.842420
v -2.799831 1.001468 -0.792254
v -2.915846 0.981644 -0.813039
v -2.800382 0.970034 -0.764284
v -2.916317 0.954752 -0.789110
v -2.801011 0.934171 -0.743500
v -2.916851 0.924306 -0.771465
v -2.801693 0.895257 -0.730701
v -2.917426 0.891477 -0.760668
v -2.802402 0.854789 -0.726380
v -2.918022 0.857458 -0.757035
v -2.803112 0.814320 -0.730701
v -2.918619 0.823440 -0.760668
v -2.803794 0.775406 -0.743500
v -2.919194 0.790611 -0.771465
v -2.804422 0.739543 -0.764284
v -2.919728 0.760165 -0.789110
v -2.804973 0.708109 -0.792254
v -2.920199 0.733273 -0.813039
v -2.805426 0.682312 -0.826336
v -2.920589 0.711034 -0.842420
v -2.805762 0.663143 -0.865220
v -2.920880 0.694400 -0.876160
v -2.805969 0.651338 -0.907411
v -2.921061 0.684109 -0.912943
v -2.806038 0.647353 -0.951288
v -2.921122 0.680626 -0.951288
v -2.805969 0.651338 -0.995166
v -2.921061 0.684109 -0.989634
v -2.805762 0.663143 -1.037357
v -2.920880 0.694400 -1.026416
v -2.805426 0.682312 -1.076241
v -2.920589 0.711033 -1.060157
v -2.804973 0.708109 -1.110323
v -2.920199 0.733273 -1.089538
v -2.804422 0.739543 -1.138293
v -2.919728 0.760165 -1.113467
v -2.803794 0.775406 -1.159077
v -2.919194 0.790611 -1.131111
v -2.803112 0.814320 -1.171875
v -2.918619 0.823440 -1.141908
v -2.802402 0.854789 -1.176197
v -2.918022 0.857458 -1.145541
v -2.917426 0.891477 -1.141908
v -2.801693 0.895257 -1.171875
v -2.921045 0.684982 -0.826336
v -2.920593 0.710779 -0.792254
v -2.921381 0.665812 -0.865220
v -2.921588 0.654008 -0.907411
v -2.921659 0.650022 -0.951288
v -2.921588 0.654008 -0.995166
v -2.921381 0.665812 -1.037357
v -2.921045 0.684982 -1.076241
v -2.920593 0.710779 -1.110323
v -2.920043 0.742213 -1.138293
v -2.919414 0.778076 -1.159077
v -2.918732 0.816990 -1.171875
v -2.918022 0.857458 -1.176197
v -2.920043 0.742213 -0.764284
v -2.919414 0.778076 -0.743500
v -2.918732 0.816990 -0.730701
v -2.918022 0.857458 -0.726380
v -2.917313 0.897927 -0.730701
v -2.916631 0.936841 -0.743500
v -2.916002 0.972704 -0.764284
v -2.915452 1.004138 -0.792254
v -2.914999 1.029935 -0.826336
v -2.914663 1.049104 -0.865220
v -2.914456 1.060909 -0.907411
v -2.914386 1.064894 -0.951288
v -2.914456 1.060908 -0.995166
v -2.914663 1.049104 -1.037357
v -2.914999 1.029935 -1.076241
v -2.915452 1.004138 -1.110323
v -2.916002 0.972703 -1.138293
v -2.916631 0.936840 -1.159077
v -2.917313 0.897927 -1.171875
v -2.877558 0.710279 -0.842420
v -2.877168 0.732518 -0.813039
v -2.877849 0.693646 -0.876160
v -2.878030 0.683355 -0.912943
v -2.878091 0.679871 -0.951288
v -2.878030 0.683355 -0.989634
v -2.877849 0.693646 -1.026416
v -2.877558 0.710279 -1.060157
v -2.877168 0.732518 -1.089538
v -2.876697 0.759410 -1.113467
v -2.876163 0.789857 -1.131111
v -2.875587 0.822685 -1.141908
v -2.874991 0.856704 -1.145541
v -2.876697 0.759410 -0.789110
v -2.876163 0.789857 -0.771465
v -2.875587 0.822685 -0.760668
v -2.874991 0.856704 -0.757035
v -2.874395 0.890723 -0.760668
v -2.873819 0.923551 -0.771465
v -2.873286 0.953998 -0.789110
v -2.872815 0.980890 -0.813039
v -2.872424 1.003129 -0.842420
v -2.872133 1.019763 -0.876160
v -2.871953 1.030054 -0.912943
v -2.871891 1.033537 -0.951288
v -2.871953 1.030053 -0.989634
v -2.872133 1.019763 -1.026417
v -2.872424 1.003129 -1.060157
v -2.872815 0.980890 -1.089538
v -2.873286 0.953998 -1.113467
v -2.873819 0.923551 -1.131111
v -2.874395 0.890723 -1.141908
v -2.801011 0.934171 0.665820
v -2.916851 0.924306 0.693786
v -2.800382 0.970034 0.686604
v -2.916317 0.954752 0.711430
v -2.799831 1.001468 0.714574
v -2.915846 0.981644 0.735359
v -2.799379 1.027265 0.748656
v -2.915456 1.003883 0.764740
v -2.799043 1.046434 0.787540
v -2.915164 1.020517 0.798481
v -2.798836 1.058239 0.829731
v -2.914984 1.030808 0.835263
v -2.798766 1.062225 0.873609
v -2.914923 1.034291 0.873609
v -2.798836 1.058239 0.917486
v -2.914984 1.030808 0.911954
v -2.799043 1.046434 0.959678
v -2.915164 1.020517 0.948737
v -2.799379 1.027265 0.998561
v -2.915456 1.003883 0.982477
v -2.799831 1.001468 1.032643
v -2.915846 0.981644 1.011858
v -2.800382 0.970034 1.060613
v -2.916317 0.954752 1.035787
v -2.801011 0.934171 1.081397
v -2.916851 0.924306 1.053432
v -2.801693 0.895257 1.094196
v -2.917426 0.891477 1.064229
v -2.802402 0.854789 1.098517
v -2.918022 0.857458 1.067862
v -2.803112 0.814320 1.094196
v -2.918619 0.823440 1.064229
v -2.803794 0.775406 1.081397
v -2.919194 0.790611 1.053432
v -2.804422 0.739543 1.060614
v -2.919728 0.760165 1.035787
v -2.804973 0.708109 1.032643
v -2.920199 0.733273 1.011858
v -2.805426 0.682312 0.998561
v -2.920589 0.711034 0.982477
v -2.805762 0.663143 0.959678
v -2.920880 0.694400 0.948737
v -2.805969 0.651338 0.917486
v -2.921061 0.684109 0.911954
v -2.806038 0.647353 0.873609
v -2.921122 0.680626 0.873609
v -2.805969 0.651338 0.829732
v -2.921061 0.684109 0.835263
v -2.805762 0.663143 0.787540
v -2.920880 0.694400 0.798481
v -2.805426 0.682312 0.748656
v -2.920589 0.711033 0.764740
v -2.804973 0.708109 0.714575
v -2.920199 0.733273 0.735359
v -2.804422 0.739543 0.686604
v -2.919728 0.760165 0.711431
v -2.803794 0.775406 0.665821
v -2.919194 0.790611 0.693786
v -2.803112 0.814320 0.653022
v -2.918619 0.823440 0.682989
v -2.802402 0.854789 0.648700
v -2.918022 0.857458 0.679356
v -2.917426 0.891477 0.682989
v -2.801693 0.895257 0.653022
v -2.921045 0.684982 0.998561
v -2.920593 0.710779 1.032643
v -2.921381 0.665812 0.959678
v -2.921588 0.654008 0.917486
v -2.921659 0.650022 0.873609
v -2.921588 0.654008 0.829732
v -2.921381 0.665812 0.787540
v -2.921045 0.684982 0.748656
v -2.920593 0.710779 0.714575
v -2.920043 0.742213 0.686604
v -2.919414 0.778076 0.665821
v -2.918732 0.816990 0.653022
v -2.918022 0.857458 0.648700
v -2.920043 0.742213 1.060614
v -2.919414 0.778076 1.081397
v -2.918732 0.816990 1.094196
v -2.918022 0.857458 1.098517
v -2.917313 0.897927 1.094196
v -2.916631 0.936841 1.081397
v -2.916002 0.972704 1.060613
v -2.915452 1.004138 1.032643
v -2.914999 1.029935 0.998561
v -2.914663 1.049104 0.959678
v -2.914456 1.060909 0.917486
v -2.914386 1.064894 0.873609
v -2.914456 1.060908 0.829731
v -2.914663 1.049104 0.787540
v -2.914999 1.029935 0.748656
v -2.915452 1.004138 0.714574
v -2.916002 0.972703 0.686604
v -2.916631 0.936840 0.665820
v -2.917313 0.897927 0.653022
v -2.877558 0.710279 0.982477
v -2.877168 0.732518 1.011858
v -2.877849 0.693646 0.948737
v -2.878030 0.683355 0.911954
v -2.878091 0.679871 0.873609
v -2.878030 0.683355 0.835263
v -2.877849 0.693646 0.798481
v -2.877558 0.710279 0.764740
v -2.877168 0.732518 0.735359
v -2.876697 0.759410 0.711431
v -2.876163 0.789857 0.693786
v -2.875587 0.822685 0.682989
v -2.874991 0.856704 0.679356
v -2.876697 0.759410 1.035787
v -2.876163 0.789857 1.053432
v -2.875587 0.822685 1.064229
v -2.874991 0.856704 1.067862
v -2.874395 0.890723 1.064229
v -2.873819 0.923551 1.053432
v -2.873286 0.953998 1.035787
v -2.872815 0.980890 1.011858
v -2.872424 1.003129 0.982477
v -2.872133 1.019763 0.948737
v -2.871953 1.030054 0.911954
v -2.871891 1.033537 0.873609
v -2.871953 1.030053 0.835263
v -2.872133 1.019763 0.798481
v -2.872424 1.003129 0.764740
v -2.872815 0.980890 0.735359
v -2.873286 0.953998 0.711430
v -2.873819 0.923551 0.693786
v -2.874395 0.890723 0.682989
v -2.868750 1.208987 -0.686279
v 2.970578 -0.099632 -0.686279
v -2.693354 -0.099632 -0.686279
v 2.970578 1.149667 -0.750306
v 1.846051 1.355227 -0.687955
v -1.148243 1.427115 -0.697250
v -1.168533 -0.099632 -0.686279
v 1.527623 -0.099632 -0.686279
v -1.717023 1.320035 -0.686279
v -2.265514 1.320035 -0.686279
v -2.265515 -0.099632 -0.686279
v -1.717024 -0.099632 -0.686279
v 1.555477 2.535237 -0.646910
v -0.937489 2.727477 -0.636330
v -2.693354 -0.099632 0.583760
v 2.970578 1.149667 0.647932
v 1.846079 1.355234 0.585391
v -1.148341 1.428747 0.594732
v -1.168532 -0.099632 0.583760
v 1.527623 -0.099632 0.583760
v -2.870264 1.209579 0.583760
v 2.970578 -0.099632 0.583760
v -2.265514 -0.099632 0.583760
v -1.717023 -0.099632 0.583760
v -1.717024 1.321649 0.583760
v -2.265515 1.321649 0.583760
v 1.556473 2.535230 0.547067
v -0.939924 2.729075 0.536468
v -2.797560 0.987722 1.168849
v -2.797560 0.987722 -1.255615
v 2.970578 1.042093 -1.179037
v 2.970578 1.042032 1.092271
v 1.816425 1.051734 1.168849
v -1.168533 1.051734 1.168849
v -1.168532 1.051734 -1.255615
v 1.816425 1.051734 -1.255615
v 2.970578 1.051734 -0.447461
v 2.970578 1.051734 0.360694
v -2.864676 1.013956 0.360694
v -2.864676 1.013956 -0.447461
v -2.265514 1.051734 -1.255615
v -1.717023 1.051734 -1.255615
v -1.717024 1.051734 1.168849
v -2.265515 1.051734 1.168849
v 2.970578 1.056891 -0.762858
v -2.844843 1.006203 -0.686279
v -2.846151 1.006715 0.583760
v 2.970578 1.056828 0.660338
v -2.727669 0.138297 -1.255615
v 2.970578 0.159376 -1.255615
v 2.970578 0.159376 1.168849
v 1.622726 0.159376 1.168849
v -1.168532 0.159376 1.168849
v -1.168532 0.159376 -1.255615
v 1.622726 0.159376 -1.255615
v 2.970578 0.159376 -0.447461
v 2.970578 0.159376 0.360694
v -2.749771 0.146936 0.360694
v -2.749771 0.146936 -0.447461
v -2.265514 0.159376 -1.255615
v -1.717023 0.439385 -1.255615
v -1.717023 0.439385 1.168849
v -2.265514 0.159376 1.168849
v 2.970578 0.159376 -0.686279
v -2.743240 0.144383 -0.686279
v -2.743670 0.144551 0.583760
v 2.970578 0.159376 0.583760
v -2.727669 0.138297 1.168849
v -2.909138 0.959406 -0.446435
v -2.892177 0.953323 -0.637857
v -2.909127 0.959408 0.359667
v -2.893463 0.953838 0.535338
v -2.800375 0.140467 0.360694
v -2.800375 0.140467 -0.447461
v -2.802453 0.186374 -0.637893
v -2.802907 0.186539 0.535372
v -2.915281 1.007487 -0.447461
v -2.895447 0.999735 -0.686280
v -2.915281 1.007487 0.360694
v -2.896755 1.000246 0.583760
v -2.793844 0.137914 -0.686280
v -2.794275 0.138083 0.583760
v -2.806565 0.188541 0.361033
v -2.806553 0.188543 -0.447800
v -2.887780 0.962137 0.359667
v -2.785218 0.191271 0.361033
v -2.887791 0.962136 -0.446435
v -2.785207 0.191272 -0.447800
v -2.870831 0.956053 -0.637857
v -2.872116 0.956568 0.535338
v -2.781106 0.189103 -0.637893
v -2.781560 0.189268 0.535372
v -2.787758 -0.068631 0.684485
v -2.789197 -0.068883 1.182012
v -2.802316 0.048006 -1.268492
v -2.789149 -0.068874 -1.268535
v -2.265630 -0.101985 -1.325892
v -2.787708 -0.068623 -0.787736
v -2.780950 -0.115845 -0.458085
v -2.780950 -0.115845 0.371561
v -2.831023 0.102999 0.371561
v -2.831023 0.102999 -0.458085
v -2.278513 -0.129707 1.243868
v -2.265630 0.157023 -1.325892
v -2.278513 0.129302 1.243868
v -2.816139 0.052594 -0.787778
v -2.816520 0.052771 0.684528
v -2.802267 0.048015 1.181968
v 2.704520 1.261703 -1.255615
v 2.624269 -0.099632 1.168849
v 2.624269 -0.099632 -1.255615
v 2.704520 1.261703 1.168849
v 2.704520 1.313954 -0.447461
v 2.704520 1.313954 0.360694
v 2.624269 -0.099632 -0.447461
v 2.624269 -0.099632 0.360694
v 2.624269 -0.099632 -0.686279
v 2.704520 1.291972 -0.686279
v 2.704520 1.291972 0.583760
v 2.624269 -0.099632 0.583760
v 2.693581 1.051734 1.168849
v 2.693581 1.051734 -1.255615
v 2.647093 0.159376 -1.255615
v 2.647093 0.159376 1.168849
v 3.053079 0.092488 -1.257436
v 3.053079 -0.032744 -1.257436
v 3.053079 -0.032744 -0.789554
v 3.053079 0.092488 1.170894
v 3.053079 -0.032744 1.170894
v 2.624888 -0.099632 1.247543
v 3.053079 -0.032744 0.686364
v 3.053079 -0.089632 0.373746
v 3.053079 -0.089632 -0.460289
v 3.053079 0.149376 -0.460289
v 3.053079 0.149376 0.373746
v 3.053079 0.092488 -0.789554
v 3.053079 0.092488 0.686364
v 2.644378 0.159376 -1.324325
v 2.621553 -0.099632 -1.324325
v 2.647712 0.159376 1.247543
v 1.529769 -0.099632 -1.326408
v -1.165790 -0.099632 -1.326408
v -1.165790 0.159376 -1.326408
v 1.621163 0.159376 -1.326408
v -1.172446 -0.099632 1.253537
v 1.531268 -0.099632 1.253537
v 1.620865 0.159376 1.253537
v -1.172446 0.159376 1.253537
v -1.534193 1.261703 -1.255615
v -1.351363 1.261703 -1.255615
v -1.534193 1.344503 -0.447461
v -1.351363 1.344503 -0.447461
v -1.534193 1.344503 0.360694
v -1.351363 1.344503 0.360694
v -1.351363 1.261703 1.168849
v -1.534193 1.261703 1.168849
v -1.534193 1.320035 -0.686279
v -1.351363 1.320035 -0.686279
v -1.534193 1.321649 0.583760
v -1.351363 1.321649 0.583760
v -1.351363 1.051734 1.168849
v -1.534193 1.051734 1.168849
v -1.534193 1.051734 -1.255615
v -1.351363 1.051734 -1.255615
v -1.534193 0.400475 -1.255615
v -1.351363 0.332912 -1.255615
v -1.351363 0.332912 1.168849
v -1.534193 0.400475 1.168849
v -1.899854 1.261703 1.168849
v -2.082684 1.261703 1.168849
v -2.082684 1.261703 -1.255615
v -1.899854 1.261703 -1.255615
v -2.082684 1.344503 -0.447461
v -1.899854 1.344503 -0.447461
v -2.082684 1.344503 0.360694
v -1.899854 1.344503 0.360694
v -2.082684 1.320035 -0.686279
v -1.899854 1.320035 -0.686279
v -2.082684 1.321649 0.583760
v -1.899854 1.321649 0.583760
v -1.899854 1.051734 1.168849
v -2.082684 1.051734 1.168849
v -2.082684 1.051734 -1.255615
v -1.899854 1.051734 -1.255615
v -2.082684 0.332912 -1.255615
v -1.899854 0.400475 -1.255615
v -1.899854 0.400475 1.168849
v -2.082684 0.332912 1.168849
v 2.536016 1.261703 1.168849
v 2.367512 1.261703 1.168849
v 2.199009 1.261703 1.168849
v 2.030505 1.261703 1.168849
v 2.518150 1.051734 1.168849
v 2.342719 1.051734 1.168849
v 2.167287 1.051734 1.168849
v 1.991856 1.051734 1.168849
v 2.442220 0.387526 1.168849
v 2.237347 0.469196 1.168849
v 2.032473 0.469196 1.168849
v 1.827600 0.387526 1.168849
v 2.030506 1.261703 -1.255615
v 2.199009 1.261703 -1.255615
v 2.367513 1.261703 -1.255615
v 2.536016 1.261703 -1.255615
v 2.030505 1.313954 -0.447461
v 2.199009 1.313954 -0.447461
v 2.367512 1.313954 -0.447461
v 2.536016 1.313954 -0.447461
v 2.030505 1.313954 0.360694
v 2.199009 1.313954 0.360694
v 2.367512 1.313954 0.360694
v 2.536016 1.313954 0.360694
v 2.030506 1.291972 -0.686279
v 2.199009 1.291972 -0.686279
v 2.367513 1.291972 -0.686279
v 2.536016 1.291972 -0.686279
v 2.030505 1.291972 0.583760
v 2.199009 1.291972 0.583760
v 2.367512 1.291972 0.583760
v 2.536016 1.291972 0.583760
v 1.991856 1.051734 -1.255615
v 2.167288 1.051734 -1.255615
v 2.342719 1.051734 -1.255615
v 2.518150 1.051734 -1.255615
v 1.827600 0.387526 -1.255615
v 2.032473 0.469196 -1.255615
v 2.237346 0.469196 -1.255615
v 2.442220 0.387526 -1.255615
v -2.741158 0.276655 1.168849
v -2.741158 0.276655 -1.255615
v 2.970578 0.382599 -1.179037
v 2.970578 0.382599 1.092271
v 1.660109 0.306021 1.168849
v -1.168532 0.306021 1.168849
v -1.168532 0.306021 -1.255615
v 1.660109 0.306021 -1.255615
v 2.970578 0.306021 -0.447461
v 2.970578 0.306021 0.360694
v -2.265514 0.306021 -1.255615
v -1.717023 0.531989 -1.255615
v -1.717023 0.531989 1.168849
v -2.265514 0.306021 1.168849
v 2.970578 0.382599 -0.762858
v -2.762849 0.285134 -0.686279
v -2.763449 0.285368 0.583760
v 2.970578 0.382599 0.660338
v -2.813453 0.278665 -0.686280
v -2.814053 0.278900 0.583760
v -2.819769 0.308815 -0.637886
v -2.820384 0.309048 0.535365
v -2.805012 0.314468 0.360770
v -2.805005 0.314469 -0.447536
v -2.798423 0.311545 -0.637886
v -2.799037 0.311777 0.535365
v 2.656065 0.306021 -1.255615
v 2.656065 0.306021 1.168849
v -1.534193 0.500588 -1.255615
v -1.351363 0.446065 -1.255615
v -1.351363 0.446065 1.168849
v -1.534193 0.500588 1.168849
v -2.082684 0.446065 -1.255615
v -1.899854 0.500588 -1.255615
v -1.899854 0.500588 1.168849
v -2.082684 0.446065 1.168849
v 1.859300 0.490139 -1.255615
v 2.058492 0.556047 -1.255615
v 2.257683 0.556047 -1.255615
v 2.456874 0.490139 -1.255615
v 2.456874 0.490139 1.168849
v 2.257683 0.556047 1.168849
v 2.058492 0.556047 1.168849
v 1.859300 0.490139 1.168849
v -2.384171 -0.099632 -1.255615
v -2.417633 1.241148 1.168849
v -2.384171 -0.099632 -0.447461
v -2.384171 -0.099632 0.360694
v -2.417632 1.241148 -1.255615
v -2.384171 -0.099632 1.168849
v -2.439184 1.309409 -0.447461
v -2.439184 1.309409 0.360694
v -2.384171 -0.099632 -0.686279
v -2.432815 1.289237 -0.686279
v -2.384171 -0.099632 0.583760
v -2.433235 1.290568 0.583760
v -2.413071 1.033981 -1.255615
v -2.413072 1.033981 1.168849
v -2.393688 0.153530 1.168849
v -2.393688 0.153530 -1.255615
v -2.384287 -0.101985 -1.325892
v -2.397170 -0.129707 1.243868
v -2.406687 0.123455 1.243868
v -2.393804 0.151177 -1.325892
v -2.397429 0.297877 1.168849
v -2.397429 0.297877 -1.255615
v -1.085103 -0.099632 -1.255615
v -1.033633 1.294874 -1.252388
v -1.085103 -0.099632 1.168849
v -1.029109 1.298524 1.165267
v -1.085103 -0.099632 -0.447461
v -1.085103 -0.099632 0.360694
v -0.727288 2.735604 -1.121419
v -0.724366 2.731720 1.035006
v -0.878004 2.851140 -0.447461
v -0.878004 2.851140 0.360694
v -0.841315 2.827428 -0.645672
v -1.085103 -0.099632 -0.686279
v -0.843735 2.828992 0.545831
v -1.085103 -0.099632 0.583760
v -1.076166 1.051734 -1.255615
v -1.076167 1.051734 1.168849
v -1.082160 0.159376 1.168849
v -1.082160 0.159355 -1.255615
v -1.085615 -0.099632 -1.326408
v -1.082787 0.159376 -1.326408
v -1.066736 -0.099632 1.253537
v -1.063963 0.159376 1.253537
v -1.081004 0.306021 1.168849
v -1.081004 0.305999 -1.255615
v 1.701084 1.294529 -1.252479
v 1.421874 -0.099632 1.168849
v 1.385041 2.574578 -1.121374
v 1.456657 2.608733 -0.447461
v 1.456657 2.608733 0.360694
v 1.443273 2.607773 -0.645672
v 1.444156 2.607837 0.545831
v 1.699348 1.051734 -1.255615
v 1.513246 0.159376 -1.255615
v 1.515953 0.159376 -1.326408
v 1.431642 -0.099632 1.253537
v 1.549163 0.306021 -1.255615
v 1.421874 -0.099632 -1.255615
v 1.691470 1.302034 1.164995
v 1.421874 -0.099632 -0.447461
v 1.421874 -0.099632 0.360694
v 1.379023 2.567513 1.035333
v 1.421874 -0.099632 -0.686279
v 1.421874 -0.099632 0.583760
v 1.699348 1.051734 1.168849
v 1.513247 0.159376 1.168849
v 1.428144 -0.099632 -1.326408
v 1.517724 0.159376 1.253537
v 1.549163 0.306021 1.168849
v 2.757878 1.261703 -1.255615
v 2.693722 -0.099632 1.168849
v 2.757878 1.291972 -0.447461
v 2.757878 1.291972 0.360694
v 2.757878 1.291972 -0.686279
v 2.757878 1.291972 0.583760
v 2.749134 1.051734 -1.255615
v 2.711969 0.159376 -1.255615
v 2.693722 -0.099632 -1.255615
v 2.757878 1.261703 1.168849
v 2.693722 -0.099632 -0.447461
v 2.693722 -0.099632 0.360694
v 2.693722 -0.099632 -0.686279
v 2.693722 -0.099632 0.583760
v 2.749134 1.051734 1.168849
v 2.711969 0.159376 1.168849
v 2.694341 -0.099632 1.247543
v 2.709254 0.159376 -1.324325
v 2.691006 -0.099632 -1.324325
v 2.712588 0.159376 1.247543
v 2.719141 0.306021 1.168849
v 2.719141 0.306021 -1.255615
v 1.660109 0.306021 1.248214
v 1.622726 0.159376 1.248214
v -1.168532 0.306021 1.248214
v -1.168532 0.159376 1.248214
v -1.717023 0.531989 1.248214
v -1.717023 0.439385 1.248214
v -2.265514 0.306021 1.229863
v -2.265514 0.159376 1.229863
v 1.827600 0.387526 1.248214
v -1.534193 0.400475 1.248214
v -2.082684 0.332912 1.248214
v 2.711969 0.159376 1.248214
v 2.647093 0.159376 1.248214
v 2.656065 0.306021 1.248214
v -1.351363 0.332912 1.248214
v -1.351363 0.446065 1.248214
v -1.534193 0.500588 1.248214
v -1.899854 0.400475 1.248214
v -1.899854 0.500588 1.248214
v -2.082684 0.446065 1.248214
v 2.442220 0.387526 1.248214
v 2.237347 0.469196 1.248214
v 2.032473 0.469196 1.248214
v 2.456874 0.490139 1.248214
v 2.257683 0.556047 1.248214
v 2.058492 0.556047 1.248214
v 1.859300 0.490139 1.248214
v 2.719141 0.306021 1.248214
v -1.081004 0.306021 1.248214
v -1.168532 0.159376 -1.325894
v -2.397429 0.297877 1.229863
v -1.168532 0.306021 -1.325894
v 1.549163 0.306021 1.248214
v 1.660109 0.306021 -1.325894
v 1.622726 0.159376 -1.325894
v -2.265514 0.306021 -1.325894
v -2.265514 0.159376 -1.325894
v -1.717023 0.531989 -1.325894
v -1.717023 0.439385 -1.325894
v -1.351363 0.332912 -1.325894
v -1.899854 0.400475 -1.325894
v 2.442220 0.387526 -1.325894
v 2.647093 0.159376 -1.325894
v 2.656065 0.306021 -1.325894
v -1.534193 0.400475 -1.325894
v -1.534193 0.500588 -1.325894
v -1.351363 0.446065 -1.325894
v -2.082684 0.332912 -1.325894
v -2.082684 0.446065 -1.325894
v -1.899854 0.500588 -1.325894
v 1.827600 0.387526 -1.325894
v 2.032473 0.469196 -1.325894
v 2.237346 0.469196 -1.325894
v 1.859300 0.490139 -1.325894
v 2.058492 0.556047 -1.325894
v 2.257683 0.556047 -1.325894
v 2.456874 0.490139 -1.325894
v 1.549163 0.306021 -1.325894
v -2.397429 0.297877 -1.325894
v -1.081004 0.306021 -1.325894
v 2.708955 0.159376 -1.325894
v 2.719141 0.306021 -1.325894
v -1.168533 1.321649 0.583760
v -1.168533 1.261703 1.168849
v -1.168532 1.320035 -0.686279
v -1.168532 1.344503 -0.447461
v -1.168533 1.344503 0.360694
v -0.919873 2.836352 0.545831
v -0.825905 2.776407 1.031436
v -0.917343 2.834738 -0.645672
v -0.955699 2.859206 -0.447461
v -0.955699 2.859206 0.360694
v -1.168532 1.261703 -1.255615
v -0.825904 2.776407 -1.118202
v -0.899582 2.738583 0.355743
v -1.079473 1.440414 0.366219
v -0.899630 2.738589 -0.442515
v -1.079424 1.440407 -0.452979
v -1.075684 1.414762 -0.697248
v -0.864930 2.715125 -0.636327
v -1.075782 1.416395 0.594735
v -0.867364 2.716722 0.536471
v -1.084515 1.371691 1.049201
v -0.784097 2.666577 0.930806
v -1.084416 1.371682 -1.135952
v -0.784195 2.666589 -1.017578
v 0.239159 -0.099632 -1.255615
v 0.376125 1.298548 1.165523
v 0.239159 -0.099632 -0.447461
v 0.239159 -0.099632 0.360694
v 0.353458 2.649353 1.034742
v 0.239159 -0.099632 -0.686279
v 0.239159 -0.099632 0.583760
v 0.389946 1.051734 1.168849
v 0.288813 0.159376 1.168849
v 0.242230 -0.099632 -1.326408
v 0.299763 0.159376 1.253537
v 0.308331 0.306021 1.168849
v 0.446170 1.294505 -1.252235
v 0.239159 -0.099632 1.168849
v 0.423459 2.648067 -1.121630
v 0.355236 2.723093 -0.447461
v 0.355236 2.723093 0.360694
v 0.365475 2.711400 -0.645672
v 0.364799 2.712171 0.545831
v 0.389946 1.051734 -1.255615
v 0.288813 0.159366 -1.255615
v 0.289948 0.159376 -1.326408
v 0.252984 -0.099632 1.253537
v 0.308331 0.306011 -1.255615
v 0.379854 1.294896 -1.252619
v 1.743137 1.261703 -1.255615
v 0.357069 2.652740 -1.121181
v 1.411366 2.605485 -1.118202
v 0.446073 1.291585 -1.222983
v 1.700987 1.291610 -1.223227
v 0.423362 2.645147 -1.092378
v 1.384945 2.571659 -1.092122
v -1.074756 1.261703 -1.255615
v -0.753849 2.770902 -1.118202
v 0.413742 1.261703 -1.255615
v 0.389884 2.683524 -1.118202
v -1.033695 1.292995 -1.232275
v -0.727350 2.733725 -1.101305
v 0.379792 1.293016 -1.232506
v 0.357006 2.650860 -1.101068
v 0.453584 1.302004 1.164695
v -1.074756 1.261703 1.168849
v 0.431134 2.639960 1.035647
v -0.753849 2.770902 1.031436
v 0.376016 1.295251 1.130245
v -1.029218 1.295227 1.129989
v 0.353349 2.646057 0.999465
v -0.724475 2.728424 0.999729
v 1.743137 1.261703 1.168849
v 1.411365 2.605485 1.031436
v 0.413742 1.261703 1.168849
v 0.389884 2.683524 1.031436
v 1.691354 1.298553 1.130114
v 1.378907 2.564032 1.000451
v 0.453468 1.298523 1.129813
v 0.431019 2.636479 1.000765
v 3.053079 0.159376 -1.324325
v 3.053079 -0.099632 -1.324325
v 3.053079 -0.099632 -0.722666
v 3.053079 0.159376 1.237782
v 3.053079 -0.099632 1.237782
v 3.053079 0.159376 -0.722666
v 3.053079 -0.099632 0.619476
v 3.053079 0.159376 0.619476
v 3.022321 0.092488 -1.257436
v 3.022321 -0.032744 -1.257436
v 3.022321 -0.032744 -0.789554
v 3.022321 0.092488 1.170894
v 3.022321 -0.032744 1.170894
v 3.022321 0.092488 -0.789554
v 3.022321 -0.032744 0.686364
v 3.022321 0.092488 0.686364
v 3.053079 -0.099632 0.383746
v 3.053079 -0.099632 -0.470289
v 3.053079 0.159376 -0.470289
v 3.053079 0.159376 0.383746
v 3.017538 -0.089632 0.373746
v 3.017538 -0.089632 -0.460289
v 3.017538 0.149376 -0.460289
v 3.017538 0.149376 0.373746
v 2.970578 1.226245 0.560440
v 2.970578 1.226245 1.123910
v 2.970578 1.226245 -1.210967
v 2.970578 1.226245 -0.662669
v 2.970578 1.051734 -1.255615
v 2.970578 1.051734 1.168849
v 2.970578 1.051734 -0.686279
v 2.970578 1.051734 0.583760
v 2.970578 0.306021 -1.255615
v 2.970578 0.306021 1.168849
v 2.970578 0.306021 -0.686279
v 2.970578 0.306021 0.583760
v 2.951299 1.008888 -1.144630
v 2.951299 1.021239 -0.797265
v 2.951299 1.021222 0.694746
v 2.951299 1.008783 1.057863
v 2.951299 1.149667 0.647932
v 2.951299 1.149667 1.064553
v 2.951299 1.149667 -1.151515
v 2.951299 1.149667 -0.750306
v 2.951299 0.417007 -1.144630
v 2.951299 0.417007 1.057863
v 2.951299 0.417007 -0.797265
v 2.951299 0.417007 0.694746
v 2.951299 1.042093 -1.179037
v 2.951299 1.056891 -0.762858
v 2.951299 1.056828 0.660338
v 2.951299 1.042032 1.092271
v 2.951299 0.382599 -1.179037
v 2.951299 0.382599 1.092271
v 2.951299 0.382599 -0.762858
v 2.951299 0.382599 0.660338
v 2.936236 1.008888 -1.144630
v 2.936236 1.021239 -0.797265
v 2.936236 1.021222 0.694746
v 2.936236 1.008783 1.057863
v 2.936236 0.417007 -1.144630
v 2.936236 0.417007 1.057863
v 2.936236 0.417007 -0.797265
v 2.936236 0.417007 0.694746
v 2.926193 1.042093 -1.179037
v 2.926193 1.056891 -0.762858
v 2.926193 1.056828 0.660338
v 2.926193 1.042032 1.092271
v 2.926193 1.149667 0.647932
v 2.926193 1.149667 1.064553
v 2.926193 1.149667 -1.151515
v 2.926193 1.149667 -0.750306
v 1.862002 1.291972 0.583760
v 1.862002 1.261703 1.168849
v 1.862002 1.291972 -0.686279
v 1.862002 1.291972 -0.447461
v 1.862002 1.291972 0.360694
v 1.862002 1.261703 -1.255615
v 1.502699 2.598508 -1.118202
v 1.540664 2.598508 0.545831
v 1.502699 2.598508 1.031436
v 1.539642 2.598508 -0.645672
v 1.570228 2.535045 -0.448057
v 1.555138 2.598508 0.360694
v 1.480896 2.512925 -0.448054
v 1.757560 1.333309 -0.447457
v 1.480883 2.512922 0.361294
v 1.757573 1.333312 0.360698
v 1.756719 1.333106 -0.687952
v 1.466145 2.513116 -0.646907
v 1.756747 1.333113 0.585395
v 1.467141 2.513110 0.547071
v 1.758201 1.307052 1.096550
v 1.758162 1.307151 -1.183298
v 1.432498 2.512751 -1.059266
v 1.432459 2.512742 0.972506
v -1.076167 1.102886 1.290634
v -1.102014 1.340562 1.318341
v -1.168533 1.312855 1.290634
v -1.168533 1.102886 1.290634
v -1.168532 1.102886 -1.377401
v -1.168532 1.312855 -1.377401
v -1.102014 1.340562 -1.405108
v -1.076166 1.102886 -1.377401
v -1.076167 1.102886 1.359649
v -1.102014 1.340562 1.359649
v -1.190066 1.338481 1.385275
v -1.168533 1.102886 1.359649
v -1.168532 1.102886 -1.446415
v -1.190066 1.338481 -1.472041
v -1.102014 1.340562 -1.446415
v -1.076166 1.102886 -1.446415
v -1.168533 1.704892 1.290634
v -1.102014 1.677185 1.318341
v -1.102014 1.677185 -1.405108
v -1.168532 1.704892 -1.377401
v -1.190066 1.679266 1.385275
v -1.102014 1.677185 1.359649
v -1.102014 1.677185 -1.446415
v -1.190066 1.679266 -1.472041
v -1.051152 1.340562 -1.606415
v -1.190066 1.338481 -1.608496
v -1.190066 1.679266 -1.608496
v -1.051152 1.677185 -1.606415
v -1.190066 1.338481 1.521730
v -1.051152 1.340562 1.519649
v -1.051152 1.677185 1.519649
v -1.190066 1.679266 1.521730
v -1.168532 1.312855 -1.446415
v -1.168532 1.704892 -1.446415
v -1.168533 1.704892 1.359649
v -1.168533 1.312855 1.359649
v -1.168532 1.704892 -1.634122
v -1.168532 1.312855 -1.634122
v -1.168533 1.312855 1.547356
v -1.168533 1.704892 1.547356
v -1.074756 1.312855 1.290634
v -1.074756 1.312855 1.359649
v -1.074756 1.312855 -1.377401
v -1.074756 1.312855 -1.446415
v -1.074756 1.704892 1.290634
v -1.074756 1.704892 1.359649
v -1.074756 1.704892 -1.377401
v -1.074756 1.704892 -1.446415
v -1.074756 1.312855 -1.634122
v -1.074756 1.704892 -1.634122
v -1.074756 1.704892 1.547356
v -1.074756 1.312855 1.547356
v -2.777778 -0.129707 0.622629
v -2.777778 -0.129707 1.243868
v -2.812093 0.108222 -1.330391
v -2.777778 -0.129707 -1.330391
v -2.777778 -0.129707 -0.725879
v -2.827664 0.114308 -0.725879
v -2.828094 0.114477 0.622629
v -2.812093 0.108222 1.243868
v -2.692419 -0.051934 0.684485
v -2.693858 -0.052187 1.182013
v -2.706977 0.064703 -1.268492
v -2.693809 -0.052178 -1.268535
v -2.692369 -0.051926 -0.787735
v -2.720800 0.069291 -0.787778
v -2.721181 0.069467 0.684528
v -2.706928 0.064712 1.181968
v -2.777778 -0.129707 -0.472305
v -2.777778 -0.129707 0.385781
v -2.834195 0.116861 0.385781
v -2.834195 0.116861 -0.472305
v -2.738182 -0.106059 -0.458085
v -2.738182 -0.106059 0.371561
v -2.788254 0.112785 0.371561
v -2.788254 0.112785 -0.458085
vn -0.9934 -0.0817 -0.0799
vn -0.0000 0.2479 -0.9688
vn -0.0000 -0.0000 -1.0000
vn -0.0000 -0.0000 1.0000
vn -0.0000 -1.0000 -0.0000
vn -0.1750 0.9809 0.0850
vn -0.1533 0.9854 0.0737
vn -0.1334 0.9872 0.0869
vn -0.0000 0.9997 0.0258
vn -0.0000 0.9987 0.0517
vn -0.0134 0.9981 0.0605
vn 0.0079 0.1037 0.9946
vn 1.0000 -0.0067 -0.0000
vn -0.1672 -0.9819 -0.0890
vn 0.2403 -0.9705 -0.0187
vn -0.0127 0.9982 -0.0584
vn -0.1042 0.9942 -0.0278
vn -0.0646 0.9969 -0.0457
vn -0.0646 0.9967 0.0489
vn -0.1870 0.9805 -0.0601
vn -0.1933 0.9802 -0.0432
vn -0.1739 0.9811 -0.0850
vn -0.1980 0.9798 -0.0271
vn -0.1935 0.9802 0.0433
vn 1.0000 -0.0000 -0.0000
vn -0.9900 -0.1177 0.0784
vn -0.9913 -0.1314 -0.0000
vn -0.0000 0.9987 -0.0510
vn -0.0000 0.9987 0.0510
vn -0.0991 0.9938 -0.0506
vn -0.0000 0.9948 -0.1019
vn -0.0922 0.9907 -0.0996
vn -0.0000 0.9948 0.1019
vn -0.0928 0.9907 0.0996
vn 0.0757 0.9916 0.1046
vn 0.0952 0.9903 -0.1008
vn 0.1033 0.9947 -0.0000
vn -0.1672 -0.9819 0.0890
vn -0.2404 0.9707 -0.0000
vn 0.0068 0.0892 -0.9960
vn 0.2403 -0.9705 -0.0188
vn -0.0149 -0.0876 0.9960
vn -0.0000 -0.0004 -1.0000
vn -0.6872 -0.1411 -0.7127
vn -0.6839 0.0123 -0.7295
vn -0.0049 -0.2108 -0.9775
vn -0.6905 -0.2856 -0.6646
vn -0.0095 -0.4093 -0.9124
vn -0.6937 -0.4139 -0.5895
vn -0.0135 -0.5861 -0.8101
vn -0.6965 -0.5213 -0.4931
vn -0.0170 -0.7345 -0.6784
vn -0.6988 -0.6052 -0.3812
vn -0.0196 -0.8508 -0.5251
vn -0.7005 -0.6649 -0.2592
vn -0.0216 -0.9338 -0.3573
vn -0.7016 -0.7005 -0.1310
vn -0.0227 -0.9833 -0.1807
vn -0.7019 -0.7122 -0.0000
vn -0.0227 -0.9833 0.1807
vn -0.7016 -0.7005 0.1310
vn -0.0216 -0.9338 0.3573
vn -0.7005 -0.6649 0.2592
vn -0.0196 -0.8508 0.5251
vn -0.6988 -0.6052 0.3812
vn -0.0170 -0.7345 0.6784
vn -0.6965 -0.5213 0.4931
vn -0.0135 -0.5861 0.8101
vn -0.6937 -0.4139 0.5895
vn -0.0095 -0.4093 0.9124
vn -0.6905 -0.2856 0.6646
vn -0.0049 -0.2108 0.9775
vn -0.6872 -0.1411 0.7127
vn -0.0000 -0.0004 1.0000
vn -0.6839 0.0123 0.7295
vn 0.0049 0.2100 0.9777
vn -0.6809 0.1658 0.7133
vn 0.0094 0.4087 0.9126
vn -0.6784 0.3107 0.6658
vn 0.0135 0.5856 0.8105
vn -0.6763 0.4396 0.5910
vn 0.0170 0.7342 0.6788
vn -0.6748 0.5476 0.4947
vn 0.0196 0.8506 0.5254
vn -0.6737 0.6322 0.3827
vn 0.0216 0.9337 0.3575
vn -0.6730 0.6924 0.2603
vn 0.0227 0.9833 0.1808
vn -0.6726 0.7282 0.1316
vn 0.0231 0.9997 -0.0000
vn -0.6724 0.7402 -0.0000
vn -0.6726 0.7282 -0.1316
vn 0.0227 0.9833 -0.1808
vn -0.6730 0.6923 -0.2603
vn 0.0216 0.9337 -0.3575
vn -0.6737 0.6322 -0.3827
vn 0.0196 0.8506 -0.5254
vn -0.6748 0.5476 -0.4947
vn 0.0170 0.7342 -0.6788
vn -0.6763 0.4396 -0.5910
vn 0.0135 0.5856 -0.8105
vn -0.6784 0.3107 -0.6658
vn 0.9998 -0.0175 -0.0000
vn 0.0094 0.4087 -0.9126
vn -0.6809 0.1658 -0.7133
vn 0.0049 0.2100 -0.9777
vn -0.7208 0.5149 -0.4640
vn -0.6775 0.4388 -0.5903
vn -0.6763 0.5465 -0.4939
vn -0.7188 0.5951 -0.3595
vn -0.7172 0.6525 -0.2448
vn -0.7162 0.6868 -0.1239
vn -0.7162 0.6868 0.1239
vn -0.7159 0.6982 -0.0000
vn -0.7172 0.6525 0.2448
vn -0.7188 0.5951 0.3595
vn -0.7208 0.5149 0.4640
vn -0.7234 0.4129 0.5534
vn -0.7262 0.2918 0.6225
vn -0.7290 0.1563 0.6664
vn -0.7317 0.0128 0.6815
vn -0.7234 0.4129 -0.5534
vn -0.7262 0.2918 -0.6225
vn -0.7290 0.1563 -0.6664
vn -0.7317 0.0128 -0.6815
vn -0.7340 -0.1306 -0.6664
vn -0.7359 -0.2662 -0.6225
vn -0.7374 -0.3873 -0.5534
vn -0.7385 -0.4893 -0.4640
vn -0.7392 -0.5696 -0.3595
vn -0.7396 -0.6269 -0.2448
vn -0.7399 -0.6613 -0.1239
vn -0.7399 -0.6727 -0.0000
vn -0.7399 -0.6613 0.1239
vn -0.7396 -0.6269 0.2448
vn -0.7392 -0.5696 0.3595
vn -0.7385 -0.4893 0.4640
vn -0.7374 -0.3873 0.5534
vn -0.7359 -0.2662 0.6225
vn -0.7340 -0.1306 0.6664
vn -0.6813 0.1655 -0.7131
vn -0.6996 -0.7024 -0.1313
vn -0.6867 -0.1415 0.7131
vn -0.6986 -0.6667 0.2598
vn -0.6754 0.6308 -0.3820
vn -0.6950 -0.5225 0.4939
vn -0.6971 -0.6067 0.3820
vn -0.6793 0.3102 -0.6651
vn -0.6749 0.6907 -0.2597
vn -0.6745 0.7265 -0.1313
vn -0.6925 -0.4148 0.5903
vn -0.6867 -0.1415 -0.7131
vn -0.6839 0.0120 -0.7295
vn -0.6744 0.7383 -0.0000
vn -0.6897 -0.2862 0.6652
vn -0.6745 0.7265 0.1313
vn -0.6897 -0.2862 -0.6652
vn -0.6749 0.6907 0.2597
vn -0.6950 -0.5225 -0.4939
vn -0.6925 -0.4148 -0.5903
vn -0.6754 0.6308 0.3820
vn -0.6763 0.5465 0.4939
vn -0.6986 -0.6667 -0.2598
vn -0.6971 -0.6067 -0.3820
vn -0.6775 0.4388 0.5903
vn -0.6792 0.3101 0.6652
vn -0.6813 0.1655 0.7130
vn -0.6996 -0.7024 0.1313
vn -0.6999 -0.7142 -0.0000
vn -0.6839 0.0120 0.7295
vn -0.7399 -0.6612 -0.1239
vn -0.6986 -0.6667 -0.2597
vn 0.1670 0.9809 0.0997
vn 0.0757 0.9916 -0.1046
vn -0.0715 0.9928 -0.0959
vn -0.1532 0.9855 -0.0734
vn -0.1334 0.9872 -0.0869
vn -0.0000 0.9986 -0.0531
vn -0.2400 0.9694 -0.0515
vn -0.9901 -0.1167 -0.0784
vn 0.0957 0.9903 0.1007
vn -0.0991 0.9938 0.0506
vn -0.9934 -0.0817 0.0798
vn 0.1670 0.9808 0.1004
vn -0.1028 0.9943 0.0288
vn -0.1879 0.9804 0.0599
vn -0.9962 -0.0790 0.0368
vn -0.0000 1.0000 -0.0000
vn 0.1268 -0.9919 -0.0000
vn -0.1267 0.9910 0.0427
vn -0.0000 0.1341 -0.9910
vn -0.9962 -0.0790 -0.0368
vn -0.0424 0.9299 0.3654
vn -0.3282 0.9444 0.0180
vn -0.9989 -0.0000 -0.0462
vn -0.3305 0.9436 -0.0191
vn 0.3356 -0.9420 -0.0000
vn -0.0000 -0.9282 -0.3721
vn 0.1267 -0.9910 -0.0427
vn -0.1268 0.9919 -0.0000
vn 0.1268 -0.9918 -0.0141
vn 0.1268 -0.9918 0.0141
vn -0.1267 0.9910 -0.0427
vn -0.9857 -0.1498 -0.0770
vn -0.9919 -0.1267 -0.0000
vn -0.9882 -0.1283 0.0840
vn -0.9920 -0.1114 -0.0600
vn -0.9891 -0.1411 0.0415
vn -0.9883 -0.1507 0.0254
vn -0.9918 -0.1277 -0.0000
vn -0.9916 -0.1276 -0.0199
vn -0.9932 -0.1116 -0.0326
vn -0.9919 -0.1268 -0.0000
vn -0.9931 -0.1126 0.0323
vn 0.1267 -0.9910 0.0427
vn -0.1268 0.9918 -0.0141
vn -0.1268 0.9918 0.0141
vn -0.0000 -0.0001 1.0000
vn 0.0001 -0.0004 -1.0000
vn -0.9794 -0.2018 -0.0000
vn -0.9797 -0.2003 -0.0000
vn 0.1725 -0.9849 -0.0144
vn -0.3214 0.9468 0.0178
vn -0.3356 0.9420 -0.0000
vn 0.9853 -0.0000 0.1707
vn 1.0000 -0.0000 -0.0017
vn -0.0000 -0.9994 0.0335
vn -0.3276 0.9446 -0.0191
vn 0.3249 0.9455 0.0196
vn 0.0153 0.9984 0.0540
vn 0.1416 0.9898 0.0162
vn 0.1414 0.9898 -0.0167
vn 0.0820 0.9952 -0.0529
vn 0.1929 0.9802 -0.0448
vn 0.3258 0.9453 -0.0185
vn 0.0144 0.9985 -0.0527
vn 0.0818 0.9953 0.0515
vn -0.0104 -0.0040 0.9999
vn -0.9961 0.0878 0.0078
vn -0.9954 0.0877 0.0393
vn -0.9993 -0.0000 -0.0387
vn 0.9428 -0.3327 -0.0208
vn 0.9380 -0.3444 -0.0404
vn -0.0000 0.9988 0.0491
vn 0.1928 0.9801 0.0479
vn -0.0000 0.9972 0.0749
vn -0.0000 0.9974 -0.0724
vn -0.0000 0.9989 -0.0459
vn 0.3466 -0.9380 -0.0000
vn -0.2858 0.9583 -0.0000
vn 0.2082 -0.9781 -0.0000
vn -0.2082 -0.9781 -0.0000
vn -0.6884 -0.7253 -0.0000
vn -0.6788 0.7343 -0.0000
vn 0.9988 -0.0489 -0.0000
vn -0.3141 0.9494 -0.0000
vn 0.7440 -0.6681 -0.0000
vn 0.6884 -0.7253 -0.0000
vn 0.6081 0.7939 -0.0000
vn -0.9898 -0.1412 0.0191
vn -0.9873 -0.1586 -0.0000
vn -0.9900 -0.1400 -0.0198
vn -0.9926 -0.1138 0.0416
vn -0.9897 -0.1379 -0.0380
vn -0.0000 -0.0001 -1.0000
vn -0.9997 -0.0259 -0.0000
vn -0.9949 -0.0970 -0.0262
vn 0.6788 0.7343 -0.0000
vn 0.9999 -0.0121 -0.0088
vn 0.3141 0.9494 -0.0000
vn -0.9949 -0.0970 0.0262
vn -0.0952 0.9561 -0.2771
vn 0.0114 0.0004 -0.9999
vn 0.9179 -0.3967 -0.0000
vn -0.0715 0.9928 0.0958
vn 0.0002 1.0000 -0.0000
vn -0.0060 0.0036 -1.0000
vn 0.1001 0.9946 0.0268
vn 0.0994 0.9902 0.0978
vn 0.0888 0.9946 0.0543
vn 0.0909 0.9917 -0.0904
vn 0.0884 0.9946 -0.0543
vn 0.0761 0.9956 -0.0548
vn -0.0000 0.9957 0.0930
vn 0.1032 0.9936 -0.0465
vn 0.0999 0.9946 -0.0269
vn 0.0991 0.9903 -0.0976
vn 0.0912 0.9918 0.0901
vn 0.0761 0.9956 0.0548
vn -0.0000 0.0903 0.9959
vn 0.0962 0.9953 0.0075
vn 0.1033 0.9946 -0.0081
vn -0.0000 0.1023 -0.9948
vn 0.0957 0.9954 -0.0075
vn 0.1033 0.9946 0.0081
vn -0.0000 1.0000 0.0001
vn -0.0758 -0.9922 0.0993
vn 0.0272 -0.0019 0.9996
vn 0.2015 0.9787 0.0398
vn 0.2952 0.9554 -0.0000
vn -0.0000 0.2494 0.9684
vn 0.2024 0.9785 -0.0405
vn -0.0999 -0.0000 0.9950
vn -0.0000 0.0363 0.9993
vn -0.7440 -0.6681 -0.0000
vn -0.1693 0.9856 -0.0000
vn -0.3703 -0.9289 -0.0000
vn -0.9713 0.2379 -0.0000
vn -0.0616 0.9981 -0.0000
vn -0.3466 -0.9380 -0.0000
vn 0.1693 0.9856 -0.0000
vn 0.2858 0.9583 -0.0000
vn 0.3703 -0.9289 -0.0000
vn -0.6081 0.7939 -0.0000
vn 0.0794 0.0756 0.9940
vn -0.0508 -0.0000 0.9987
vn 1.0000 -0.0079 -0.0000
vn 0.0048 -0.0012 -1.0000
vn -0.9706 0.2377 -0.0371
vn -0.9946 0.1035 0.0106
vn -0.9883 0.1495 -0.0308
vn -0.9886 0.1507 -0.0001
vn -0.9615 0.1602 0.2234
vn -0.9672 0.1648 -0.1931
vn -0.9886 0.1506 0.0001
vn -0.9701 0.2317 0.0721
vn -0.9625 0.2307 -0.1429
vn -0.9825 0.1863 0.0013
vn -0.9744 0.1009 -0.2010
vn -0.9829 0.1834 0.0188
vn -0.9691 0.1378 0.2045
vn -0.9809 0.1905 0.0384
vn -0.9674 0.1771 0.1809
vn -0.9688 0.1504 0.1968
vn -0.9886 0.1487 -0.0240
vn -0.9862 0.1374 0.0919
vn -0.9862 0.1373 -0.0923
vn -0.9687 0.1515 -0.1968
vn -0.9808 0.1916 -0.0371
vn -0.9668 0.1783 -0.1828
vn -0.9741 0.2261 -0.0028
vn -0.9887 0.1479 0.0238
vn 0.1670 0.9808 -0.1004
vn 0.1670 0.9809 -0.0996
vn -0.1678 -0.9858 -0.0000
vn 0.1678 0.9858 -0.0000
vn -0.1671 -0.9819 0.0896
vn -0.0149 -0.0876 -0.9960
vn -0.1671 -0.9819 -0.0896
vn -0.9999 -0.0163 0.0046
vn -0.0000 1.0000 0.0003
vn 0.0909 0.9956 0.0228
vn 0.0995 0.9949 0.0138
vn 0.0992 0.9950 -0.0139
vn 0.1033 0.9946 -0.0058
vn 0.1033 0.9946 0.0058
vn -0.9711 -0.2370 -0.0269
vn 0.0906 0.9956 -0.0225
vn -0.0002 0.1027 -0.9947
vn 0.0076 0.0957 -0.9954
vn 0.0064 0.1033 -0.9946
vn -0.0000 0.0962 -0.9954
vn -0.0002 0.1018 -0.9948
vn -0.0000 0.9951 0.0993
vn 0.9999 0.0163 0.0049
vn -0.0758 -0.9922 -0.0993
vn -0.0002 0.0906 -0.9959
vn -0.0000 0.0968 -0.9953
vn 0.0068 0.0891 -0.9960
vn 0.0063 0.0963 -0.9953
vn 0.0076 0.0965 -0.9953
vn -0.0758 -0.9928 -0.0930
vn 0.9783 -0.2065 -0.0163
vn -0.9999 -0.0163 -0.0046
vn -0.0002 0.0897 0.9960
vn 0.0076 0.0964 0.9953
vn 0.0061 0.0894 0.9960
vn -0.0001 0.0964 0.9953
vn -0.0002 0.0906 0.9959
vn -0.0758 -0.9928 0.0930
vn 0.9783 -0.2065 0.0163
vn -0.0000 0.9957 -0.0930
vn 0.0001 0.1020 0.9948
vn -0.0000 0.0951 0.9955
vn 0.0079 0.1036 0.9946
vn 0.0066 0.0961 0.9953
vn 0.0077 0.0961 0.9953
vn -0.9711 -0.2370 0.0269
vn 0.9999 0.0163 -0.0049
vn -0.0000 0.9951 -0.0993
vn -0.0000 0.9994 0.0342
vn -0.0000 0.1325 0.9912
vn -0.0000 -0.2479 0.9688
vn -0.0000 -0.2494 -0.9684
vn -0.0000 -0.9994 0.0355
vn -0.0000 -0.9994 -0.0342
vn -0.0000 0.9994 -0.0355
vn 0.9698 0.2438 0.0097
vn 0.9697 0.2444 -0.0036
vn 0.9728 0.2316 -0.0000
vn 0.9643 0.2634 -0.0286
vn 0.9722 0.2213 0.0760
vn 0.9702 0.2314 -0.0717
vn 0.9729 0.2311 -0.0000
vn 0.9629 0.2644 0.0540
vn 0.9750 0.2220 -0.0118
vn 0.9667 0.2435 -0.0791
vn 0.9729 0.2314 -0.0000
vn 0.9671 0.2431 0.0756
vn 0.9684 0.2489 -0.0144
vn 0.9672 0.2460 -0.0629
vn 0.9694 0.2350 -0.0712
vn 0.9724 0.2332 -0.0053
vn 0.9729 0.2282 0.0360
vn 0.9725 0.2329 0.0052
vn 0.9695 0.2345 0.0714
vn 0.9686 0.2483 0.0146
vn 0.9729 0.2282 -0.0361
vn 0.9674 0.2455 0.0623
vn 0.9651 0.2618 0.0106
vn 0.2404 -0.9707 -0.0000
vn 0.0238 -0.0959 0.9951
vn -0.2401 0.9695 0.0501
vn 0.0237 -0.0960 -0.9951
vn 0.2403 -0.9705 0.0187
vn 0.2403 -0.9705 0.0188
vn 1.0000 -0.0067 0.0028
vn -0.0000 0.9220 -0.3872
vn -1.0000 -0.0000 -0.0000
vn -0.0000 -0.9220 0.3872
vn -0.0000 0.9220 0.3872
vn 1.0000 -0.0067 -0.0028
vn -0.0000 -0.9220 -0.3872
vn 0.9882 -0.0000 -0.1533
vn 0.9882 -0.0000 0.1533
vn 0.9530 -0.0000 0.3030
vn 0.9530 -0.0000 -0.3030
vn -0.7656 -0.0000 0.6433
vn -0.7656 -0.0000 -0.6433
vn -0.7656 -0.6433 -0.0000
vn -0.7656 0.6433 -0.0000
vn 0.7129 0.7013 -0.0000
vn 0.7129 -0.7013 -0.0000
vn 0.7129 -0.0000 -0.7013
vn 0.7129 -0.0000 0.7013
vn 0.7612 -0.0000 -0.6485
vn 0.7612 -0.6485 -0.0000
vn 0.6952 -0.6840 0.2210
vn 0.7612 -0.0000 0.6485
vn 0.6952 0.6840 -0.2210
vn 0.7612 0.6485 -0.0000
vn -0.9823 -0.1874 -0.0029
vn -0.9889 -0.1426 -0.0415
vn -0.9870 -0.1605 -0.0000
vn -0.9796 -0.2003 0.0173
vn -0.9706 -0.2300 0.0705
vn -0.9926 -0.1110 -0.0496
vn -0.9821 -0.1867 -0.0265
vn -0.9866 -0.1612 0.0238
vn -0.9937 -0.1119 0.0030
vn -0.9938 -0.1111 -0.0029
vn 0.0001 -0.0003 -1.0000
vn 0.0001 -0.0004 1.0000
vn 0.1725 -0.9849 0.0144
vn 0.0001 -0.0003 1.0000
vn -0.1725 0.9850 -0.0000
vn -0.9748 -0.2230 -0.0000
vn -0.2230 0.9748 -0.0000
vn 0.2230 -0.9748 -0.0000
vn -0.9890 -0.1166 -0.0907
vn 0.2041 -0.0085 -0.9789
vn -0.0000 0.1023 0.9948
vn -0.1671 -0.9819 -0.0890
vn -0.0000 0.9996 -0.0266
vn -0.1980 0.9798 0.0271
vn -0.9873 -0.1308 0.0900
vn 0.0957 0.9900 0.1037
vn 0.1027 0.9894 -0.1023
vn -0.0000 0.0903 -0.9959
vn -0.0231 -0.9997 -0.0000
vn 0.9998 -0.0175 0.0001
vn 0.9998 -0.0175 -0.0001
vn 0.0952 0.9900 -0.1038
vn -0.9873 -0.1308 -0.0900
vn 0.1027 0.9894 0.1023
vn -0.9889 -0.1175 0.0907
vn -0.9904 -0.1136 0.0786
vn -0.9905 -0.1126 -0.0786
vn -0.0353 0.9407 0.3374
vn -0.3305 0.9436 0.0191
vn -0.3280 0.9445 -0.0180
vn -0.9882 -0.1280 -0.0835
vn -0.9919 -0.1270 -0.0000
vn -0.9856 -0.1503 0.0770
vn -0.9928 -0.1129 -0.0412
vn -0.9896 -0.1390 0.0373
vn -0.9916 -0.1278 0.0193
vn -0.9918 -0.1275 -0.0000
vn -0.9883 -0.1502 -0.0254
vn -0.9885 -0.1262 -0.0836
vn -0.9884 -0.1262 0.0841
vn -0.9746 -0.2230 0.0229
vn -0.9746 -0.2230 -0.0229
vn -0.3277 0.9446 0.0191
vn 1.0000 -0.0000 -0.0016
vn 0.0633 -0.9486 0.3101
vn -0.3215 0.9467 -0.0178
vn 0.7345 -0.0449 0.6771
vn 0.9383 -0.3445 0.0284
vn 0.9448 -0.3268 0.0208
vn -0.9869 -0.1585 0.0313
vn -0.9873 -0.1587 -0.0000
vn -0.9868 -0.1585 -0.0317
vn -0.9919 -0.1124 0.0597
vn -0.9893 -0.1399 -0.0419
vn -0.9871 0.0399 -0.1550
vn -0.9898 -0.1379 -0.0357
vn 0.9967 -0.0692 -0.0427
vn -0.9897 -0.1390 0.0356
vn -0.0455 0.9984 -0.0334
vn 0.0106 0.0015 -0.9999
vn 0.1032 0.9936 0.0465
vn 0.0068 0.0892 0.9960
vn 0.0762 0.9970 0.0100
vn 0.0957 0.9953 -0.0113
vn 0.0079 0.1037 -0.9946
vn 0.0762 0.9970 -0.0100
vn 0.0962 0.9953 0.0113
vn 0.0287 -0.0000 0.9996
vn 0.2053 -0.0086 0.9787
vn 0.9178 -0.2340 0.3209
vn -0.9761 0.2111 0.0516
vn -0.0196 0.4290 0.9031
vn 0.9722 0.1054 -0.2089
vn -0.0206 -0.0000 -0.9998
vn -0.0000 0.0035 -1.0000
vn -0.9753 0.2209 -0.0000
vn -0.9997 -0.0247 0.0025
vn -0.9827 0.1853 -0.0007
vn -0.9827 0.1843 -0.0189
vn -0.9885 0.1511 -0.0000
vn -0.9745 0.1000 0.2009
vn -0.9690 0.1383 -0.2046
vn -0.9887 0.1501 -0.0000
vn -0.9623 0.2307 0.1438
vn -0.9701 0.2316 -0.0731
vn -0.9945 0.1044 -0.0107
vn -0.9612 0.1610 -0.2240
vn -0.9883 0.1490 0.0316
vn -0.9675 0.1640 0.1923
vn -0.9740 0.2263 0.0035
vn -0.0000 0.0951 -0.9955
vn 0.0079 0.1036 -0.9946
vn 0.0002 0.1019 -0.9948
vn 0.0065 0.0961 -0.9953
vn 0.0076 0.0962 -0.9953
vn 0.0061 0.0894 -0.9960
vn -0.0002 0.0897 -0.9960
vn 0.0076 0.0964 -0.9953
vn -0.0000 0.0963 -0.9953
vn -0.0000 0.0968 0.9953
vn 0.0068 0.0891 0.9960
vn 0.0063 0.0963 0.9953
vn 0.0076 0.0965 0.9953
vn 0.0064 0.1033 0.9946
vn -0.0002 0.1028 0.9947
vn 0.0076 0.0956 0.9954
vn -0.0000 0.0962 0.9954
vn -0.0002 0.1019 0.9948
vn 0.9751 0.2214 0.0115
vn 0.9629 0.2643 -0.0538
vn 0.9668 0.2431 0.0790
vn 0.9670 0.2435 -0.0756
vn 0.9729 0.2313 -0.0000
vn 0.9643 0.2634 0.0279
vn 0.9697 0.2443 -0.0100
vn 0.9721 0.2219 -0.0760
vn 0.9698 0.2440 0.0038
vn 0.9703 0.2312 0.0715
vn 0.9651 0.2618 -0.0109
vn 0.9530 -0.0000 0.3029
vn 0.6952 0.6840 0.2210
vn 0.6952 -0.6840 -0.2210
vn -0.9869 -0.1613 -0.0000
vn -0.9926 -0.1118 0.0480
vn -0.9824 -0.1867 0.0030
vn -0.9713 -0.2278 -0.0691
vn -0.9793 -0.2018 -0.0180
vn -0.9889 -0.1426 0.0423
vn -0.9868 -0.1604 -0.0238
vn -0.9819 -0.1873 0.0263
vn -0.9733 -0.2283 -0.0258
vn -0.9727 -0.2305 0.0257
s 0
usemtl Material.004
f 356//1 4//1 340//1
f 659//2 843//2 845//2
f 553//3 866//3 355//3
f 596//4 2//4 339//4
f 332//5 654//5 666//5
s 1
f 594//6 2//7 584//8
f 889//9 502//10 527//11
s 0
f 809//12 897//12 810//12
f 330//5 630//5 647//5
f 506//4 890//4 343//4
f 954//13 913//13 953//13
f 460//3 345//3 474//3
f 786//3 346//3 636//3
f 318//5 643//5 646//5
f 31//5 644//5 643//5
f 317//5 39//5 322//5
f 29//5 41//5 39//5
f 338//14 749//14 756//14
f 48//15 906//15 911//15
s 1
f 523//16 892//17 515//18
f 892//17 519//19 515//18
f 311//20 589//21 592//22
f 20//23 590//24 589//21
s 0
f 312//5 663//5 665//5
f 22//5 664//5 663//5
f 844//25 347//25 847//25
f 23//25 348//25 347//25
f 331//26 349//26 357//26
f 19//27 350//27 349//27
s 1
f 44//28 463//29 461//28
f 43//30 485//29 483//28
f 319//31 461//28 467//31
f 320//32 483//28 487//31
s 0
f 40//5 586//5 585//5
f 39//5 42//5 40//5
f 321//5 585//5 591//5
f 322//5 40//5 321//5
f 587//3 351//3 595//3
f 482//3 352//3 494//3
f 333//5 588//5 593//5
s 1
f 335//33 466//33 469//33
f 336//34 480//33 489//33
s 0
f 466//4 353//4 472//4
f 480//4 354//4 492//4
f 617//35 743//35 804//35
f 744//36 613//36 615//36
f 745//37 614//37 613//37
f 324//38 751//38 54//38
f 26//39 902//39 904//39
f 793//40 748//40 794//40
f 323//41 901//41 906//41
f 47//42 759//42 760//42
f 79//103 95//103 111//103
s 1
f 92//107 164//108 152//109
f 62//136 177//144 64//135
f 88//123 164//108 90//122
f 92//107 151//145 94//110
f 62//136 179//146 178//147
f 88//123 166//141 165//148
f 94//110 153//149 96//111
f 58//138 179//146 60//137
f 84//125 166//141 86//124
f 96//111 154//150 98//112
f 56//139 180//151 58//138
f 84//125 168//152 167//153
f 98//112 155//154 100//114
f 56//139 182//143 181//155
f 80//127 168//152 82//126
f 102//113 155//154 156//156
f 116//121 182//143 117//140
f 78//128 169//157 80//127
f 104//115 156//156 157//158
f 78//128 171//159 170//160
f 106//116 157//158 158//161
f 74//130 171//159 76//129
f 108//117 158//161 159//162
f 74//130 173//163 172//164
f 108//117 160//165 110//118
f 70//132 173//163 72//131
f 112//119 160//165 161//166
f 68//133 174//142 70//132
f 112//119 162//167 114//120
f 68//133 176//168 175//169
f 116//121 162//167 163//170
f 66//134 177//144 176//168
s 0
f 207//103 223//103 239//103
s 1
f 220//107 292//108 280//109
f 190//136 305//144 192//135
f 216//123 292//108 218//122
f 220//107 279//145 222//110
f 190//136 307//146 306//147
f 216//123 294//141 293//148
f 222//110 281//149 224//111
f 186//138 307//146 188//137
f 212//125 294//141 214//124
f 224//111 282//150 226//112
f 184//139 308//151 186//138
f 212//125 296//152 295//153
f 226//112 283//154 228//114
f 184//139 310//143 309//155
f 208//127 296//152 210//126
f 228//114 284//156 230//113
f 244//121 310//143 245//140
f 208//127 298//160 297//157
f 232//115 284//156 285//158
f 206//128 299//159 298//160
f 234//116 285//158 286//161
f 202//130 299//159 204//129
f 236//117 286//161 287//162
f 202//130 301//172 300//164
f 236//117 288//165 238//118
f 200//131 302//142 301//172
f 240//119 288//165 289//166
f 196//133 302//142 198//171
f 240//119 290//167 242//120
f 196//133 304//168 303//169
f 244//121 290//167 291//170
f 194//134 305//144 304//168
s 0
f 328//173 757//173 755//173
f 748//174 615//174 794//174
f 33//5 591//5 583//5
s 1
f 36//175 487//31 481//31
f 37//31 467//31 459//31
s 0
f 314//5 859//5 8//5
f 7//5 665//5 661//5
s 1
f 4//176 592//22 587//177
f 894//178 523//16 511//178
s 0
f 12//179 905//179 315//179
f 9//5 646//5 641//5
f 350//180 311//180 356//180
f 315//39 902//39 25//39
f 614//181 742//181 617//181
s 1
f 45//182 489//33 485//29
f 46//29 469//33 463//29
s 0
f 41//5 333//5 42//5
f 42//5 593//5 586//5
f 2//183 357//183 339//183
f 328//184 750//184 28//184
f 32//5 647//5 644//5
f 30//5 334//5 41//5
s 1
f 893//185 527//11 519//19
f 590//24 331//186 594//6
s 0
f 21//5 666//5 664//5
f 348//25 841//25 848//25
f 348//25 852//25 548//25
f 339//187 555//187 539//187
f 541//188 871//188 553//188
f 574//4 354//4 552//4
f 472//4 551//4 570//4
f 494//3 550//3 572//3
f 595//3 549//3 604//3
f 369//189 383//189 384//189
f 347//25 548//25 547//25
f 847//25 547//25 851//25
f 636//3 546//3 640//3
f 568//3 345//3 545//3
f 627//4 344//4 544//4
f 582//4 343//4 543//4
f 603//4 339//4 539//4
f 355//191 860//191 314//191
f 659//3 849//3 674//3
f 554//192 340//192 540//192
s 1
f 463//29 470//33 464//29
f 464//29 737//33 741//29
s 0
f 1//197 965//197 325//197
f 18//197 981//197 17//197
f 471//4 570//4 569//4
f 344//4 569//4 544//4
f 567//3 474//3 568//3
f 7//5 819//5 312//5
f 325//197 982//197 18//197
f 588//198 413//198 600//198
f 382//199 395//199 400//199
f 368//201 392//201 383//201
f 369//202 391//202 375//202
f 380//215 397//215 379//215
f 381//189 397//189 395//189
f 38//225 415//225 413//225
f 33//226 414//226 370//226
f 3//197 969//197 968//197
f 3//227 599//227 583//227
f 313//197 981//197 969//197
f 5//5 823//5 821//5
f 550//3 473//3 567//3
f 578//3 432//3 565//3
f 673//4 431//4 566//4
f 426//5 330//5 32//5
s 1
f 656//229 429//230 658//231
f 419//178 657//232 653//233
s 0
f 425//5 32//5 31//5
f 427//5 31//5 318//5
s 1
f 423//234 656//229 655//235
f 428//236 655//235 657//232
s 0
f 667//4 422//4 431//4
s 1
f 429//230 662//237 658//231
s 0
f 514//3 432//3 534//3
f 445//5 839//5 444//5
f 438//5 832//5 447//5
f 312//5 834//5 22//5
f 332//5 833//5 823//5
f 5//5 669//5 654//5
f 21//5 834//5 833//5
f 434//239 440//239 450//239
f 421//5 671//5 661//5
f 421//240 448//240 449//240
f 364//241 452//241 10//241
f 605//5 452//5 623//5
f 365//242 451//242 454//242
f 14//5 639//5 630//5
f 362//243 456//243 14//243
s 1
f 460//31 739//31 747//31
f 459//31 468//31 460//31
s 0
f 738//4 471//4 344//4
f 465//4 472//4 471//4
s 1
f 470//33 738//33 737//33
f 469//33 465//33 470//33
f 468//31 740//28 739//31
f 467//31 462//28 468//31
f 740//28 464//29 741//29
f 461//28 464//29 462//28
s 0
f 37//3 473//3 352//3
f 459//3 474//3 473//3
f 351//3 571//3 549//3
f 493//3 572//3 571//3
f 551//4 491//4 573//4
f 573//4 492//4 574//4
s 1
f 486//29 335//33 46//29
f 485//29 490//33 486//29
f 482//31 319//31 37//31
f 481//31 488//31 482//31
s 0
f 34//4 491//4 353//4
f 479//4 492//4 491//4
s 1
f 490//33 34//33 335//33
f 489//33 479//33 490//33
s 0
f 36//3 493//3 351//3
f 481//3 494//3 493//3
s 1
f 488//31 44//28 319//31
f 487//31 484//28 488//31
f 484//28 46//29 44//28
f 483//28 486//29 484//28
s 0
f 894//3 531//3 346//3
f 511//3 532//3 531//3
f 512//3 533//3 532//3
f 513//3 534//3 533//3
f 346//3 575//3 546//3
f 531//3 576//3 575//3
f 532//3 577//3 576//3
f 577//3 534//3 578//3
f 431//4 579//4 566//4
f 503//4 580//4 579//4
f 580//4 505//4 581//4
f 581//4 506//4 582//4
s 1
f 522//244 429//230 424//245
f 521//244 530//246 522//244
f 520//244 529//246 521//244
f 519//19 528//246 520//244
f 514//178 428//236 419//178
f 513//178 526//247 514//178
f 512//178 525//247 513//178
f 511//178 524//247 512//178
f 518//248 424//245 423//234
f 517//248 522//244 518//248
f 516//248 521//244 517//248
f 515//18 520//244 516//248
f 526//247 423//234 428//236
f 525//247 518//248 526//247
f 524//247 517//248 525//247
f 523//16 516//248 524//247
s 0
f 431//4 499//4 503//4
f 503//4 500//4 504//4
f 504//4 501//4 505//4
f 505//4 502//4 506//4
s 1
f 530//246 422//10 429//230
f 529//246 499//10 530//246
f 528//246 500//10 529//246
f 527//11 501//10 528//246
s 0
f 497//249 685//249 498//249
f 372//251 692//251 497//251
f 371//252 719//252 475//252
f 476//253 704//253 364//253
f 495//249 715//249 496//249
f 510//257 676//257 362//257
f 370//258 722//258 495//258
f 375//267 540//267 359//267
f 674//3 360//3 660//3
f 852//25 361//25 377//25
f 603//4 378//4 597//4
f 851//25 366//25 374//25
f 547//25 367//25 366//25
f 498//258 682//258 373//258
f 849//25 374//25 360//25
f 539//271 376//271 378//271
f 548//25 377//25 367//25
f 359//3 604//3 598//3
f 583//227 407//227 33//227
f 1//198 600//198 966//198
f 373//274 682//274 415//274
f 552//4 596//4 603//4
f 340//3 604//3 540//3
s 1
f 590//24 336//34 45//182
s 0
f 586//5 325//5 18//5
s 1
f 36//175 592//22 320//32
s 0
f 583//5 313//5 3//5
f 593//5 1//5 325//5
f 4//3 595//3 340//3
f 591//5 17//5 313//5
f 585//5 18//5 17//5
s 1
f 589//21 45//182 43//30
f 320//32 589//21 43//30
f 594//6 35//275 336//34
s 0
f 354//4 584//4 596//4
f 769//4 627//4 621//4
f 607//5 455//5 13//5
f 761//5 623//5 770//5
f 772//4 620//4 627//4
f 345//3 628//3 545//3
f 610//5 329//5 30//5
s 1
f 777//278 617//279 779//280
s 0
f 605//5 317//5 10//5
s 1
f 794//281 778//282 796//283
s 0
f 606//284 799//284 785//284
s 1
f 613//285 777//278 776//286
f 615//287 776//286 778//282
f 779//280 804//288 812//289
s 0
f 609//5 30//5 29//5
f 616//5 29//5 317//5
f 921//4 948//4 924//4
f 768//4 802//4 620//4
f 618//5 13//5 329//5
f 802//290 743//290 738//290
f 343//4 809//4 648//4
f 635//291 897//291 896//291
f 898//292 632//292 53//292
f 632//37 900//37 53//37
f 786//293 895//293 894//293
f 895//294 634//294 898//294
f 633//295 896//295 900//295
f 543//4 648//4 652//4
f 9//5 650//5 451//5
f 784//3 637//3 781//3
f 630//5 783//5 774//5
f 780//3 640//3 784//3
f 644//5 767//5 764//5
f 641//5 766//5 761//5
f 643//5 764//5 763//5
f 646//5 763//5 766//5
f 795//3 636//3 780//3
f 647//5 774//5 767//5
f 645//297 816//297 814//297
f 361//4 673//4 668//4
f 7//5 671//5 818//5
f 654//5 440//5 420//5
s 1
f 658//231 842//299 841//300
s 0
f 842//301 667//301 846//301
s 1
f 844//300 655//235 23//300
f 655//235 24//300 23//300
f 843//302 657//232 844//300
f 656//229 841//300 24//300
s 0
f 850//4 667//4 673//4
f 432//3 674//3 565//3
f 664//5 430//5 426//5
f 661//5 427//5 421//5
f 663//5 426//5 425//5
f 665//5 425//5 427//5
f 666//5 420//5 430//5
f 419//3 659//3 432//3
f 434//305 695//305 507//305
f 507//307 696//307 508//307
f 508//5 697//5 509//5
f 509//313 683//313 510//313
f 538//305 717//305 433//305
f 475//310 714//310 476//310
f 365//257 725//257 535//257
f 535//313 726//313 536//313
f 536//5 727//5 537//5
f 537//307 716//307 538//307
f 496//251 713//251 371//251
f 16//320 737//320 738//320
f 316//321 740//321 27//321
f 27//322 741//322 28//322
f 50//323 742//323 338//323
f 54//324 744//324 324//324
f 52//325 745//325 54//325
f 16//326 743//326 50//326
f 11//327 748//327 747//327
f 11//328 739//328 316//328
f 47//329 744//329 748//329
f 328//330 741//330 737//330
f 52//331 742//331 746//331
f 316//343 752//343 753//343
f 316//344 759//344 11//344
f 52//345 751//345 749//345
f 27//346 750//346 752//346
f 47//347 754//347 324//347
f 50//348 757//348 16//348
f 50//349 756//349 758//349
f 765//350 805//350 762//350
f 767//5 607//5 618//5
f 793//3 780//3 619//3
f 766//5 609//5 616//5
f 763//5 610//5 609//5
f 761//5 616//5 605//5
f 764//5 618//5 610//5
f 619//3 784//3 628//3
f 774//5 625//5 607//5
f 628//3 781//3 622//3
f 648//4 811//4 768//4
s 1
f 779//280 810//352 635//353
f 634//354 776//286 632//355
f 776//286 633//356 632//355
s 0
f 631//357 790//357 792//357
s 1
f 788//358 778//282 634//354
f 777//278 635//353 633//356
s 0
f 652//4 768//4 772//4
f 641//5 770//5 650//5
f 649//4 772//4 769//4
f 629//359 795//359 773//359
f 775//360 788//360 631//360
f 629//361 788//361 786//361
f 775//362 795//362 796//362
f 773//364 790//364 629//364
f 773//365 791//365 789//365
f 631//366 791//366 775//366
f 606//367 794//367 611//367
f 606//368 795//368 793//368
f 787//369 794//369 796//369
f 785//370 796//370 795//370
f 787//372 798//372 611//372
f 606//373 798//373 797//373
f 787//374 799//374 800//374
f 608//375 811//375 762//375
f 765//376 804//376 612//376
f 608//377 804//377 802//377
f 762//378 812//378 765//378
f 765//380 808//380 807//380
f 608//381 808//381 612//381
f 608//382 805//382 806//382
f 642//383 810//383 645//383
f 642//384 811//384 809//384
f 803//385 810//385 812//385
f 803//386 811//386 801//386
f 645//388 813//388 642//388
f 801//389 816//389 803//389
f 801//390 813//390 815//390
f 435//4 826//4 436//4
f 446//5 825//5 435//5
f 442//25 834//25 443//25
f 326//25 842//25 6//25
f 314//25 843//25 844//25
f 8//25 845//25 843//25
f 6//25 846//25 342//25
f 314//25 847//25 355//25
f 326//25 848//25 841//25
f 541//25 845//25 341//25
f 542//25 846//25 850//25
f 553//25 847//25 851//25
f 556//25 848//25 358//25
f 542//25 852//25 556//25
f 553//25 849//25 541//25
f 866//191 888//191 860//191
f 867//391 884//391 868//391
f 863//3 874//3 854//3
f 864//188 878//188 862//188
f 326//392 867//392 358//392
f 8//393 865//393 341//393
f 358//4 872//4 556//4
f 341//4 869//4 541//4
f 342//394 858//394 6//394
f 556//188 870//188 542//188
f 6//5 857//5 326//5
f 542//3 868//3 342//3
f 854//25 865//25 866//25
f 855//25 868//25 856//25
f 861//25 865//25 853//25
f 862//25 868//25 870//25
f 854//25 871//25 863//25
f 855//25 872//25 867//25
f 862//25 872//25 864//25
f 861//25 871//25 869//25
f 853//4 877//4 861//4
f 854//395 873//395 853//395
f 861//188 879//188 863//188
f 855//4 880//4 864//4
f 862//3 876//3 856//3
f 856//396 875//396 855//396
f 859//393 881//393 865//393
f 858//5 885//5 857//5
f 865//397 882//397 866//397
f 857//392 883//392 867//392
f 868//394 886//394 858//394
f 860//5 887//5 859//5
f 15//398 889//398 327//398
f 25//399 891//399 315//399
f 26//400 892//400 25//400
f 12//401 895//401 48//401
f 49//402 896//402 897//402
f 323//403 53//403 899//403
f 51//404 53//404 900//404
f 15//405 897//405 890//405
f 12//406 891//406 894//406
f 48//407 898//407 323//407
f 26//408 889//408 893//408
f 337//409 900//409 896//409
f 51//421 901//421 899//421
f 48//422 910//422 12//422
f 327//39 904//39 907//39
f 15//423 907//423 909//423
f 49//424 909//424 912//424
f 49//425 908//425 337//425
f 337//426 903//426 51//426
f 960//188 932//188 959//188
f 802//427 913//427 620//427
f 915//428 802//428 738//428
f 916//429 738//429 344//429
f 913//430 344//430 620//430
f 947//188 957//188 929//188
f 747//429 917//429 345//429
f 955//431 747//431 793//431
f 920//432 793//432 619//432
f 917//433 619//433 345//433
f 924//429 915//429 916//429
f 921//5 916//5 913//5
f 945//3 928//3 925//3
f 945//429 917//429 918//429
f 955//4 932//4 918//4
f 928//13 955//13 920//13
f 925//5 920//5 917//5
f 915//3 957//3 953//3
f 918//429 946//429 945//429
f 948//429 929//429 915//429
f 950//3 962//3 961//3
f 950//5 956//5 945//5
f 939//429 926//429 936//429
f 962//188 946//188 960//188
f 964//4 952//4 951//4
f 964//5 948//5 954//5
f 952//188 958//188 947//188
f 941//429 933//429 923//429
f 926//438 946//438 936//438
f 933//439 948//439 923//439
f 939//439 950//439 938//439
f 938//440 945//440 926//440
f 936//441 949//441 939//441
f 941//438 952//438 944//438
f 923//440 951//440 941//440
f 944//441 947//441 933//441
f 914//442 954//442 953//442
f 919//442 956//442 927//442
f 930//443 958//443 934//443
f 931//443 960//443 959//443
f 931//444 955//444 919//444
f 914//445 957//445 930//445
f 937//446 962//446 940//446
f 937//447 956//447 961//447
f 940//448 960//448 935//448
f 943//449 964//449 942//449
f 942//450 954//450 922//450
f 943//451 958//451 963//451
f 412//469 987//469 411//469
f 356//470 311//470 4//470
f 659//471 653//471 843//471
f 553//3 871//3 866//3
f 596//4 584//4 2//4
f 332//5 5//5 654//5
s 1
f 594//6 331//186 2//7
f 889//9 890//10 502//10
s 0
f 809//472 890//472 897//472
f 330//5 14//5 630//5
f 506//4 502//4 890//4
f 954//13 921//13 913//13
f 460//3 747//3 345//3
f 786//3 894//3 346//3
f 318//5 31//5 643//5
f 31//5 32//5 644//5
f 317//5 29//5 39//5
f 29//5 30//5 41//5
f 338//473 52//473 749//473
f 48//15 323//15 906//15
s 1
f 523//16 891//474 892//17
f 892//17 893//185 519//19
f 311//20 20//23 589//21
f 20//23 19//475 590//24
s 0
f 312//5 22//5 663//5
f 22//5 21//5 664//5
f 844//25 23//25 347//25
f 23//25 24//25 348//25
f 331//476 19//476 349//476
f 19//27 20//27 350//27
s 1
f 44//28 46//29 463//29
f 43//30 45//182 485//29
f 319//31 44//28 461//28
f 320//32 43//30 483//28
s 0
f 40//5 42//5 586//5
f 39//5 41//5 42//5
f 321//5 40//5 585//5
f 322//5 39//5 40//5
f 587//3 36//3 351//3
f 482//3 37//3 352//3
f 333//5 38//5 588//5
s 1
f 335//33 34//33 466//33
f 336//34 35//275 480//33
s 0
f 466//4 34//4 353//4
f 480//4 35//4 354//4
f 617//477 742//477 743//477
f 744//478 745//478 613//478
f 745//37 746//37 614//37
f 324//38 754//38 751//38
f 26//39 25//39 902//39
f 793//479 747//479 748//479
f 323//41 899//41 901//41
f 47//42 11//42 759//42
f 111//103 113//103 115//103
f 115//103 118//103 55//103
f 55//103 57//103 59//103
f 59//481 61//481 63//481
f 63//103 65//103 67//103
f 67//103 69//103 71//103
f 71//103 73//103 75//103
f 75//103 77//103 79//103
f 79//103 81//103 83//103
f 83//103 85//103 87//103
f 87//482 89//482 91//482
f 91//103 93//103 95//103
f 95//103 97//103 99//103
f 99//103 101//103 103//103
f 103//103 105//103 107//103
f 107//103 109//103 111//103
f 111//103 115//103 55//103
f 55//103 59//103 63//103
f 63//103 67//103 71//103
f 71//103 75//103 79//103
f 79//103 83//103 87//103
f 87//103 91//103 95//103
f 95//103 99//103 103//103
f 103//103 107//103 111//103
f 111//103 55//103 63//103
f 63//103 71//103 79//103
f 79//103 87//103 95//103
f 95//103 103//103 111//103
f 111//103 63//103 79//103
s 1
f 92//107 90//122 164//108
f 62//136 178//147 177//144
f 88//123 165//148 164//108
f 92//107 152//109 151//145
f 62//136 60//137 179//146
f 88//123 86//124 166//141
f 94//110 151//145 153//149
f 58//138 180//151 179//146
f 84//125 167//153 166//141
f 96//111 153//149 154//150
f 56//139 181//155 180//151
f 84//125 82//126 168//152
f 98//112 154//150 155//154
f 56//139 117//140 182//143
f 80//127 169//157 168//152
f 102//113 100//114 155//154
f 116//121 163//170 182//143
f 78//128 170//160 169//157
f 104//115 102//113 156//156
f 78//128 76//129 171//159
f 106//116 104//115 157//158
f 74//130 172//164 171//159
f 108//117 106//116 158//161
f 74//130 72//131 173//163
f 108//117 159//162 160//165
f 70//132 174//142 173//163
f 112//119 110//118 160//165
f 68//133 175//169 174//142
f 112//119 161//166 162//167
f 68//133 66//134 176//168
f 116//121 114//120 162//167
f 66//134 64//135 177//144
s 0
f 239//103 241//103 243//103
f 243//103 246//103 183//103
f 183//103 185//103 187//103
f 187//481 189//481 191//481
f 191//103 193//103 195//103
f 195//103 197//103 199//103
f 199//103 201//103 203//103
f 203//103 205//103 207//103
f 207//103 209//103 211//103
f 211//103 213//103 215//103
f 215//482 217//482 219//482
f 219//103 221//103 223//103
f 223//103 225//103 227//103
f 227//103 229//103 231//103
f 231//103 233//103 235//103
f 235//103 237//103 239//103
f 239//103 243//103 183//103
f 183//103 187//103 191//103
f 191//103 195//103 199//103
f 199//103 203//103 207//103
f 207//103 211//103 215//103
f 215//103 219//103 223//103
f 223//103 227//103 231//103
f 231//103 235//103 239//103
f 239//103 183//103 191//103
f 191//103 199//103 207//103
f 207//103 215//103 223//103
f 223//103 231//103 239//103
f 239//103 191//103 207//103
s 1
f 220//107 218//122 292//108
f 190//136 306//147 305//144
f 216//123 293//148 292//108
f 220//107 280//109 279//145
f 190//136 188//137 307//146
f 216//123 214//124 294//141
f 222//110 279//145 281//149
f 186//138 308//151 307//146
f 212//125 295//153 294//141
f 224//111 281//149 282//150
f 184//139 309//155 308//151
f 212//125 210//126 296//152
f 226//112 282//150 283//154
f 184//139 245//140 310//143
f 208//127 297//157 296//152
f 228//114 283//154 284//156
f 244//121 291//170 310//143
f 208//127 206//128 298//160
f 232//115 230//113 284//156
f 206//128 204//129 299//159
f 234//116 232//115 285//158
f 202//130 300//164 299//159
f 236//117 234//116 286//161
f 202//130 200//131 301//172
f 236//117 287//162 288//165
f 200//131 198//171 302//142
f 240//119 238//118 288//165
f 196//133 303//169 302//142
f 240//119 289//166 290//167
f 196//133 194//134 304//168
f 244//121 242//120 290//167
f 194//134 192//135 305//144
s 0
f 328//173 16//173 757//173
f 748//483 744//483 615//483
f 33//5 321//5 591//5
s 1
f 36//175 320//32 487//31
f 37//31 319//31 467//31
s 0
f 314//5 860//5 859//5
f 7//5 312//5 665//5
s 1
f 4//176 311//20 592//22
f 894//178 891//474 523//16
s 0
f 12//179 910//179 905//179
f 9//5 318//5 646//5
f 350//484 20//484 311//484
f 315//39 905//39 902//39
f 614//485 746//485 742//485
s 1
f 45//182 336//34 489//33
f 46//29 335//33 469//33
s 0
f 41//5 334//5 333//5
f 42//5 333//5 593//5
f 2//486 331//486 357//486
f 328//184 755//184 750//184
f 32//5 330//5 647//5
f 30//5 329//5 334//5
s 1
f 893//185 889//9 527//11
f 590//24 19//475 331//186
s 0
f 21//5 332//5 666//5
f 348//25 24//25 841//25
f 348//25 848//25 852//25
f 339//487 357//487 555//487
f 541//188 869//188 871//188
f 574//4 492//4 354//4
f 472//4 353//4 551//4
f 494//3 352//3 550//3
f 595//3 351//3 549//3
f 369//189 368//189 383//189
f 347//25 348//25 548//25
f 847//25 347//25 547//25
f 636//3 346//3 546//3
f 568//3 474//3 345//3
f 627//4 620//4 344//4
f 582//4 506//4 343//4
f 603//4 596//4 339//4
f 355//191 866//191 860//191
f 659//3 845//3 849//3
f 554//488 356//488 340//488
s 1
f 463//29 469//33 470//33
f 464//29 470//33 737//33
s 0
f 1//197 966//197 965//197
f 18//197 982//197 981//197
f 471//4 472//4 570//4
f 344//4 471//4 569//4
f 567//3 473//3 474//3
f 7//5 818//5 819//5
f 325//197 965//197 982//197
f 588//198 38//198 413//198
f 382//199 381//199 395//199
f 368//201 376//201 392//201
f 369//202 384//202 391//202
f 380//215 399//215 397//215
f 381//189 379//189 397//189
f 38//225 373//225 415//225
f 33//505 407//505 414//505
f 3//197 313//197 969//197
f 3//506 968//506 599//506
f 313//197 17//197 981//197
f 5//5 332//5 823//5
f 550//3 352//3 473//3
f 578//3 534//3 432//3
f 673//4 667//4 431//4
f 426//5 430//5 330//5
s 1
f 656//229 424//245 429//230
f 419//178 428//236 657//232
s 0
f 425//5 426//5 32//5
f 427//5 425//5 31//5
s 1
f 423//234 424//245 656//229
f 428//236 423//234 655//235
s 0
f 667//4 662//4 422//4
s 1
f 429//230 422//10 662//237
s 0
f 514//3 419//3 432//3
f 445//5 840//5 839//5
f 438//5 828//5 832//5
f 312//5 819//5 834//5
f 332//5 21//5 833//5
f 5//5 821//5 669//5
f 21//5 22//5 834//5
f 434//239 420//239 440//239
f 421//5 449//5 671//5
f 421//240 433//240 448//240
f 364//241 453//241 452//241
f 605//5 10//5 452//5
f 365//509 9//509 451//509
f 14//5 456//5 639//5
f 362//510 457//510 456//510
s 1
f 460//31 468//31 739//31
f 459//31 467//31 468//31
s 0
f 738//4 465//4 471//4
f 465//4 466//4 472//4
s 1
f 470//33 465//33 738//33
f 469//33 466//33 465//33
f 468//31 462//28 740//28
f 467//31 461//28 462//28
f 740//28 462//28 464//29
f 461//28 463//29 464//29
s 0
f 37//3 459//3 473//3
f 459//3 460//3 474//3
f 351//3 493//3 571//3
f 493//3 494//3 572//3
f 551//4 353//4 491//4
f 573//4 491//4 492//4
s 1
f 486//29 490//33 335//33
f 485//29 489//33 490//33
f 482//31 488//31 319//31
f 481//31 487//31 488//31
s 0
f 34//4 479//4 491//4
f 479//4 480//4 492//4
s 1
f 490//33 479//33 34//33
f 489//33 480//33 479//33
s 0
f 36//3 481//3 493//3
f 481//3 482//3 494//3
s 1
f 488//31 484//28 44//28
f 487//31 483//28 484//28
f 484//28 486//29 46//29
f 483//28 485//29 486//29
s 0
f 894//3 511//3 531//3
f 511//3 512//3 532//3
f 512//3 513//3 533//3
f 513//3 514//3 534//3
f 346//3 531//3 575//3
f 531//3 532//3 576//3
f 532//3 533//3 577//3
f 577//3 533//3 534//3
f 431//4 503//4 579//4
f 503//4 504//4 580//4
f 580//4 504//4 505//4
f 581//4 505//4 506//4
s 1
f 522//244 530//246 429//230
f 521//244 529//246 530//246
f 520//244 528//246 529//246
f 519//19 527//11 528//246
f 514//178 526//247 428//236
f 513//178 525//247 526//247
f 512//178 524//247 525//247
f 511//178 523//16 524//247
f 518//248 522//244 424//245
f 517//248 521//244 522//244
f 516//248 520//244 521//244
f 515//18 519//19 520//244
f 526//247 518//248 423//234
f 525//247 517//248 518//248
f 524//247 516//248 517//248
f 523//16 515//18 516//248
s 0
f 431//4 422//4 499//4
f 503//4 499//4 500//4
f 504//4 500//4 501//4
f 505//4 501//4 502//4
s 1
f 530//246 499//10 422//10
f 529//246 500//10 499//10
f 528//246 501//10 500//10
f 527//11 502//10 501//10
s 0
f 497//249 692//249 685//249
f 372//251 680//251 692//251
f 371//252 713//252 719//252
f 476//253 714//253 704//253
f 495//249 722//249 715//249
f 510//257 683//257 676//257
f 370//258 711//258 722//258
f 375//517 554//517 540//517
f 674//3 849//3 360//3
f 852//25 850//25 361//25
f 603//4 539//4 378//4
f 851//25 547//25 366//25
f 547//25 548//25 367//25
f 498//258 685//258 682//258
f 849//25 851//25 374//25
f 539//519 555//519 376//519
f 548//25 852//25 377//25
f 359//3 540//3 604//3
f 583//227 599//227 407//227
f 1//198 588//198 600//198
f 552//4 354//4 596//4
f 340//3 595//3 604//3
s 1
f 590//24 594//6 336//34
s 0
f 586//5 593//5 325//5
s 1
f 36//175 587//177 592//22
s 0
f 583//5 591//5 313//5
f 593//5 588//5 1//5
f 4//3 587//3 595//3
f 591//5 585//5 17//5
f 585//5 586//5 18//5
s 1
f 589//21 590//24 45//182
f 320//32 592//22 589//21
f 594//6 584//8 35//275
s 0
f 354//4 35//4 584//4
f 769//4 772//4 627//4
f 607//5 625//5 455//5
f 761//5 605//5 623//5
f 772//4 768//4 620//4
f 345//3 619//3 628//3
f 610//5 618//5 329//5
s 1
f 777//278 614//522 617//279
s 0
f 605//5 616//5 317//5
s 1
f 794//281 615//287 778//282
s 0
f 606//284 797//284 799//284
s 1
f 613//285 614//522 777//278
f 615//287 613//285 776//286
f 779//280 617//279 804//288
s 0
f 609//5 610//5 30//5
f 616//5 609//5 29//5
f 921//4 954//4 948//4
f 768//4 811//4 802//4
f 618//5 607//5 13//5
f 802//523 804//523 743//523
f 343//4 890//4 809//4
f 635//524 810//524 897//524
f 898//525 634//525 632//525
f 632//37 633//37 900//37
f 786//526 788//526 895//526
f 895//527 788//527 634//527
f 633//528 635//528 896//528
f 543//4 343//4 648//4
f 9//5 641//5 650//5
f 784//3 640//3 637//3
f 630//5 639//5 783//5
f 780//3 636//3 640//3
f 644//5 647//5 767//5
f 641//5 646//5 766//5
f 643//5 644//5 764//5
f 646//5 643//5 763//5
f 795//3 786//3 636//3
f 647//5 630//5 774//5
f 645//297 803//297 816//297
f 361//4 850//4 673//4
f 7//5 661//5 671//5
f 654//5 669//5 440//5
s 1
f 658//231 662//237 842//299
s 0
f 842//530 662//530 667//530
s 1
f 844//300 657//232 655//235
f 655//235 656//229 24//300
f 843//302 653//233 657//232
f 656//229 658//231 841//300
s 0
f 850//4 846//4 667//4
f 432//3 659//3 674//3
f 664//5 666//5 430//5
f 661//5 665//5 427//5
f 663//5 664//5 426//5
f 665//5 663//5 425//5
f 666//5 654//5 420//5
f 419//3 653//3 659//3
f 434//305 687//305 695//305
f 507//307 695//307 696//307
f 508//5 696//5 697//5
f 509//313 697//313 683//313
f 538//305 716//305 717//305
f 475//310 719//310 714//310
f 365//257 709//257 725//257
f 535//313 725//313 726//313
f 536//5 726//5 727//5
f 537//307 727//307 716//307
f 496//251 715//251 713//251
f 16//539 328//539 737//539
f 316//540 739//540 740//540
f 27//541 740//541 741//541
f 50//542 743//542 742//542
f 54//543 745//543 744//543
f 52//544 746//544 745//544
f 16//545 738//545 743//545
f 11//546 47//546 748//546
f 11//547 747//547 739//547
f 47//548 324//548 744//548
f 328//549 28//549 741//549
f 52//550 338//550 742//550
f 316//343 27//343 752//343
f 316//344 753//344 759//344
f 52//345 54//345 751//345
f 27//346 28//346 750//346
f 47//347 760//347 754//347
f 50//348 758//348 757//348
f 50//349 338//349 756//349
f 765//350 807//350 805//350
f 767//5 774//5 607//5
f 793//3 795//3 780//3
f 766//5 763//5 609//5
f 763//5 764//5 610//5
f 761//5 766//5 616//5
f 764//5 767//5 618//5
f 619//3 780//3 784//3
f 774//5 783//5 625//5
f 628//3 784//3 781//3
f 648//4 809//4 811//4
s 1
f 779//280 812//289 810//352
f 634//354 778//282 776//286
f 776//286 777//278 633//356
s 0
f 631//357 629//357 790//357
s 1
f 788//358 796//283 778//282
f 777//278 779//280 635//353
s 0
f 652//4 648//4 768//4
f 641//5 761//5 770//5
f 649//4 652//4 772//4
f 629//552 786//552 795//552
f 775//553 796//553 788//553
f 629//554 631//554 788//554
f 775//555 773//555 795//555
f 773//364 789//364 790//364
f 773//365 775//365 791//365
f 631//366 792//366 791//366
f 606//557 793//557 794//557
f 606//558 785//558 795//558
f 787//559 611//559 794//559
f 785//560 787//560 796//560
f 787//372 800//372 798//372
f 606//373 611//373 798//373
f 787//374 785//374 799//374
f 608//561 802//561 811//561
f 765//562 812//562 804//562
f 608//379 612//379 804//379
f 762//563 811//563 812//563
f 765//380 612//380 808//380
f 608//381 806//381 808//381
f 608//382 762//382 805//382
f 642//565 809//565 810//565
f 642//566 801//566 811//566
f 803//567 645//567 810//567
f 803//568 812//568 811//568
f 645//388 814//388 813//388
f 801//389 815//389 816//389
f 801//390 642//390 813//390
f 435//4 825//4 826//4
f 446//5 830//5 825//5
f 442//25 833//25 834//25
f 326//25 841//25 842//25
f 314//25 8//25 843//25
f 8//25 341//25 845//25
f 6//25 842//25 846//25
f 314//25 844//25 847//25
f 326//25 358//25 848//25
f 541//25 849//25 845//25
f 542//25 342//25 846//25
f 553//25 355//25 847//25
f 556//25 852//25 848//25
f 542//25 850//25 852//25
f 553//25 851//25 849//25
f 866//191 882//191 888//191
f 867//391 883//391 884//391
f 863//3 879//3 874//3
f 864//188 880//188 878//188
f 326//392 857//392 867//392
f 8//393 859//393 865//393
f 358//4 867//4 872//4
f 341//4 865//4 869//4
f 342//394 868//394 858//394
f 556//188 872//188 870//188
f 6//5 858//5 857//5
f 542//3 870//3 868//3
f 854//25 853//25 865//25
f 855//25 867//25 868//25
f 861//25 869//25 865//25
f 862//25 856//25 868//25
f 854//25 866//25 871//25
f 855//25 864//25 872//25
f 862//25 870//25 872//25
f 861//25 863//25 871//25
f 853//4 873//4 877//4
f 854//395 874//395 873//395
f 861//188 877//188 879//188
f 855//4 875//4 880//4
f 862//3 878//3 876//3
f 856//396 876//396 875//396
f 859//393 887//393 881//393
f 858//5 886//5 885//5
f 865//397 881//397 882//397
f 857//392 885//392 883//392
f 868//394 884//394 886//394
f 860//5 888//5 887//5
f 15//570 890//570 889//570
f 25//400 892//400 891//400
f 26//408 893//408 892//408
f 12//571 894//571 895//571
f 49//572 337//572 896//572
f 323//573 898//573 53//573
f 51//574 899//574 53//574
f 15//575 49//575 897//575
f 12//576 315//576 891//576
f 48//577 895//577 898//577
f 26//578 327//578 889//578
f 337//579 51//579 900//579
f 51//421 903//421 901//421
f 48//422 911//422 910//422
f 327//39 26//39 904//39
f 15//423 327//423 907//423
f 49//424 15//424 909//424
f 49//425 912//425 908//425
f 337//426 908//426 903//426
f 960//188 946//188 932//188
f 802//427 953//427 913//427
f 915//428 953//428 802//428
f 916//429 915//429 738//429
f 913//430 916//430 344//430
f 947//188 958//188 957//188
f 747//429 918//429 917//429
f 955//431 918//431 747//431
f 920//432 955//432 793//432
f 917//433 920//433 619//433
f 924//429 948//429 915//429
f 921//5 924//5 916//5
f 945//3 956//3 928//3
f 945//429 925//429 917//429
f 955//4 959//4 932//4
f 928//13 956//13 955//13
f 925//5 928//5 920//5
f 915//3 929//3 957//3
f 918//429 932//429 946//429
f 948//429 947//429 929//429
f 950//3 949//3 962//3
f 950//5 961//5 956//5
f 939//429 938//429 926//429
f 962//188 949//188 946//188
f 964//4 963//4 952//4
f 964//5 951//5 948//5
f 952//188 963//188 958//188
f 941//429 944//429 933//429
f 926//438 945//438 946//438
f 933//439 947//439 948//439
f 939//439 949//439 950//439
f 938//440 950//440 945//440
f 936//441 946//441 949//441
f 941//438 951//438 952//438
f 923//440 948//440 951//440
f 944//441 952//441 947//441
f 914//442 922//442 954//442
f 919//442 955//442 956//442
f 930//443 957//443 958//443
f 931//443 935//443 960//443
f 931//444 959//444 955//444
f 914//445 953//445 957//445
f 937//446 961//446 962//446
f 937//582 927//582 956//582
f 940//451 962//451 960//451
f 943//449 963//449 964//449
f 942//447 964//447 954//447
f 943//583 934//583 958//583
f 412//469 988//469 987//469
s 1
usemtl Material.005
f 755//332 758//333 756//334
f 752//335 749//336 751//337
f 752//335 754//338 753//339
f 753//339 760//340 759//341
f 750//342 756//334 749//336
s 0
f 789//363 792//363 790//363
f 799//371 798//371 800//371
f 805//379 808//379 806//379
f 815//387 814//387 816//387
s 1
f 905//410 911//411 906//412
f 902//413 903//414 904//415
f 904//415 908//416 907//417
f 902//413 906//412 901//418
f 907//417 912//419 909//420
f 914//25 934//434 922//434
f 927//435 931//25 919//25
f 937//436 935//435 927//435
f 943//437 922//434 934//434
f 755//332 757//551 758//333
f 752//335 750//342 749//336
f 752//335 751//337 754//338
f 753//339 754//338 760//340
f 750//342 755//332 756//334
s 0
f 789//556 791//556 792//556
f 799//367 797//367 798//367
f 805//564 807//564 808//564
f 815//569 813//569 814//569
s 1
f 905//410 910//580 911//411
f 902//413 901//418 903//414
f 904//415 903//414 908//416
f 902//413 905//410 906//412
f 907//417 908//416 912//419
f 914//25 930//25 934//434
f 927//435 935//435 931//25
f 937//436 940//581 935//435
f 943//437 942//437 922//434
usemtl Material.006
f 115//43 130//44 131//45
f 113//46 129//47 130//44
f 111//48 128//49 129//47
f 109//50 127//51 128//49
f 107//52 126//53 127//51
f 105//54 125//55 126//53
f 103//56 124//57 125//55
f 101//58 123//59 124//57
f 123//59 97//60 122//61
f 122//61 95//62 121//63
f 121//63 93//64 119//65
f 119//65 91//66 120//67
f 120//67 89//68 132//69
f 132//69 87//70 133//71
f 133//71 85//72 134//73
f 134//73 83//74 135//75
f 135//75 81//76 136//77
f 136//77 79//78 137//79
f 137//79 77//80 138//81
f 138//81 75//82 139//83
f 139//83 73//84 140//85
f 140//85 71//86 141//87
f 141//87 69//88 142//89
f 142//89 67//90 143//91
f 67//90 144//92 143//91
f 65//93 145//94 144//92
f 63//95 146//96 145//94
f 61//97 147//98 146//96
f 59//99 148//100 147//98
f 57//101 149//102 148//100
f 55//104 150//105 149//102
f 118//106 131//45 150//105
f 92//107 119//65 120//67
f 94//110 121//63 119//65
f 96//111 122//61 121//63
f 98//112 123//59 122//61
f 102//113 123//59 100//114
f 104//115 124//57 102//113
f 106//116 125//55 104//115
f 108//117 126//53 106//116
f 110//118 127//51 108//117
f 112//119 128//49 110//118
f 114//120 129//47 112//119
f 116//121 130//44 114//120
f 90//122 120//67 132//69
f 88//123 132//69 133//71
f 86//124 133//71 134//73
f 84//125 134//73 135//75
f 84//125 136//77 82//126
f 82//126 137//79 80//127
f 80//127 138//81 78//128
f 78//128 139//83 76//129
f 76//129 140//85 74//130
f 74//130 141//87 72//131
f 72//131 142//89 70//132
f 70//132 143//91 68//133
f 66//134 143//91 144//92
f 64//135 144//92 145//94
f 62//136 145//94 146//96
f 60//137 146//96 147//98
f 58//138 147//98 148//100
f 56//139 148//100 149//102
f 117//140 149//102 150//105
f 116//121 150//105 131//45
f 243//43 258//44 259//45
f 241//46 257//47 258//44
f 239//48 256//49 257//47
f 237//50 255//51 256//49
f 235//52 254//53 255//51
f 233//54 253//55 254//53
f 231//56 252//57 253//55
f 229//58 251//59 252//57
f 251//59 225//60 250//61
f 250//61 223//62 249//63
f 249//63 221//64 247//65
f 247//65 219//66 248//67
f 248//67 217//68 260//69
f 260//69 215//70 261//71
f 261//71 213//72 262//73
f 262//73 211//74 263//75
f 263//75 209//76 264//77
f 264//77 207//78 265//79
f 265//79 205//80 266//81
f 266//81 203//82 267//83
f 267//83 201//84 268//85
f 268//85 199//86 269//87
f 269//87 197//88 270//89
f 270//89 195//90 271//91
f 195//90 272//92 271//91
f 193//93 273//94 272//92
f 191//95 274//96 273//94
f 189//97 275//98 274//96
f 187//99 276//100 275//98
f 185//101 277//102 276//100
f 183//104 278//105 277//102
f 246//106 259//45 278//105
f 220//107 247//65 248//67
f 222//110 249//63 247//65
f 224//111 250//61 249//63
f 226//112 251//59 250//61
f 230//113 251//59 228//114
f 232//115 252//57 230//113
f 234//116 253//55 232//115
f 236//117 254//53 234//116
f 238//118 255//51 236//117
f 240//119 256//49 238//118
f 242//120 257//47 240//119
f 244//121 258//44 242//120
f 218//122 248//67 260//69
f 216//123 260//69 261//71
f 214//124 261//71 262//73
f 212//125 262//73 263//75
f 212//125 264//77 210//126
f 210//126 265//79 208//127
f 208//127 266//81 206//128
f 206//128 267//83 204//129
f 204//129 268//85 202//130
f 202//130 269//87 200//131
f 200//131 270//89 198//171
f 198//171 271//91 196//133
f 194//134 271//91 272//92
f 192//135 272//92 273//94
f 190//136 273//94 274//96
f 188//137 274//96 275//98
f 186//138 275//98 276//100
f 184//139 276//100 277//102
f 245//140 277//102 278//105
f 244//121 278//105 259//45
s 0
f 554//3 391//3 557//3
f 349//190 390//190 357//190
f 378//193 601//193 597//193
f 361//188 824//188 377//188
f 367//188 835//188 366//188
f 376//194 983//194 971//194
f 13//195 458//195 363//195
f 360//188 822//188 817//188
f 360//188 670//188 660//188
f 375//196 984//196 369//196
f 374//188 835//188 822//188
f 382//3 564//3 560//3
f 394//200 396//200 398//200
f 350//200 389//200 349//200
f 555//4 390//4 558//4
f 350//203 388//203 387//203
f 380//204 387//204 388//204
f 381//205 387//205 379//205
f 382//206 389//206 381//206
f 380//207 557//207 559//207
f 386//208 558//208 560//208
f 386//209 383//209 392//209
f 394//210 383//210 393//210
f 385//211 384//211 394//211
f 385//216 398//216 401//216
f 386//217 396//217 393//217
f 385//218 563//218 559//218
f 418//219 974//219 404//219
f 601//4 966//4 600//4
f 971//220 982//220 965//220
f 409//4 988//4 412//4
f 602//3 407//3 599//3
f 981//221 970//221 969//221
f 418//222 979//222 980//222
f 378//223 971//223 972//223
f 368//224 984//224 983//224
f 359//228 970//228 375//228
f 670//3 818//3 671//3
f 441//188 829//188 439//188
f 822//25 834//25 819//25
f 836//25 823//25 833//25
f 669//4 450//4 440//4
f 686//238 688//238 450//238
f 377//188 836//188 367//188
f 638//3 451//3 650//3
f 625//4 458//4 455//4
f 574//250 693//250 573//250
f 575//254 708//254 546//254
f 673//255 686//255 668//255
f 546//188 732//188 640//188
f 576//256 728//256 575//256
f 545//259 721//259 568//259
f 380//4 563//4 399//4
f 382//263 558//263 390//263
f 385//264 557//264 391//264
f 555//4 392//4 376//4
f 386//265 564//265 402//265
f 577//188 729//188 576//188
f 597//266 705//266 603//266
f 544//188 703//188 627//188
f 543//254 701//254 582//254
f 579//268 688//268 566//268
f 660//255 736//255 674//255
f 734//269 622//269 624//269
f 578//270 730//270 577//270
f 674//188 718//188 565//188
f 580//270 698//270 579//270
f 554//3 388//3 356//3
f 478//252 680//252 372//252
f 359//272 602//272 967//272
f 968//273 602//273 599//273
f 413//4 601//4 600//4
f 628//276 706//276 545//276
f 769//188 626//188 771//188
f 783//4 626//4 625//4
f 453//3 623//3 452//3
f 704//277 734//277 624//277
f 456//4 651//4 639//4
f 728//3 726//3 725//3
f 581//188 699//188 580//188
f 782//3 650//3 770//3
f 637//296 782//296 781//296
f 717//3 736//3 735//3
f 361//188 672//188 820//188
f 821//298 672//298 669//298
f 448//3 671//3 449//3
f 697//4 701//4 683//4
f 696//4 700//4 697//4
f 698//4 696//4 695//4
f 688//4 695//4 687//4
f 692//4 694//4 685//4
f 680//4 693//4 692//4
f 729//3 727//3 726//3
f 677//4 689//4 678//4
f 690//4 684//4 689//4
f 683//4 675//4 676//4
f 691//4 680//4 684//4
f 685//303 681//303 682//303
f 723//3 715//3 722//3
f 708//3 725//3 709//3
f 457//304 675//304 707//304
f 573//306 679//306 551//306
f 727//3 731//3 716//3
f 363//253 689//253 477//253
f 649//308 707//308 652//308
f 603//309 681//309 552//309
f 569//259 677//259 544//259
f 477//310 684//310 478//310
f 551//311 691//311 570//311
f 652//188 675//188 543//188
f 570//312 690//312 569//312
f 566//188 702//188 673//188
f 574//314 681//314 694//314
f 682//315 705//315 601//315
f 582//256 700//256 581//256
f 626//316 677//316 678//316
f 703//317 621//317 627//317
f 710//3 722//3 711//3
f 716//3 718//3 717//3
f 713//3 720//3 719//3
f 719//3 721//3 714//3
f 714//3 706//3 704//3
f 724//3 713//3 715//3
f 414//3 733//3 710//3
f 638//318 708//318 709//318
f 549//309 733//309 604//309
f 568//312 720//312 567//312
f 572//250 723//250 571//250
f 550//306 724//306 572//306
f 571//314 710//314 549//314
f 640//319 638//319 637//319
f 733//266 598//266 604//266
f 565//268 731//268 578//268
f 567//311 712//311 550//311
f 781//351 624//351 622//351
f 624//3 770//3 623//3
f 639//4 771//4 783//4
f 649//188 771//188 651//188
f 436//25 817//25 435//25
f 437//25 818//25 436//25
f 438//25 821//25 439//25
f 446//25 819//25 437//25
f 439//25 823//25 441//25
f 441//25 824//25 447//25
f 447//25 820//25 438//25
f 435//25 822//25 446//25
f 439//3 828//3 438//3
f 447//4 831//4 441//4
f 437//3 830//3 446//3
f 436//188 827//188 437//188
f 443//25 835//25 444//25
f 445//25 833//25 442//25
f 444//25 836//25 445//25
f 839//25 837//25 838//25
f 444//4 838//4 443//4
f 442//3 840//3 445//3
f 443//188 837//188 442//188
f 403//452 966//452 404//452
f 406//453 967//453 968//453
f 408//454 968//454 969//454
f 416//455 969//455 970//455
f 417//456 965//456 403//456
f 404//457 972//457 418//457
f 416//458 967//458 405//458
f 417//459 972//459 971//459
f 408//462 978//462 977//462
f 405//463 976//463 975//463
f 405//464 978//464 416//464
f 403//465 979//465 417//465
f 408//466 976//466 406//466
f 403//466 974//466 973//466
f 409//467 982//467 410//467
f 410//467 983//467 411//467
f 409//467 984//467 981//467
f 411//467 984//467 412//467
f 987//467 985//467 986//467
f 410//468 985//468 409//468
f 411//3 986//3 410//3
s 1
f 115//43 113//46 130//44
f 113//46 111//48 129//47
f 111//48 109//50 128//49
f 109//50 107//52 127//51
f 107//52 105//54 126//53
f 105//54 103//56 125//55
f 103//56 101//58 124//57
f 101//58 99//480 123//59
f 123//59 99//480 97//60
f 122//61 97//60 95//62
f 121//63 95//62 93//64
f 119//65 93//64 91//66
f 120//67 91//66 89//68
f 132//69 89//68 87//70
f 133//71 87//70 85//72
f 134//73 85//72 83//74
f 135//75 83//74 81//76
f 136//77 81//76 79//78
f 137//79 79//78 77//80
f 138//81 77//80 75//82
f 139//83 75//82 73//84
f 140//85 73//84 71//86
f 141//87 71//86 69//88
f 142//89 69//88 67//90
f 67//90 65//93 144//92
f 65//93 63//95 145//94
f 63//95 61//97 146//96
f 61//97 59//99 147//98
f 59//99 57//101 148//100
f 57//101 55//104 149//102
f 55//104 118//106 150//105
f 118//106 115//43 131//45
f 92//107 94//110 119//65
f 94//110 96//111 121//63
f 96//111 98//112 122//61
f 98//112 100//114 123//59
f 102//113 124//57 123//59
f 104//115 125//55 124//57
f 106//116 126//53 125//55
f 108//117 127//51 126//53
f 110//118 128//49 127//51
f 112//119 129//47 128//49
f 114//120 130//44 129//47
f 116//121 131//45 130//44
f 90//122 92//107 120//67
f 88//123 90//122 132//69
f 86//124 88//123 133//71
f 84//125 86//124 134//73
f 84//125 135//75 136//77
f 82//126 136//77 137//79
f 80//127 137//79 138//81
f 78//128 138//81 139//83
f 76//129 139//83 140//85
f 74//130 140//85 141//87
f 72//131 141//87 142//89
f 70//132 142//89 143//91
f 66//134 68//133 143//91
f 64//135 66//134 144//92
f 62//136 64//135 145//94
f 60//137 62//136 146//96
f 58//138 60//137 147//98
f 56//139 58//138 148//100
f 117//140 56//139 149//102
f 116//121 117//140 150//105
f 243//43 241//46 258//44
f 241//46 239//48 257//47
f 239//48 237//50 256//49
f 237//50 235//52 255//51
f 235//52 233//54 254//53
f 233//54 231//56 253//55
f 231//56 229//58 252//57
f 229//58 227//480 251//59
f 251//59 227//480 225//60
f 250//61 225//60 223//62
f 249//63 223//62 221//64
f 247//65 221//64 219//66
f 248//67 219//66 217//68
f 260//69 217//68 215//70
f 261//71 215//70 213//72
f 262//73 213//72 211//74
f 263//75 211//74 209//76
f 264//77 209//76 207//78
f 265//79 207//78 205//80
f 266//81 205//80 203//82
f 267//83 203//82 201//84
f 268//85 201//84 199//86
f 269//87 199//86 197//88
f 270//89 197//88 195//90
f 195//90 193//93 272//92
f 193//93 191//95 273//94
f 191//95 189//97 274//96
f 189//97 187//99 275//98
f 187//99 185//101 276//100
f 185//101 183//104 277//102
f 183//104 246//106 278//105
f 246//106 243//43 259//45
f 220//107 222//110 247//65
f 222//110 224//111 249//63
f 224//111 226//112 250//61
f 226//112 228//114 251//59
f 230//113 252//57 251//59
f 232//115 253//55 252//57
f 234//116 254//53 253//55
f 236//117 255//51 254//53
f 238//118 256//49 255//51
f 240//119 257//47 256//49
f 242//120 258//44 257//47
f 244//121 259//45 258//44
f 218//122 220//107 248//67
f 216//123 218//122 260//69
f 214//124 216//123 261//71
f 212//125 214//124 262//73
f 212//125 263//75 264//77
f 210//126 264//77 265//79
f 208//127 265//79 266//81
f 206//128 266//81 267//83
f 204//129 267//83 268//85
f 202//130 268//85 269//87
f 200//131 269//87 270//89
f 198//171 270//89 271//91
f 194//134 196//133 271//91
f 192//135 194//134 272//92
f 190//136 192//135 273//94
f 188//137 190//136 274//96
f 186//138 188//137 275//98
f 184//139 186//138 276//100
f 245//140 184//139 277//102
f 244//121 245//140 278//105
s 0
f 554//3 375//3 391//3
f 349//190 389//190 390//190
f 378//489 972//489 601//489
f 361//188 820//188 824//188
f 367//188 836//188 835//188
f 376//490 368//490 983//490
f 13//195 455//195 458//195
f 360//188 374//188 822//188
f 360//188 817//188 670//188
f 375//491 970//491 984//491
f 374//188 366//188 835//188
f 382//3 400//3 564//3
f 394//200 393//200 396//200
f 350//200 387//200 389//200
f 555//4 357//4 390//4
f 350//203 356//203 388//203
f 380//492 379//492 387//492
f 381//493 389//493 387//493
f 382//494 390//494 389//494
f 380//495 388//495 557//495
f 386//496 392//496 558//496
f 386//497 393//497 383//497
f 394//498 384//498 383//498
f 385//499 391//499 384//499
f 385//216 394//216 398//216
f 386//217 402//217 396//217
f 385//218 401//218 563//218
f 418//219 980//219 974//219
f 601//4 972//4 966//4
f 971//502 983//502 982//502
f 409//4 985//4 988//4
f 602//3 414//3 407//3
f 981//503 984//503 970//503
f 418//222 417//222 979//222
f 378//504 376//504 971//504
f 368//224 369//224 984//224
f 359//507 967//507 970//507
f 670//3 817//3 818//3
f 441//188 831//188 829//188
f 822//25 835//25 834//25
f 836//25 824//25 823//25
f 669//4 672//4 450//4
f 450//5 672//5 686//5
f 686//4 702//4 688//4
f 688//508 687//508 450//508
f 377//188 824//188 836//188
f 638//3 454//3 451//3
f 625//4 626//4 458//4
f 574//250 694//250 693//250
f 575//254 728//254 708//254
f 673//255 702//255 686//255
f 546//188 708//188 732//188
f 576//256 729//256 728//256
f 545//259 706//259 721//259
f 380//4 559//4 563//4
f 382//514 560//514 558//514
f 385//515 559//515 557//515
f 555//4 558//4 392//4
f 386//265 560//265 564//265
f 577//188 730//188 729//188
f 597//516 601//516 705//516
f 544//188 677//188 703//188
f 543//254 675//254 701//254
f 579//268 698//268 688//268
f 660//518 735//518 736//518
f 734//317 628//317 622//317
f 578//270 731//270 730//270
f 674//188 736//188 718//188
f 580//270 699//270 698//270
f 554//3 557//3 388//3
f 478//252 684//252 680//252
f 359//520 598//520 602//520
f 968//521 967//521 602//521
f 413//4 415//4 601//4
f 628//351 734//351 706//351
f 769//188 621//188 626//188
f 783//4 771//4 626//4
f 453//3 624//3 623//3
f 624//188 453//188 704//188
f 704//3 706//3 734//3
f 456//4 457//4 651//4
f 728//3 729//3 726//3
f 581//188 700//188 699//188
f 782//3 638//3 650//3
f 637//188 638//188 782//188
f 735//5 670//5 448//5
f 717//3 718//3 736//3
f 735//5 448//5 717//5
f 361//188 668//188 672//188
f 821//529 820//529 672//529
f 448//3 670//3 671//3
f 697//4 700//4 701//4
f 696//4 699//4 700//4
f 698//4 699//4 696//4
f 688//4 698//4 695//4
f 692//4 693//4 694//4
f 680//4 679//4 693//4
f 729//3 730//3 727//3
f 677//4 690//4 689//4
f 690//4 691//4 684//4
f 683//4 701//4 675//4
f 691//4 679//4 680//4
f 685//303 694//303 681//303
f 723//3 724//3 715//3
f 708//3 728//3 725//3
f 707//304 651//304 457//304
f 457//531 676//531 675//531
f 573//306 693//306 679//306
f 727//3 730//3 731//3
f 363//253 678//253 689//253
f 649//532 651//532 707//532
f 603//309 705//309 681//309
f 569//259 690//259 677//259
f 477//310 689//310 684//310
f 551//311 679//311 691//311
f 652//188 707//188 675//188
f 570//312 691//312 690//312
f 566//188 688//188 702//188
f 574//314 552//314 681//314
f 601//533 415//533 682//533
f 682//4 681//4 705//4
f 582//256 701//256 700//256
f 678//188 458//188 626//188
f 626//304 703//304 677//304
f 703//534 626//534 621//534
f 710//3 723//3 722//3
f 716//3 731//3 718//3
f 713//3 712//3 720//3
f 719//3 720//3 721//3
f 714//3 721//3 706//3
f 724//3 712//3 713//3
f 710//535 711//535 414//535
f 414//3 602//3 733//3
f 709//188 454//188 638//188
f 638//536 732//536 708//536
f 549//309 710//309 733//309
f 568//312 721//312 720//312
f 572//250 724//250 723//250
f 550//306 712//306 724//306
f 571//314 723//314 710//314
f 640//537 732//537 638//537
f 733//538 602//538 598//538
f 565//268 718//268 731//268
f 567//311 720//311 712//311
f 781//296 782//296 624//296
f 624//3 782//3 770//3
f 639//4 651//4 771//4
f 649//188 769//188 771//188
f 436//25 818//25 817//25
f 437//25 819//25 818//25
f 438//25 820//25 821//25
f 446//25 822//25 819//25
f 439//25 821//25 823//25
f 441//25 823//25 824//25
f 447//25 824//25 820//25
f 435//25 817//25 822//25
f 439//3 829//3 828//3
f 447//4 832//4 831//4
f 437//3 827//3 830//3
f 436//188 826//188 827//188
f 443//25 834//25 835//25
f 445//25 836//25 833//25
f 444//25 835//25 836//25
f 839//25 840//25 837//25
f 444//4 839//4 838//4
f 442//3 837//3 840//3
f 443//188 838//188 837//188
f 403//584 965//584 966//584
f 406//585 405//585 967//585
f 408//586 406//586 968//586
f 416//587 408//587 969//587
f 417//588 971//588 965//588
f 404//589 966//589 972//589
f 416//590 970//590 967//590
f 417//591 418//591 972//591
f 408//462 416//462 978//462
f 405//463 406//463 976//463
f 405//464 975//464 978//464
f 403//465 973//465 979//465
f 408//466 977//466 976//466
f 403//466 404//466 974//466
f 409//467 981//467 982//467
f 410//467 982//467 983//467
f 409//467 412//467 984//467
f 411//467 983//467 984//467
f 987//467 988//467 985//467
f 410//468 986//468 985//468
f 411//3 987//3 986//3
usemtl Material.007
f 562//212 399//212 563//212
f 395//213 562//213 561//213
f 400//214 561//214 564//214
f 564//260 396//260 402//260
f 561//261 398//261 396//261
f 398//262 563//262 401//262
f 562//500 397//500 399//500
f 395//213 397//213 562//213
f 400//501 395//501 561//501
f 564//511 561//511 396//511
f 561//512 562//512 398//512
f 398//513 562//513 563//513
usemtl Material.008
f 832//25 829//25 831//25
f 825//25 827//25 826//25
f 873//25 879//25 877//25
f 880//25 876//25 878//25
f 977//460 975//460 976//460
f 980//461 973//461 974//461
f 832//25 828//25 829//25
f 825//25 830//25 827//25
f 873//25 874//25 879//25
f 880//25 875//25 876//25
f 977//592 978//592 975//592
f 980//593 979//593 973//593
usemtl Material.009
f 883//25 886//25 884//25
f 887//25 882//25 881//25
f 883//25 885//25 886//25
f 887//25 888//25 882//25
s 1
usemtl Material.017
f 166//141 174//142 182//143
f 294//141 302//142 310//143
f 182//143 163//170 162//167
f 162//167 161//166 160//165
f 160//165 159//162 158//161
f 158//161 157//158 156//156
f 156//156 155//154 154//150
f 154//150 153//149 151//145
f 151//145 152//109 164//108
f 164//108 165//148 166//141
f 166//141 167//153 168//152
f 168//152 169//157 170//160
f 170//160 171//159 172//164
f 172//164 173//163 174//142
f 174//142 175//169 176//168
f 176//168 177//144 178//147
f 178//147 179//146 180//151
f 180//151 181//155 182//143
f 182//143 162//167 160//165
f 160//165 158//161 156//156
f 156//156 154//150 151//145
f 151//145 164//108 166//141
f 166//141 168//152 170//160
f 170//160 172//164 174//142
f 174//142 176//168 178//147
f 178//147 180//151 182//143
f 182//143 160//165 156//156
f 156//156 151//145 166//141
f 166//141 170//160 174//142
f 174//142 178//147 182//143
f 182//143 156//156 166//141
f 310//143 291//170 290//167
f 290//167 289//166 288//165
f 288//165 287//162 286//161
f 286//161 285//158 284//156
f 284//156 283//154 282//150
f 282//150 281//149 279//145
f 279//145 280//109 292//108
f 292//108 293//148 294//141
f 294//141 295//153 296//152
f 296//152 297//157 298//160
f 298//160 299//159 300//164
f 300//164 301//172 302//142
f 302//142 303//169 304//168
f 304//168 305//144 306//147
f 306//147 307//146 308//151
f 308//151 309//155 310//143
f 310//143 290//167 288//165
f 288//165 286//161 284//156
f 284//156 282//150 279//145
f 279//145 292//108 294//141
f 294//141 296//152 298//160
f 298//160 300//164 302//142
f 302//142 304//168 306//147
f 306//147 308//151 310//143
f 310//143 288//165 284//156
f 284//156 279//145 294//141
f 294//141 298//160 302//142
f 302//142 306//147 310//143
f 310//143 284//156 294//141
