# Blender 5.1.0
# www.blender.org
mtllib race_road.mtl
o Cube
v -1.000000 0.066361 -1.000000
v -1.000000 0.066363 1.000000
v -2.899114 0.066367 -1.116400
v -3.086241 0.066367 0.874827
v -1.166667 0.066363 1.000000
v -1.333333 0.066363 1.000000
v -1.500000 0.066362 1.000000
v -1.666667 0.066362 1.000000
v -1.854701 0.066362 0.999772
v -2.060504 0.066362 0.998168
v -2.231463 0.066363 0.977688
v -2.402428 0.066364 0.957176
v -2.573383 0.066364 0.936634
v -2.744336 0.066365 0.916063
v -2.915294 0.066366 0.895459
v -2.739174 0.066366 -1.096771
v -2.579229 0.066366 -1.077111
v -2.419294 0.066365 -1.057421
v -2.259362 0.066364 -1.037701
v -2.099424 0.066363 -1.017949
v -1.939496 0.066362 -0.998168
v -1.811965 0.066362 -0.999772
v -1.666667 0.066362 -1.000000
v -1.500000 0.066362 -1.000000
v -1.333333 0.066361 -1.000000
v -1.166667 0.066361 -1.000000
v 0.987370 0.066354 -1.002026
v 1.012616 0.066370 0.997815
v -1.000000 0.066361 -1.000000
v -1.000000 0.066363 1.000000
v 0.838744 0.066369 0.999299
v 0.668386 0.066368 0.999849
v 0.500338 0.066368 0.999983
v 0.333359 0.066367 0.999999
v 0.166667 0.066366 1.000000
v -0.000000 0.066366 1.000000
v -0.166667 0.066365 1.000000
v -0.333333 0.066365 1.000000
v -0.500000 0.066364 1.000000
v -0.666667 0.066364 1.000000
v -0.833333 0.066364 1.000000
v -0.833333 0.066360 -1.000000
v -0.666667 0.066360 -1.000000
v -0.500000 0.066360 -1.000000
v -0.333333 0.066359 -1.000000
v -0.166666 0.066359 -1.000000
v 0.000000 0.066358 -1.000000
v 0.166667 0.066358 -1.000000
v 0.333308 0.066357 -1.000001
v 0.499662 0.066357 -1.000017
v 0.664947 0.066356 -1.000148
v 0.827921 0.066355 -1.000672
v 2.692872 0.066348 -1.217376
v 3.261250 0.066376 0.700160
v 0.987370 0.066354 -1.002026
v 1.012616 0.066370 0.997815
v 3.067662 0.066375 0.753889
v 2.875338 0.066375 0.800660
v 2.684259 0.066374 0.841078
v 2.494427 0.066374 0.875480
v 2.305587 0.066374 0.905028
v 2.117682 0.066373 0.929980
v 1.930645 0.066373 0.950440
v 1.744210 0.066372 0.966975
v 1.558189 0.066372 0.979761
v 1.373137 0.066371 0.988862
v 1.190818 0.066370 0.994632
v 1.142447 0.066354 -1.004783
v 1.293292 0.066353 -1.009543
v 1.441167 0.066353 -1.016813
v 1.587686 0.066352 -1.026891
v 1.733272 0.066351 -1.039798
v 1.877587 0.066351 -1.055556
v 2.020102 0.066350 -1.074492
v 2.160576 0.066350 -1.096459
v 2.298737 0.066350 -1.121414
v 2.433757 0.066349 -1.149983
v 2.565298 0.066349 -1.181991
v 3.845274 0.066349 -1.969179
v 5.396002 0.066388 -0.706150
v 2.692872 0.066348 -1.217376
v 3.261250 0.066376 0.700160
v 5.260993 0.066385 -0.546908
v 5.115534 0.066383 -0.390130
v 4.959363 0.066381 -0.237726
v 4.792744 0.066380 -0.091711
v 4.616526 0.066379 0.045963
v 4.432117 0.066378 0.173606
v 4.241367 0.066378 0.289982
v 4.046398 0.066377 0.394418
v 3.849406 0.066377 0.486851
v 3.652291 0.066376 0.567846
v 3.456136 0.066376 0.638524
v 2.815773 0.066348 -1.256188
v 2.933189 0.066348 -1.298404
v 3.044367 0.066347 -1.343972
v 3.149108 0.066347 -1.393002
v 3.247929 0.066347 -1.445841
v 3.341673 0.066346 -1.502977
v 3.431259 0.066346 -1.564982
v 3.517602 0.066346 -1.632493
v 3.601536 0.066346 -1.706162
v 3.683769 0.066347 -1.786572
v 3.764865 0.066348 -1.874161
v 4.920362 0.066461 -3.583495
v 6.543392 0.066501 -2.414832
v 3.845274 0.066349 -1.969179
v 5.396002 0.066388 -0.706150
v 6.457804 0.066485 -2.293718
v 6.373541 0.066470 -2.170131
v 6.290141 0.066457 -2.042742
v 6.206375 0.066445 -1.911016
v 6.121278 0.066434 -1.774909
v 6.033913 0.066425 -1.634067
v 5.943240 0.066416 -1.488362
v 5.847967 0.066409 -1.337914
v 5.746141 0.066402 -1.183091
v 5.637585 0.066396 -1.025532
v 5.521223 0.066392 -0.866165
v 3.925369 0.066351 -2.071672
v 4.005500 0.066354 -2.181515
v 4.086026 0.066357 -2.298447
v 4.167349 0.066362 -2.422130
v 4.250360 0.066368 -2.553330
v 4.335783 0.066376 -2.690644
v 4.424129 0.066385 -2.833062
v 4.515759 0.066396 -2.979576
v 4.610904 0.066409 -3.129095
v 4.710126 0.066424 -3.280560
v 4.813601 0.066441 -3.432399
v 6.270159 0.066759 -5.174804
v 7.784210 0.066783 -3.868032
v 4.920362 0.066461 -3.583495
v 6.543392 0.066501 -2.414832
v 7.665553 0.066754 -3.732940
v 7.548390 0.066726 -3.602141
v 7.434083 0.066699 -3.476476
v 7.322799 0.066673 -3.354147
v 7.214133 0.066647 -3.234027
v 7.108270 0.066622 -3.115856
v 7.006925 0.066599 -2.999425
v 6.908439 0.066577 -2.883427
v 6.812758 0.066556 -2.767570
v 6.719916 0.066536 -2.651463
v 6.630659 0.066517 -2.533941
v 5.030123 0.066481 -3.733226
v 5.142566 0.066504 -3.881083
v 5.257801 0.066528 -4.025388
v 5.374316 0.066553 -4.166576
v 5.491557 0.066579 -4.304669
v 5.609079 0.066605 -4.439650
v 5.725597 0.066632 -4.569789
v 5.840539 0.066658 -4.696870
v 5.953560 0.066685 -4.821115
v 6.063560 0.066711 -4.942021
v 6.168810 0.066735 -5.059500
v 7.031723 0.066910 -6.497169
v 8.967817 0.067020 -5.995633
v 6.270159 0.066759 -5.174804
v 7.784210 0.066783 -3.868032
v 8.908735 0.067013 -5.792133
v 8.843369 0.067004 -5.590036
v 8.765375 0.066992 -5.391747
v 8.679745 0.066977 -5.197151
v 8.586943 0.066960 -5.006131
v 8.483679 0.066939 -4.823205
v 8.375540 0.066917 -4.645456
v 8.262251 0.066893 -4.473750
v 8.144264 0.066866 -4.312321
v 8.024719 0.066839 -4.156966
v 7.904083 0.066811 -4.007711
v 6.367528 0.066782 -5.287946
v 6.456337 0.066802 -5.398004
v 6.540081 0.066821 -5.506723
v 6.619189 0.066838 -5.614079
v 6.689216 0.066853 -5.720776
v 6.754218 0.066866 -5.827678
v 6.815515 0.066878 -5.934595
v 6.867743 0.066887 -6.043703
v 6.916324 0.066895 -6.153986
v 6.960942 0.066902 -6.265662
v 6.997352 0.066906 -6.380872
v 7.050331 0.066850 -8.044227
v 9.015640 0.066936 -8.415118
v 7.031723 0.066910 -6.497169
v 8.967817 0.067020 -5.995633
v 9.051739 0.066951 -8.221797
v 9.077122 0.066964 -8.025176
v 9.101516 0.066978 -7.828427
v 9.114185 0.066988 -7.628469
v 9.125488 0.066999 -7.428391
v 9.124547 0.067007 -7.225554
v 9.121013 0.067015 -7.022496
v 9.105498 0.067020 -6.817552
v 9.085181 0.067023 -6.612391
v 9.054137 0.067024 -6.406493
v 9.015141 0.067023 -6.200872
v 7.058876 0.066912 -6.616836
v 7.081885 0.066912 -6.738493
v 7.100839 0.066911 -6.862158
v 7.112825 0.066909 -6.988592
v 7.123198 0.066905 -7.115974
v 7.124653 0.066900 -7.246133
v 7.126158 0.066895 -7.376626
v 7.117741 0.066887 -7.509276
v 7.110219 0.066880 -7.642042
v 7.092707 0.066870 -7.775985
v 7.076185 0.066861 -7.910050
v 6.472293 0.066694 -9.588655
v 8.198731 0.066720 -10.598314
v 7.050331 0.066850 -8.044227
v 9.015640 0.066936 -8.415118
v 8.293269 0.066739 -10.427591
v 8.387095 0.066758 -10.256477
v 8.470654 0.066777 -10.080322
v 8.553415 0.066796 -9.903788
v 8.628254 0.066815 -9.723927
v 8.699808 0.066834 -9.542707
v 8.765681 0.066852 -9.359375
v 8.825982 0.066870 -9.174001
v 8.882533 0.066887 -8.987342
v 8.931514 0.066904 -8.798086
v 8.978220 0.066921 -8.608130
v 7.024896 0.066839 -8.178568
v 6.991462 0.066827 -8.312083
v 6.957294 0.066815 -8.445625
v 6.916926 0.066803 -8.577757
v 6.874243 0.066790 -8.709407
v 6.827463 0.066776 -8.839625
v 6.776455 0.066763 -8.968386
v 6.723661 0.066749 -9.096320
v 6.664488 0.066735 -9.221390
v 6.605966 0.066721 -9.346765
v 6.538774 0.066708 -9.467515
v 5.403182 0.066544 -10.860897
v 6.708735 0.066515 -12.375999
v 6.472293 0.066694 -9.588655
v 8.198731 0.066720 -10.598314
v 6.851654 0.066529 -12.247752
v 6.992952 0.066544 -12.117039
v 7.131000 0.066560 -11.982186
v 7.265049 0.066576 -11.842247
v 7.397586 0.066592 -11.700768
v 7.523195 0.066610 -11.552084
v 7.648206 0.066627 -11.402893
v 7.765746 0.066645 -11.247327
v 7.881271 0.066663 -11.090105
v 7.991302 0.066682 -10.929008
v 8.096590 0.066701 -10.764591
v 6.399675 0.066680 -9.706062
v 6.325320 0.066667 -9.822433
v 6.247510 0.066653 -9.936490
v 6.165448 0.066640 -10.047725
v 6.082570 0.066627 -10.158392
v 5.992987 0.066614 -10.264271
v 5.904003 0.066602 -10.370652
v 5.808241 0.066590 -10.471951
v 5.711884 0.066578 -10.572891
v 5.611528 0.066566 -10.670779
v 5.508028 0.066555 -10.766311
v 3.921838 0.066446 -11.837871
v 4.862224 0.066395 -13.602999
v 5.403182 0.066544 -10.860897
v 6.708735 0.066515 -12.375999
v 5.019055 0.066401 -13.517988
v 5.176169 0.066409 -13.430799
v 5.333172 0.066416 -13.341891
v 5.489968 0.066425 -13.247591
v 5.646628 0.066433 -13.153062
v 5.802045 0.066443 -13.051919
v 5.957049 0.066453 -12.949237
v 6.110669 0.066464 -12.842460
v 6.262659 0.066476 -12.730917
v 6.413957 0.066488 -12.618091
v 6.561530 0.066502 -12.497268
v 5.292804 0.066534 -10.951198
v 5.182791 0.066523 -11.041947
v 5.066615 0.066514 -11.127957
v 4.949951 0.066505 -11.213737
v 4.829906 0.066496 -11.297102
v 4.706936 0.066488 -11.378378
v 4.583148 0.066480 -11.459247
v 4.454244 0.066472 -11.536663
v 4.325479 0.066465 -11.614305
v 4.192379 0.066458 -11.689490
v 4.058014 0.066452 -11.764021
v 2.148718 0.066400 -12.716320
v 3.051625 0.066351 -14.500910
v 3.921838 0.066446 -11.837871
v 4.862224 0.066395 -13.602999
v 3.196215 0.066353 -14.428994
v 3.341301 0.066355 -14.357185
v 3.487815 0.066357 -14.285269
v 3.636332 0.066360 -14.213228
v 3.784848 0.066363 -14.141182
v 3.936357 0.066366 -14.067658
v 4.087973 0.066370 -13.994080
v 4.240980 0.066374 -13.918950
v 4.395283 0.066379 -13.842344
v 4.549719 0.066383 -13.765381
v 4.705992 0.066389 -13.684230
v 3.782277 0.066441 -11.910321
v 3.642756 0.066435 -11.982849
v 3.498830 0.066431 -12.054503
v 3.354565 0.066426 -12.126112
v 3.208361 0.066422 -12.197894
v 3.060089 0.066418 -12.269839
v 2.911710 0.066414 -12.341841
v 2.760316 0.066411 -12.415286
v 2.608925 0.066408 -12.488729
v 2.456213 0.066405 -12.563691
v 2.302558 0.066403 -12.639754
v 0.292373 0.066385 -13.816494
v 1.468413 0.066341 -15.434187
v 2.148718 0.066400 -12.716320
v 3.051625 0.066351 -14.500910
v 1.589766 0.066342 -15.349951
v 1.711691 0.066342 -15.265977
v 1.836574 0.066342 -15.183987
v 1.964126 0.066343 -15.103788
v 2.092313 0.066343 -15.023897
v 2.224941 0.066344 -14.946941
v 2.357481 0.066344 -14.869832
v 2.493439 0.066346 -14.794700
v 2.630593 0.066346 -14.720225
v 2.769011 0.066348 -14.646269
v 2.910331 0.066349 -14.573616
v 1.993594 0.066398 -12.796091
v 1.838499 0.066396 -12.875916
v 1.682918 0.066395 -12.959001
v 1.527153 0.066393 -13.043617
v 1.371441 0.066391 -13.129796
v 1.215799 0.066390 -13.220201
v 1.060249 0.066389 -13.310759
v 0.905442 0.066388 -13.406971
v 0.750883 0.066387 -13.504321
v 0.597211 0.066387 -13.605274
v 0.444550 0.066386 -13.710292
v -1.354231 0.066382 -15.439748
v 0.274011 0.066342 -16.601139
v 0.292373 0.066385 -13.816494
v 1.468413 0.066341 -15.434187
v 0.351539 0.066342 -16.493050
v 0.437163 0.066342 -16.388483
v 0.522015 0.066342 -16.283291
v 0.616226 0.066341 -16.182869
v 0.709860 0.066341 -16.081898
v 0.809959 0.066341 -15.984571
v 0.911702 0.066341 -15.888010
v 1.017176 0.066341 -15.793674
v 1.126359 0.066341 -15.701560
v 1.236753 0.066341 -15.610101
v 1.352720 0.066341 -15.522323
v 0.142607 0.066385 -13.929957
v -0.006889 0.066384 -14.043781
v -0.153393 0.066384 -14.164603
v -0.298817 0.066384 -14.287633
v -0.441664 0.066383 -14.415462
v -0.581806 0.066383 -14.548260
v -0.720165 0.066383 -14.683676
v -0.853695 0.066383 -14.826649
v -0.986582 0.066383 -14.970228
v -1.112069 0.066382 -15.123619
v -1.236789 0.066382 -15.277642
v -2.291996 0.066380 -17.689936
v -0.317237 0.066344 -18.006683
v -1.354231 0.066382 -15.439748
v 0.274011 0.066342 -16.601139
v -0.292673 0.066344 -17.881554
v -0.267013 0.066344 -17.756971
v -0.233188 0.066344 -17.635094
v -0.197449 0.066343 -17.513874
v -0.154328 0.066343 -17.394968
v -0.108327 0.066343 -17.276894
v -0.056029 0.066343 -17.160748
v 0.000296 0.066343 -17.045738
v 0.061486 0.066342 -16.932240
v 0.128013 0.066342 -16.820389
v 0.197651 0.066342 -16.709547
v -1.469208 0.066382 -15.604294
v -1.577188 0.066382 -15.775262
v -1.680744 0.066382 -15.950082
v -1.777619 0.066381 -16.129759
v -1.867975 0.066381 -16.314075
v -1.952028 0.066381 -16.501802
v -2.027514 0.066381 -16.694130
v -2.097202 0.066381 -16.888622
v -2.156584 0.066381 -17.086870
v -2.210829 0.066380 -17.286249
v -2.253553 0.066380 -17.487915
v -2.223706 0.066378 -20.007717
v -0.252830 0.066346 -19.667645
v -2.291996 0.066380 -17.689936
v -0.317237 0.066344 -18.006683
v -0.277374 0.066346 -19.518272
v -0.300586 0.066346 -19.369932
v -0.318593 0.066345 -19.225193
v -0.336108 0.066345 -19.080956
v -0.346412 0.066345 -18.940571
v -0.357310 0.066345 -18.800268
v -0.359008 0.066345 -18.664106
v -0.361637 0.066345 -18.527960
v -0.354930 0.066344 -18.395620
v -0.348560 0.066344 -18.263535
v -0.333079 0.066344 -18.134890
v -2.318322 0.066380 -17.892378
v -2.341423 0.066380 -18.094719
v -2.352423 0.066380 -18.295507
v -2.361383 0.066379 -18.496077
v -2.358797 0.066379 -18.693224
v -2.355280 0.066379 -18.890360
v -2.341373 0.066379 -19.082455
v -2.326725 0.066379 -19.274467
v -2.304625 0.066379 -19.461163
v -2.281276 0.066378 -19.647179
v -2.253219 0.066378 -19.828167
v -1.891489 0.066376 -21.877350
v 0.103486 0.066348 -21.735661
v -2.223706 0.066378 -20.007717
v -0.252830 0.066346 -19.667645
v 0.086395 0.066348 -21.534679
v 0.061605 0.066348 -21.343122
v 0.034325 0.066347 -21.154284
v 0.003058 0.066347 -20.973934
v -0.029558 0.066347 -20.796371
v -0.063274 0.066347 -20.625278
v -0.097454 0.066347 -20.457132
v -0.130935 0.066347 -20.293396
v -0.163919 0.066346 -20.132753
v -0.195307 0.066346 -19.974966
v -0.224946 0.066346 -19.820415
v -2.191833 0.066378 -20.182850
v -2.158737 0.066378 -20.355680
v -2.125115 0.066378 -20.524817
v -2.091076 0.066377 -20.690695
v -2.057777 0.066377 -20.853535
v -2.025522 0.066377 -21.012035
v -1.994734 0.066377 -21.167967
v -1.967082 0.066377 -21.318241
v -1.941196 0.066377 -21.466246
v -1.920868 0.066377 -21.607325
v -1.902392 0.066376 -21.746170
v -2.186652 0.066374 -23.108555
v -0.572970 0.066350 -24.290092
v -1.891489 0.066376 -21.877350
v 0.103486 0.066348 -21.735661
v -0.445508 0.066350 -24.099766
v -0.325334 0.066350 -23.903790
v -0.221068 0.066349 -23.694937
v -0.127375 0.066349 -23.481295
v -0.050956 0.066349 -23.260239
v 0.011696 0.066349 -23.037054
v 0.058922 0.066349 -22.811962
v 0.090883 0.066349 -22.588902
v 0.111349 0.066348 -22.367432
v 0.117485 0.066348 -22.152050
v 0.116217 0.066348 -21.939520
v -1.882680 0.066376 -22.005938
v -1.882355 0.066376 -22.126732
v -1.884853 0.066376 -22.244232
v -1.895351 0.066375 -22.354652
v -1.910063 0.066375 -22.461109
v -1.931135 0.066375 -22.562281
v -1.958562 0.066375 -22.659374
v -1.990297 0.066375 -22.753614
v -2.031146 0.066375 -22.844280
v -2.074609 0.066374 -22.934235
v -2.129743 0.066374 -23.021175
v -3.384432 0.066372 -24.015875
v -2.504445 0.066352 -25.811876
v -2.186652 0.066374 -23.108555
v -0.572970 0.066350 -24.290092
v -2.332473 0.066352 -25.723028
v -2.161178 0.066352 -25.630474
v -1.990617 0.066351 -25.534557
v -1.822013 0.066351 -25.426805
v -1.654019 0.066351 -25.318119
v -1.488964 0.066351 -25.196430
v -1.325533 0.066351 -25.069870
v -1.165423 0.066351 -24.933895
v -1.009315 0.066351 -24.787098
v -0.857095 0.066350 -24.633324
v -0.712514 0.066350 -24.464664
v -2.256204 0.066374 -23.193043
v -2.327880 0.066374 -23.278042
v -2.410639 0.066373 -23.360111
v -2.497225 0.066373 -23.441814
v -2.591041 0.066373 -23.521164
v -2.691463 0.066373 -23.598309
v -2.794096 0.066373 -23.674883
v -2.906530 0.066373 -23.746382
v -3.018361 0.066373 -23.818823
v -3.138580 0.066372 -23.885571
v -3.260576 0.066372 -23.951412
v -5.049771 0.066371 -24.578901
v -4.617836 0.066353 -26.531702
v -3.384432 0.066372 -24.015875
v -2.504445 0.066352 -25.811876
v -4.438052 0.066353 -26.492609
v -4.259722 0.066353 -26.446367
v -4.081726 0.066353 -26.398537
v -3.903812 0.066353 -26.350407
v -3.727355 0.066353 -26.293642
v -3.551027 0.066352 -26.236374
v -3.374992 0.066353 -26.177296
v -3.200036 0.066352 -26.110086
v -3.025230 0.066352 -26.042475
v -2.851007 0.066352 -25.970222
v -2.677609 0.066352 -25.891308
v -3.514520 0.066372 -24.074833
v -3.644368 0.066372 -24.134310
v -3.777983 0.066372 -24.189541
v -3.914164 0.066372 -24.241926
v -4.050189 0.066372 -24.294714
v -4.190236 0.066371 -24.341272
v -4.330965 0.066371 -24.386902
v -4.471652 0.066371 -24.432711
v -4.615645 0.066371 -24.471121
v -4.759554 0.066371 -24.509832
v -4.903742 0.066371 -24.547581
v -6.811151 0.066372 -24.774458
v -6.823287 0.066359 -26.774422
v -5.049771 0.066371 -24.578901
v -4.617836 0.066353 -26.531702
v -6.635737 0.066358 -26.774187
v -6.448711 0.066357 -26.770634
v -6.262860 0.066357 -26.760134
v -6.077030 0.066356 -26.749254
v -5.892110 0.066356 -26.733894
v -5.708226 0.066355 -26.713472
v -5.524379 0.066355 -26.692715
v -5.341731 0.066354 -26.666594
v -5.159889 0.066354 -26.636826
v -4.978097 0.066354 -26.606749
v -4.797684 0.066354 -26.570507
v -5.195735 0.066371 -24.610518
v -5.341993 0.066371 -24.640133
v -5.489125 0.066371 -24.664110
v -5.636205 0.066371 -24.688391
v -5.783407 0.066371 -24.709560
v -5.930827 0.066371 -24.725899
v -6.078209 0.066371 -24.742571
v -6.225356 0.066371 -24.754763
v -6.372305 0.066371 -24.763130
v -6.519233 0.066372 -24.771877
v -6.665365 0.066372 -24.774406
v -8.501888 0.066390 -24.534040
v -9.077935 0.066386 -26.449287
v -6.811151 0.066372 -24.774458
v -6.823287 0.066359 -26.774422
v -8.892406 0.066383 -26.499277
v -8.706711 0.066379 -26.548639
v -8.520024 0.066376 -26.592810
v -8.331950 0.066373 -26.629505
v -8.143762 0.066371 -26.665585
v -7.955039 0.066368 -26.693701
v -7.766007 0.066366 -26.717352
v -7.576912 0.066364 -26.740438
v -7.388172 0.066363 -26.753334
v -7.199442 0.066362 -26.764612
v -7.010834 0.066360 -26.774220
v -6.956939 0.066373 -24.774946
v -7.101137 0.066374 -24.767029
v -7.245153 0.066375 -24.758453
v -7.388955 0.066376 -24.749290
v -7.530642 0.066377 -24.731249
v -7.672399 0.066378 -24.713772
v -7.813246 0.066380 -24.693083
v -7.952322 0.066381 -24.665865
v -8.091517 0.066383 -24.639254
v -8.228977 0.066385 -24.606535
v -8.365346 0.066388 -24.569975
v -10.065243 0.066446 -23.803005
v -11.129278 0.066463 -25.496471
v -8.501888 0.066390 -24.534040
v -9.077935 0.066386 -26.449287
v -10.971280 0.066454 -25.592590
v -10.810771 0.066446 -25.686363
v -10.650070 0.066438 -25.779818
v -10.484406 0.066431 -25.867876
v -10.316051 0.066424 -25.952890
v -10.147475 0.066418 -26.037476
v -9.973776 0.066412 -26.114719
v -9.798223 0.066406 -26.189161
v -9.622448 0.066400 -26.263071
v -9.441598 0.066395 -26.326818
v -9.260142 0.066391 -26.389187
v -8.635920 0.066393 -24.489096
v -8.769676 0.066396 -24.443068
v -8.903419 0.066400 -24.396793
v -9.034578 0.066404 -24.340691
v -9.165955 0.066408 -24.285122
v -9.296879 0.066412 -24.227369
v -9.425946 0.066417 -24.161880
v -9.555223 0.066422 -24.096825
v -9.683875 0.066428 -24.028687
v -9.811077 0.066434 -23.954136
v -9.938458 0.066440 -23.879908
v -11.526411 0.066551 -22.690298
v -12.848664 0.066588 -24.190847
v -10.065243 0.066446 -23.803005
v -11.129278 0.066463 -25.496471
v -12.714932 0.066576 -24.307590
v -12.581120 0.066564 -24.424246
v -12.443548 0.066553 -24.537815
v -12.304138 0.066542 -24.649845
v -12.164631 0.066531 -24.761761
v -12.024053 0.066520 -24.872784
v -11.878373 0.066510 -24.979694
v -11.732574 0.066500 -25.086449
v -11.586658 0.066490 -25.193045
v -11.435068 0.066481 -25.294992
v -11.282248 0.066471 -25.395842
v -10.190527 0.066454 -23.720089
v -10.315957 0.066461 -23.637407
v -10.441100 0.066468 -23.553625
v -10.564117 0.066477 -23.463270
v -10.687250 0.066485 -23.373075
v -10.810496 0.066493 -23.283041
v -10.931318 0.066502 -23.187296
v -11.051735 0.066512 -23.090523
v -11.172241 0.066521 -22.993866
v -11.291752 0.066530 -22.895350
v -11.409044 0.066541 -22.792778
v -12.860399 0.066681 -21.363337
v -14.348942 0.066737 -22.699091
v -11.526411 0.066551 -22.690298
v -12.848664 0.066588 -24.190847
v -14.230948 0.066724 -22.829605
v -14.112900 0.066711 -22.960049
v -13.992468 0.066699 -23.088396
v -13.869328 0.066686 -23.214357
v -13.746131 0.066673 -23.340244
v -13.622865 0.066661 -23.466078
v -13.497955 0.066648 -23.590473
v -13.369652 0.066636 -23.711885
v -13.241273 0.066624 -23.833231
v -13.112830 0.066612 -23.954498
v -12.982322 0.066599 -24.074013
v -11.643859 0.066561 -22.587906
v -11.759092 0.066571 -22.482292
v -11.872906 0.066582 -22.374613
v -11.986791 0.066593 -22.267000
v -12.100739 0.066604 -22.159464
v -12.211916 0.066614 -22.048607
v -12.321808 0.066626 -21.936214
v -12.431759 0.066637 -21.823893
v -12.541780 0.066648 -21.711622
v -12.649378 0.066659 -21.596926
v -12.754853 0.066670 -21.480108
v -14.041467 0.066813 -19.892891
v -15.670848 0.066886 -21.052683
v -12.860399 0.066681 -21.363337
v -14.348942 0.066737 -22.699091
v -15.569151 0.066874 -21.196758
v -15.462727 0.066862 -21.337112
v -15.356227 0.066850 -21.477423
v -15.249657 0.066837 -21.617674
v -15.143016 0.066825 -21.757870
v -15.033886 0.066813 -21.895987
v -14.921479 0.066800 -22.031368
v -14.809014 0.066787 -22.166683
v -14.696479 0.066775 -22.301950
v -14.583875 0.066762 -22.437164
v -14.466869 0.066749 -22.568523
v -12.966007 0.066693 -21.246628
v -13.070818 0.066704 -21.129242
v -13.171335 0.066715 -21.008142
v -13.271916 0.066726 -20.887102
v -13.372560 0.066737 -20.766123
v -13.473277 0.066749 -20.645185
v -13.570720 0.066759 -20.521793
v -13.665711 0.066770 -20.396561
v -13.760776 0.066781 -20.271381
v -13.855913 0.066792 -20.146252
v -13.951118 0.066803 -20.021185
v -15.034964 0.066926 -18.300625
v -16.793140 0.067015 -19.253944
v -14.041467 0.066813 -19.892891
v -15.670848 0.066886 -21.052683
v -16.708916 0.067006 -19.409981
v -16.624596 0.066996 -19.565952
v -16.535593 0.066986 -19.718929
v -16.443190 0.066975 -19.869743
v -16.350700 0.066965 -20.020498
v -16.258123 0.066954 -20.171200
v -16.165453 0.066943 -20.321848
v -16.070601 0.066932 -20.470930
v -15.970782 0.066921 -20.616446
v -15.870882 0.066909 -20.761915
v -15.770905 0.066897 -20.907326
v -14.130239 0.066823 -19.763556
v -14.219087 0.066833 -19.634275
v -14.308017 0.066844 -19.505045
v -14.397024 0.066854 -19.375875
v -14.480924 0.066864 -19.243719
v -14.562684 0.066873 -19.110310
v -14.644528 0.066882 -18.976957
v -14.726460 0.066892 -18.843662
v -14.808488 0.066901 -18.710415
v -14.887110 0.066910 -18.575428
v -14.960985 0.066918 -18.438004
v -15.815492 0.067008 -16.606634
v -17.684420 0.067109 -17.318748
v -15.034964 0.066926 -18.300625
v -16.793140 0.067015 -19.253944
v -17.620518 0.067103 -17.485016
v -17.556498 0.067097 -17.651237
v -17.492350 0.067091 -17.817417
v -17.419386 0.067083 -17.979504
v -17.344948 0.067076 -18.140909
v -17.270397 0.067068 -18.302269
v -17.195738 0.067060 -18.463573
v -17.120970 0.067052 -18.624826
v -17.045197 0.067044 -18.785538
v -16.961279 0.067034 -18.941727
v -16.877260 0.067025 -19.097860
v -15.109037 0.066934 -18.163307
v -15.183210 0.066943 -18.026047
v -15.257483 0.066951 -17.888832
v -15.323468 0.066958 -17.747906
v -15.388631 0.066965 -17.606623
v -15.453906 0.066972 -17.465395
v -15.519295 0.066978 -17.324213
v -15.584795 0.066985 -17.183086
v -15.649008 0.066992 -17.041471
v -15.704382 0.066997 -16.896471
v -15.759875 0.067002 -16.751528
v -16.354221 0.067047 -14.830392
v -18.304836 0.067156 -15.272093
v -15.815492 0.067008 -16.606634
v -17.684420 0.067109 -17.318748
v -18.266060 0.067155 -15.446621
v -18.227144 0.067153 -15.621106
v -18.185446 0.067151 -15.794802
v -18.133905 0.067147 -15.965637
v -18.082233 0.067143 -16.136431
v -18.030424 0.067139 -16.307188
v -17.978487 0.067135 -16.477909
v -17.926416 0.067131 -16.648581
v -17.874210 0.067128 -16.819216
v -17.811857 0.067122 -16.986063
v -17.748203 0.067115 -17.152424
v -15.871235 0.067013 -16.461779
v -15.927095 0.067018 -16.316978
v -15.981883 0.067023 -16.171841
v -16.026594 0.067026 -16.023535
v -16.071436 0.067030 -15.875280
v -16.116411 0.067033 -15.727060
v -16.161518 0.067036 -15.578883
v -16.206758 0.067040 -15.430748
v -16.252134 0.067043 -15.282646
v -16.287804 0.067045 -15.132272
v -16.320938 0.067046 -14.981318
v -16.634449 0.067043 -13.004633
v -18.629202 0.067153 -13.149407
v -16.354221 0.067047 -14.830392
v -18.304836 0.067156 -15.272093
v -18.621082 0.067156 -13.329190
v -18.600565 0.067157 -13.507301
v -18.576931 0.067158 -13.685011
v -18.553141 0.067159 -13.862699
v -18.529194 0.067160 -14.040360
v -18.505089 0.067161 -14.218012
v -18.480827 0.067161 -14.395636
v -18.456408 0.067162 -14.573225
v -18.420305 0.067161 -14.748326
v -18.381962 0.067160 -14.922947
v -18.343473 0.067158 -15.097529
v -16.387650 0.067048 -14.679495
v -16.421215 0.067050 -14.528639
v -16.454927 0.067051 -14.377804
v -16.486658 0.067052 -14.226691
v -16.506865 0.067051 -14.073962
v -16.527229 0.067050 -13.921250
v -16.547749 0.067049 -13.768559
v -16.568426 0.067049 -13.615899
v -16.589264 0.067048 -13.463253
v -16.610258 0.067047 -13.310621
v -16.628433 0.067046 -13.157887
v -16.620413 0.066998 -11.172028
v -18.611868 0.067101 -10.987352
v -16.634449 0.067043 -13.004633
v -18.629202 0.067153 -13.149407
v -18.623035 0.067107 -11.167867
v -18.634001 0.067112 -11.348396
v -18.644764 0.067118 -11.528934
v -18.655329 0.067123 -11.709489
v -18.665691 0.067128 -11.890049
v -18.674191 0.067133 -12.070537
v -18.667133 0.067137 -12.250360
v -18.659901 0.067140 -12.430182
v -18.652491 0.067143 -12.609997
v -18.644903 0.067146 -12.789811
v -18.637140 0.067149 -12.969617
v -16.640638 0.067040 -12.851396
v -16.647005 0.067037 -12.698165
v -16.653549 0.067034 -12.544942
v -16.660271 0.067032 -12.391729
v -16.667168 0.067029 -12.238516
v -16.674244 0.067026 -12.085304
v -16.666153 0.067022 -11.933030
v -16.656603 0.067017 -11.780849
v -16.647251 0.067012 -11.628659
v -16.638105 0.067008 -11.476465
v -16.629158 0.067003 -11.324254
v -16.292400 0.066925 -9.389194
v -18.217239 0.067014 -8.846054
v -16.620413 0.066998 -11.172028
v -18.611868 0.067101 -10.987352
v -18.271118 0.067023 -9.020671
v -18.324749 0.067032 -9.195352
v -18.363081 0.067039 -9.373089
v -18.395287 0.067047 -9.552052
v -18.427267 0.067054 -9.731061
v -18.459021 0.067061 -9.910117
v -18.490549 0.067068 -10.089215
v -18.521849 0.067076 -10.268349
v -18.552921 0.067083 -10.447521
v -18.583765 0.067090 -10.626724
v -18.600500 0.067096 -10.806862
v -16.611868 0.066994 -11.019786
v -16.598419 0.066989 -10.868387
v -16.571472 0.066983 -10.719303
v -16.544756 0.066976 -10.570187
v -16.518267 0.066970 -10.421038
v -16.492006 0.066964 -10.271849
v -16.465971 0.066958 -10.122619
v -16.440163 0.066952 -9.973345
v -16.414579 0.066946 -9.824019
v -16.383438 0.066939 -9.676308
v -16.337795 0.066932 -9.532784
v -15.638595 0.066833 -7.712946
v -17.420761 0.066904 -6.805267
v -16.292400 0.066925 -9.389194
v -18.217239 0.067014 -8.846054
v -17.499811 0.066914 -6.970604
v -17.578617 0.066923 -7.136071
v -17.657167 0.066933 -7.301646
v -17.735468 0.066943 -7.467334
v -17.813517 0.066952 -7.633138
v -17.888769 0.066962 -7.799969
v -17.944126 0.066971 -7.974106
v -17.999239 0.066979 -8.148330
v -18.054110 0.066988 -8.322641
v -18.108732 0.066997 -8.497037
v -18.163109 0.067006 -8.671506
v -16.247253 0.066918 -9.245530
v -16.202356 0.066910 -9.101797
v -16.157707 0.066903 -8.957982
v -16.113298 0.066896 -8.814086
v -16.069138 0.066889 -8.670106
v -16.025217 0.066881 -8.526032
v -15.962229 0.066873 -8.389927
v -15.896997 0.066865 -8.254753
v -15.832022 0.066857 -8.119475
v -15.767300 0.066849 -7.984086
v -15.702822 0.066842 -7.848573
v -14.686139 0.066736 -6.187612
v -16.255398 0.066786 -4.947680
v -15.638595 0.066833 -7.712946
v -17.420761 0.066904 -6.805267
v -16.359274 0.066796 -5.098412
v -16.462942 0.066806 -5.249314
v -16.566389 0.066816 -5.400370
v -16.669617 0.066826 -5.551582
v -16.772627 0.066836 -5.702954
v -16.875406 0.066845 -5.854469
v -16.977961 0.066855 -6.006130
v -17.080290 0.066865 -6.157938
v -17.182148 0.066875 -6.310014
v -17.261927 0.066885 -6.474964
v -17.341469 0.066894 -6.640055
v -15.574615 0.066825 -7.577194
v -15.510874 0.066818 -7.441305
v -15.447379 0.066810 -7.305290
v -15.362102 0.066801 -7.181575
v -15.276816 0.066793 -7.057849
v -15.191767 0.066785 -6.933986
v -15.106943 0.066777 -6.809978
v -15.022341 0.066769 -6.685814
v -14.937963 0.066760 -6.561503
v -14.853807 0.066752 -6.437036
v -14.769863 0.066744 -6.312403
v -13.430989 0.066642 -4.878094
v -14.748309 0.066675 -3.373213
v -14.686139 0.066736 -6.187612
v -16.255398 0.066786 -4.947680
v -14.890704 0.066683 -3.483503
v -15.016644 0.066692 -3.614886
v -15.142418 0.066701 -3.746436
v -15.268027 0.066711 -3.878156
v -15.393478 0.066720 -4.010050
v -15.518755 0.066730 -4.142104
v -15.643862 0.066739 -4.274321
v -15.768800 0.066748 -4.406703
v -15.893555 0.066758 -4.539237
v -16.018135 0.066767 -4.671926
v -16.142540 0.066777 -4.804773
v -14.593270 0.066728 -6.069592
v -14.488476 0.066720 -5.960391
v -14.383865 0.066712 -5.851045
v -14.279436 0.066704 -5.741543
v -14.175178 0.066696 -5.631880
v -14.071095 0.066689 -5.522060
v -13.967183 0.066681 -5.412078
v -13.863436 0.066673 -5.301926
v -13.759859 0.066665 -5.191611
v -13.656446 0.066657 -5.081126
v -13.553186 0.066649 -4.970462
v -11.949919 0.066559 -3.787712
v -13.012916 0.066578 -2.093593
v -13.430989 0.066642 -4.878094
v -14.748309 0.066675 -3.373213
v -13.168702 0.066585 -2.179241
v -13.316529 0.066593 -2.280026
v -13.460189 0.066601 -2.388685
v -13.603747 0.066609 -2.497493
v -13.747208 0.066617 -2.606455
v -13.890554 0.066625 -2.715560
v -14.033792 0.066633 -2.824811
v -14.176928 0.066642 -2.934211
v -14.319944 0.066650 -3.043749
v -14.462848 0.066658 -3.153430
v -14.605639 0.066666 -3.263254
v -13.308730 0.066635 -4.785761
v -13.186586 0.066628 -4.693286
v -13.064562 0.066621 -4.600674
v -12.942653 0.066614 -4.507922
v -12.820850 0.066607 -4.415021
v -12.699163 0.066600 -4.321981
v -12.577585 0.066593 -4.228795
v -12.456108 0.066586 -4.135457
v -12.334740 0.066579 -4.041974
v -12.213475 0.066571 -3.948340
v -12.086903 0.066565 -3.861415
v -10.309753 0.066490 -2.896790
v -11.137928 0.066500 -1.076315
v -11.949919 0.066559 -3.787712
v -13.012916 0.066578 -2.093593
v -11.295144 0.066506 -1.158542
v -11.451596 0.066513 -1.243000
v -11.607989 0.066519 -1.327566
v -11.764326 0.066526 -1.412243
v -11.920614 0.066532 -1.497034
v -12.076838 0.066539 -1.581931
v -12.233003 0.066545 -1.666938
v -12.389113 0.066552 -1.752057
v -12.545156 0.066559 -1.837279
v -12.701139 0.066565 -1.922610
v -12.857062 0.066572 -2.008051
v -11.813000 0.066553 -3.713903
v -11.676141 0.066548 -3.639986
v -11.539350 0.066542 -3.565964
v -11.402622 0.066536 -3.491836
v -11.265949 0.066530 -3.417597
v -11.129342 0.066524 -3.343253
v -10.992795 0.066519 -3.268799
v -10.856297 0.066513 -3.194232
v -10.719864 0.066507 -3.119557
v -10.583485 0.066501 -3.044772
v -10.447154 0.066495 -2.969871
v -8.533525 0.066439 -2.236067
v -9.166476 0.066444 -0.338865
v -10.309753 0.066490 -2.896790
v -11.137928 0.066500 -1.076315
v -9.330910 0.066448 -0.399925
v -9.495325 0.066453 -0.461060
v -9.659708 0.066457 -0.522264
v -9.824065 0.066462 -0.583540
v -9.988402 0.066467 -0.644891
v -10.152705 0.066471 -0.706310
v -10.316980 0.066476 -0.767800
v -10.481235 0.066481 -0.829364
v -10.645452 0.066486 -0.890996
v -10.809639 0.066490 -0.952698
v -10.973804 0.066495 -1.014473
v -10.161578 0.066485 -2.842120
v -10.013426 0.066481 -2.787377
v -9.865312 0.066477 -2.732566
v -9.717227 0.066473 -2.677685
v -9.569164 0.066469 -2.622731
v -9.421136 0.066464 -2.567709
v -9.273137 0.066460 -2.512615
v -9.125158 0.066456 -2.457448
v -8.977213 0.066452 -2.402211
v -8.829294 0.066447 -2.346903
v -8.681395 0.066443 -2.291520
v -6.688974 0.066403 -1.737585
v -7.156211 0.066405 0.207072
v -8.533525 0.066439 -2.236067
v -9.166476 0.066444 -0.338865
v -7.324876 0.066407 0.167336
v -7.493538 0.066410 0.127554
v -7.662181 0.066413 0.087733
v -7.830813 0.066415 0.047869
v -7.999443 0.066418 0.007960
v -8.168052 0.066421 -0.031988
v -8.336650 0.066424 -0.071979
v -8.505242 0.066426 -0.112014
v -8.673026 0.066430 -0.156119
v -8.837531 0.066434 -0.216961
v -9.002019 0.066439 -0.277878
v -8.385681 0.066434 -2.180542
v -8.237854 0.066430 -2.124941
v -8.090055 0.066426 -2.069270
v -7.935740 0.066423 -2.029217
v -7.779849 0.066420 -1.992909
v -7.623977 0.066418 -1.956562
v -7.468118 0.066415 -1.920172
v -7.312263 0.066413 -1.883738
v -7.156426 0.066410 -1.847264
v -7.000601 0.066408 -1.810747
v -6.844779 0.066405 -1.774186
v -4.807249 0.066377 -1.348207
v -5.125143 0.066378 0.626368
v -6.688974 0.066403 -1.737585
v -7.156211 0.066405 0.207072
v -5.296040 0.066378 0.605344
v -5.466941 0.066379 0.584288
v -5.637778 0.066380 0.562784
v -5.806525 0.066383 0.523433
v -5.975272 0.066386 0.484037
v -6.144002 0.066388 0.444600
v -6.312724 0.066391 0.405119
v -6.481444 0.066394 0.365595
v -6.650149 0.066396 0.326029
v -6.818844 0.066399 0.286420
v -6.987536 0.066402 0.246766
v -6.533181 0.066400 -1.700940
v -6.377390 0.066397 -1.664252
v -6.221616 0.066395 -1.627522
v -6.065850 0.066392 -1.590750
v -5.910088 0.066390 -1.553933
v -5.754341 0.066387 -1.517074
v -5.598603 0.066385 -1.480173
v -5.442865 0.066382 -1.443227
v -5.287143 0.066379 -1.406240
v -5.127242 0.066378 -1.386652
v -4.967239 0.066378 -1.367444
v -2.887671 0.066367 -1.114997
v -3.074010 0.066367 0.876304
v -4.807249 0.066377 -1.348207
v -5.125143 0.066378 0.626368
v -3.244955 0.066368 0.855643
v -3.415904 0.066369 0.834951
v -3.586843 0.066370 0.814229
v -3.757778 0.066370 0.793477
v -3.928718 0.066372 0.772694
v -4.099646 0.066372 0.751881
v -4.270570 0.066373 0.731038
v -4.441498 0.066374 0.710164
v -4.612413 0.066375 0.689261
v -4.783325 0.066376 0.668327
v -4.954241 0.066377 0.647362
v -4.647264 0.066376 -1.328939
v -4.487276 0.066375 -1.309641
v -4.327300 0.066374 -1.290313
v -4.167329 0.066374 -1.270955
v -4.007354 0.066373 -1.251565
v -3.847391 0.066372 -1.232147
v -3.687431 0.066371 -1.212698
v -3.527468 0.066370 -1.193218
v -3.367515 0.066370 -1.173708
v -3.207566 0.066369 -1.154168
v -3.047613 0.066368 -1.134597
vn -0.0000 1.0000 -0.0000
vn -0.0001 1.0000 0.0001
vn -0.0001 1.0000 -0.0000
vn -0.0001 1.0000 -0.0001
vn -0.0000 1.0000 -0.0001
vn 0.0001 1.0000 -0.0000
vt 0.854167 0.500000
vt 0.875000 0.750000
vt 0.854167 0.750000
vt 0.645833 0.500000
vt 0.625000 0.750000
vt 0.625000 0.500000
vt 0.666667 0.500000
vt 0.645833 0.750000
vt 0.687500 0.500000
vt 0.666667 0.750000
vt 0.708333 0.500000
vt 0.687500 0.750000
vt 0.729167 0.500000
vt 0.708333 0.750000
vt 0.750000 0.500000
vt 0.729167 0.750000
vt 0.770833 0.750000
vt 0.750000 0.750000
vt 0.770833 0.500000
vt 0.791667 0.750000
vt 0.791667 0.500000
vt 0.812500 0.750000
vt 0.812500 0.500000
vt 0.833333 0.750000
vt 0.833333 0.500000
vt 0.875000 0.500000
s 0
usemtl Material
f 16/1/1 4/2/1 15/3/1
f 26/4/1 2/5/1 1/6/1
f 25/7/1 5/8/1 26/4/1
f 24/9/1 6/10/1 25/7/1
f 23/11/1 7/12/1 24/9/1
f 22/13/1 8/14/1 23/11/1
f 21/15/1 9/16/1 22/13/1
f 21/15/1 11/17/1 10/18/1
f 20/19/1 12/20/1 11/17/1
f 19/21/1 13/22/1 12/20/1
f 18/23/1 14/24/1 13/22/1
f 17/25/1 15/3/1 14/24/1
f 29/26/1 41/3/1 42/1/1
f 27/6/1 31/8/1 28/5/1
f 52/4/1 32/10/1 31/8/1
f 51/7/1 33/12/1 32/10/1
f 50/9/1 34/14/1 33/12/1
f 49/11/1 35/16/1 34/14/1
f 47/15/1 35/16/1 48/13/1
f 46/19/1 36/18/1 47/15/1
f 45/21/1 37/17/1 46/19/1
f 44/23/1 38/20/1 45/21/1
f 43/25/1 39/22/1 44/23/1
f 42/1/1 40/24/1 43/25/1
f 68/1/1 56/2/1 67/3/1
f 53/6/1 57/8/1 54/5/1
f 77/7/1 57/8/1 78/4/1
f 76/9/1 58/10/1 77/7/1
f 76/9/1 60/14/1 59/12/1
f 75/11/1 61/16/1 60/14/1
f 73/15/1 61/16/1 74/13/1
f 73/15/1 63/17/1 62/18/1
f 72/19/1 64/20/1 63/17/1
f 70/23/1 64/20/1 71/21/1
f 70/23/1 66/24/1 65/22/1
f 69/25/1 67/3/1 66/24/1
f 94/1/1 82/2/1 93/3/1
f 104/4/1 80/5/1 79/6/1
f 103/7/1 83/8/1 104/4/1
f 102/9/1 84/10/1 103/7/1
f 101/11/1 85/12/1 102/9/1
f 100/13/1 86/14/1 101/11/1
f 100/13/1 88/18/1 87/16/1
f 99/15/1 89/17/1 88/18/1
f 98/19/1 90/20/1 89/17/1
f 97/21/1 91/22/1 90/20/1
f 96/23/1 92/24/1 91/22/1
f 95/25/1 93/3/1 92/24/1
f 107/26/1 119/3/1 120/1/1
f 105/6/2 109/8/2 106/5/2
f 130/4/2 110/10/2 109/8/2
f 128/9/2 110/10/2 129/7/2
f 127/11/3 111/12/3 128/9/3
f 126/13/3 112/14/3 127/11/3
f 125/15/3 113/16/3 126/13/3
f 124/19/1 114/18/1 125/15/1
f 123/21/1 115/17/1 124/19/1
f 122/23/1 116/20/1 123/21/1
f 121/25/1 117/22/1 122/23/1
f 120/1/1 118/24/1 121/25/1
f 133/26/2 145/3/2 146/1/2
f 131/6/2 135/8/2 132/5/2
f 156/4/2 136/10/2 135/8/2
f 155/7/2 137/12/2 136/10/2
f 154/9/2 138/14/2 137/12/2
f 153/11/2 139/16/2 138/14/2
f 152/13/2 140/18/2 139/16/2
f 150/19/2 140/18/2 151/15/2
f 150/19/2 142/20/2 141/17/2
f 149/21/2 143/22/2 142/20/2
f 148/23/2 144/24/2 143/22/2
f 146/1/2 144/24/2 147/25/2
f 172/1/2 160/2/2 171/3/2
f 157/6/3 161/8/3 158/5/3
f 181/7/3 161/8/3 182/4/3
f 181/7/3 163/12/3 162/10/3
f 180/9/3 164/14/3 163/12/3
f 178/13/2 164/14/2 179/11/2
f 178/13/2 166/18/2 165/16/2
f 176/19/2 166/18/2 177/15/2
f 175/21/2 167/17/2 176/19/2
f 175/21/2 169/22/2 168/20/2
f 174/23/2 170/24/2 169/22/2
f 172/1/2 170/24/2 173/25/2
f 185/26/3 197/3/3 198/1/3
f 208/4/4 184/5/4 183/6/4
f 208/4/4 188/10/4 187/8/4
f 206/9/4 188/10/4 207/7/4
f 206/9/4 190/14/4 189/12/4
f 204/13/4 190/14/4 205/11/4
f 204/13/3 192/18/3 191/16/3
f 202/19/3 192/18/3 203/15/3
f 202/19/3 194/20/3 193/17/3
f 200/23/3 194/20/3 201/21/3
f 200/23/3 196/24/3 195/22/3
f 198/1/3 196/24/3 199/25/3
f 224/1/4 212/2/4 223/3/4
f 209/6/4 213/8/4 210/5/4
f 233/7/4 213/8/4 234/4/4
f 233/7/4 215/12/4 214/10/4
f 231/11/4 215/12/4 232/9/4
f 231/11/4 217/16/4 216/14/4
f 229/15/4 217/16/4 230/13/4
f 229/15/4 219/17/4 218/18/4
f 228/19/4 220/20/4 219/17/4
f 226/23/4 220/20/4 227/21/4
f 226/23/4 222/24/4 221/22/4
f 224/1/4 222/24/4 225/25/4
f 237/26/4 249/3/4 250/1/4
f 235/6/5 239/8/5 236/5/5
f 259/7/4 239/8/4 260/4/4
f 258/9/4 240/10/4 259/7/4
f 258/9/4 242/14/4 241/12/4
f 256/13/4 242/14/4 257/11/4
f 256/13/4 244/18/4 243/16/4
f 254/19/4 244/18/4 255/15/4
f 254/19/4 246/20/4 245/17/4
f 252/23/4 246/20/4 253/21/4
f 252/23/4 248/24/4 247/22/4
f 251/25/4 249/3/4 248/24/4
f 263/26/5 275/3/5 276/1/5
f 261/6/1 265/8/1 262/5/1
f 285/7/1 265/8/1 286/4/1
f 284/9/1 266/10/1 285/7/1
f 284/9/1 268/14/1 267/12/1
f 282/13/1 268/14/1 283/11/1
f 282/13/1 270/18/1 269/16/1
f 280/19/1 270/18/1 281/15/1
f 279/21/5 271/17/5 280/19/5
f 279/21/5 273/22/5 272/20/5
f 277/25/5 273/22/5 278/23/5
f 277/25/5 275/3/5 274/24/5
f 289/26/1 301/3/1 302/1/1
f 312/4/1 288/5/1 287/6/1
f 311/7/1 291/8/1 312/4/1
f 310/9/1 292/10/1 311/7/1
f 309/11/1 293/12/1 310/9/1
f 308/13/1 294/14/1 309/11/1
f 307/15/1 295/16/1 308/13/1
f 306/19/1 296/18/1 307/15/1
f 305/21/1 297/17/1 306/19/1
f 304/23/1 298/20/1 305/21/1
f 303/25/1 299/22/1 304/23/1
f 303/25/1 301/3/1 300/24/1
f 328/1/1 316/2/1 327/3/1
f 338/4/1 314/5/1 313/6/1
f 338/4/1 318/10/1 317/8/1
f 336/9/1 318/10/1 337/7/1
f 335/11/1 319/12/1 336/9/1
f 335/11/1 321/16/1 320/14/1
f 333/15/1 321/16/1 334/13/1
f 333/15/1 323/17/1 322/18/1
f 331/21/1 323/17/1 332/19/1
f 330/23/1 324/20/1 331/21/1
f 330/23/1 326/24/1 325/22/1
f 328/1/1 326/24/1 329/25/1
f 354/1/1 342/2/1 353/3/1
f 339/6/1 343/8/1 340/5/1
f 363/7/1 343/8/1 364/4/1
f 363/7/1 345/12/1 344/10/1
f 361/11/1 345/12/1 362/9/1
f 361/11/1 347/16/1 346/14/1
f 359/15/1 347/16/1 360/13/1
f 359/15/1 349/17/1 348/18/1
f 357/21/1 349/17/1 358/19/1
f 356/23/1 350/20/1 357/21/1
f 356/23/1 352/24/1 351/22/1
f 354/1/1 352/24/1 355/25/1
f 367/26/1 379/3/1 380/1/1
f 390/4/1 366/5/1 365/6/1
f 390/4/1 370/10/1 369/8/1
f 388/9/1 370/10/1 389/7/1
f 388/9/1 372/14/1 371/12/1
f 386/13/1 372/14/1 387/11/1
f 386/13/1 374/18/1 373/16/1
f 384/19/1 374/18/1 385/15/1
f 384/19/1 376/20/1 375/17/1
f 383/21/1 377/22/1 376/20/1
f 381/25/1 377/22/1 382/23/1
f 381/25/1 379/3/1 378/24/1
f 406/1/1 394/2/1 405/3/1
f 416/4/1 392/5/1 391/6/1
f 416/4/1 396/10/1 395/8/1
f 414/9/1 396/10/1 415/7/1
f 414/9/1 398/14/1 397/12/1
f 412/13/1 398/14/1 413/11/1
f 412/13/1 400/18/1 399/16/1
f 410/19/1 400/18/1 411/15/1
f 410/19/1 402/20/1 401/17/1
f 408/23/1 402/20/1 409/21/1
f 408/23/1 404/24/1 403/22/1
f 406/1/1 404/24/1 407/25/1
f 432/1/1 420/2/1 431/3/1
f 442/4/1 418/5/1 417/6/1
f 442/4/1 422/10/1 421/8/1
f 440/9/1 422/10/1 441/7/1
f 440/9/1 424/14/1 423/12/1
f 439/11/1 425/16/1 424/14/1
f 438/13/1 426/18/1 425/16/1
f 437/15/1 427/17/1 426/18/1
f 436/19/1 428/20/1 427/17/1
f 435/21/1 429/22/1 428/20/1
f 434/23/1 430/24/1 429/22/1
f 433/25/1 431/3/1 430/24/1
f 458/1/1 446/2/1 457/3/1
f 443/6/1 447/8/1 444/5/1
f 467/7/1 447/8/1 468/4/1
f 467/7/1 449/12/1 448/10/1
f 465/11/1 449/12/1 466/9/1
f 465/11/1 451/16/1 450/14/1
f 463/15/1 451/16/1 464/13/1
f 463/15/1 453/17/1 452/18/1
f 462/19/1 454/20/1 453/17/1
f 460/23/1 454/20/1 461/21/1
f 460/23/1 456/24/1 455/22/1
f 458/1/1 456/24/1 459/25/1
f 471/26/1 483/3/1 484/1/1
f 469/6/1 473/8/1 470/5/1
f 493/7/1 473/8/1 494/4/1
f 492/9/1 474/10/1 493/7/1
f 492/9/1 476/14/1 475/12/1
f 490/13/1 476/14/1 491/11/1
f 490/13/1 478/18/1 477/16/1
f 488/19/1 478/18/1 489/15/1
f 487/21/1 479/17/1 488/19/1
f 487/21/1 481/22/1 480/20/1
f 485/25/1 481/22/1 486/23/1
f 485/25/1 483/3/1 482/24/1
f 497/26/1 509/3/1 510/1/1
f 520/4/1 496/5/1 495/6/1
f 520/4/1 500/10/1 499/8/1
f 519/7/1 501/12/1 500/10/1
f 517/11/1 501/12/1 518/9/1
f 517/11/1 503/16/1 502/14/1
f 515/15/1 503/16/1 516/13/1
f 514/19/1 504/18/1 515/15/1
f 514/19/1 506/20/1 505/17/1
f 512/23/1 506/20/1 513/21/1
f 511/25/1 507/22/1 512/23/1
f 511/25/1 509/3/1 508/24/1
f 536/1/1 524/2/1 535/3/1
f 546/4/1 522/5/1 521/6/1
f 545/7/1 525/8/1 546/4/1
f 545/7/1 527/12/1 526/10/1
f 543/11/1 527/12/1 544/9/1
f 542/13/1 528/14/1 543/11/1
f 542/13/1 530/18/1 529/16/1
f 540/19/1 530/18/1 541/15/1
f 540/19/1 532/20/1 531/17/1
f 539/21/1 533/22/1 532/20/1
f 537/25/1 533/22/1 538/23/1
f 537/25/1 535/3/1 534/24/1
f 562/1/1 550/2/1 561/3/1
f 547/6/1 551/8/1 548/5/1
f 571/7/1 551/8/1 572/4/1
f 570/9/1 552/10/1 571/7/1
f 570/9/1 554/14/1 553/12/1
f 568/13/1 554/14/1 569/11/1
f 568/13/1 556/18/1 555/16/1
f 567/15/1 557/17/1 556/18/1
f 565/21/1 557/17/1 566/19/1
f 565/21/1 559/22/1 558/20/1
f 564/23/1 560/24/1 559/22/1
f 562/1/1 560/24/1 563/25/1
f 575/26/1 587/3/1 588/1/1
f 573/6/1 577/8/1 574/5/1
f 598/4/1 578/10/1 577/8/1
f 596/9/1 578/10/1 597/7/1
f 596/9/1 580/14/1 579/12/1
f 595/11/1 581/16/1 580/14/1
f 593/15/1 581/16/1 594/13/1
f 593/15/1 583/17/1 582/18/1
f 592/19/1 584/20/1 583/17/1
f 590/23/1 584/20/1 591/21/1
f 590/23/1 586/24/1 585/22/1
f 588/1/1 586/24/1 589/25/1
f 601/26/1 613/3/1 614/1/1
f 624/4/6 600/5/6 599/6/6
f 623/7/6 603/8/6 624/4/6
f 623/7/6 605/12/6 604/10/6
f 622/9/6 606/14/6 605/12/6
f 620/13/6 606/14/6 621/11/6
f 619/15/6 607/16/6 620/13/6
f 619/15/6 609/17/6 608/18/6
f 617/21/6 609/17/6 618/19/6
f 616/23/6 610/20/6 617/21/6
f 616/23/1 612/24/1 611/22/1
f 615/25/1 613/3/1 612/24/1
f 640/1/6 628/2/6 639/3/6
f 650/4/6 626/5/6 625/6/6
f 649/7/6 629/8/6 650/4/6
f 648/9/6 630/10/6 649/7/6
f 648/9/6 632/14/6 631/12/6
f 647/11/6 633/16/6 632/14/6
f 645/15/6 633/16/6 646/13/6
f 644/19/6 634/18/6 645/15/6
f 644/19/6 636/20/6 635/17/6
f 643/21/6 637/22/6 636/20/6
f 641/25/6 637/22/6 642/23/6
f 640/1/6 638/24/6 641/25/6
f 666/1/6 654/2/6 665/3/6
f 676/4/6 652/5/6 651/6/6
f 676/4/6 656/10/6 655/8/6
f 675/7/6 657/12/6 656/10/6
f 673/11/6 657/12/6 674/9/6
f 672/13/6 658/14/6 673/11/6
f 671/15/6 659/16/6 672/13/6
f 671/15/6 661/17/6 660/18/6
f 670/19/6 662/20/6 661/17/6
f 668/23/6 662/20/6 669/21/6
f 667/25/6 663/22/6 668/23/6
f 667/25/6 665/3/6 664/24/6
f 679/26/6 691/3/6 692/1/6
f 702/4/6 678/5/6 677/6/6
f 701/7/6 681/8/6 702/4/6
f 701/7/6 683/12/6 682/10/6
f 700/9/6 684/14/6 683/12/6
f 699/11/6 685/16/6 684/14/6
f 697/15/6 685/16/6 698/13/6
f 696/19/6 686/18/6 697/15/6
f 695/21/6 687/17/6 696/19/6
f 695/21/6 689/22/6 688/20/6
f 694/23/6 690/24/6 689/22/6
f 692/1/6 690/24/6 693/25/6
f 718/1/6 706/2/6 717/3/6
f 728/4/6 704/5/6 703/6/6
f 727/7/6 707/8/6 728/4/6
f 726/9/6 708/10/6 727/7/6
f 726/9/6 710/14/6 709/12/6
f 725/11/6 711/16/6 710/14/6
f 724/13/6 712/18/6 711/16/6
f 722/19/6 712/18/6 723/15/6
f 721/21/6 713/17/6 722/19/6
f 720/23/6 714/20/6 721/21/6
f 720/23/6 716/24/6 715/22/6
f 719/25/6 717/3/6 716/24/6
f 744/1/6 732/2/6 743/3/6
f 754/4/6 730/5/6 729/6/6
f 753/7/6 733/8/6 754/4/6
f 752/9/6 734/10/6 753/7/6
f 752/9/6 736/14/6 735/12/6
f 751/11/6 737/16/6 736/14/6
f 750/13/6 738/18/6 737/16/6
f 748/19/6 738/18/6 749/15/6
f 747/21/6 739/17/6 748/19/6
f 746/23/6 740/20/6 747/21/6
f 746/23/6 742/24/6 741/22/6
f 745/25/6 743/3/6 742/24/6
f 770/1/6 758/2/6 769/3/6
f 780/4/6 756/5/6 755/6/6
f 780/4/6 760/10/6 759/8/6
f 779/7/6 761/12/6 760/10/6
f 778/9/6 762/14/6 761/12/6
f 777/11/6 763/16/6 762/14/6
f 775/15/6 763/16/6 776/13/6
f 774/19/6 764/18/6 775/15/6
f 773/21/6 765/17/6 774/19/6
f 773/21/6 767/22/6 766/20/6
f 772/23/6 768/24/6 767/22/6
f 771/25/6 769/3/6 768/24/6
f 783/26/6 795/3/6 796/1/6
f 781/6/6 785/8/6 782/5/6
f 806/4/6 786/10/6 785/8/6
f 804/9/6 786/10/6 805/7/6
f 803/11/6 787/12/6 804/9/6
f 802/13/6 788/14/6 803/11/6
f 801/15/6 789/16/6 802/13/6
f 801/15/6 791/17/6 790/18/6
f 800/19/6 792/20/6 791/17/6
f 799/21/6 793/22/6 792/20/6
f 798/23/6 794/24/6 793/22/6
f 796/1/6 794/24/6 797/25/6
f 822/1/6 810/2/6 821/3/6
f 832/4/6 808/5/6 807/6/6
f 831/7/6 811/8/6 832/4/6
f 831/7/6 813/12/6 812/10/6
f 830/9/6 814/14/6 813/12/6
f 829/11/6 815/16/6 814/14/6
f 828/13/6 816/18/6 815/16/6
f 827/15/6 817/17/6 816/18/6
f 825/21/6 817/17/6 826/19/6
f 824/23/6 818/20/6 825/21/6
f 823/25/6 819/22/6 824/23/6
f 823/25/6 821/3/6 820/24/6
f 835/26/6 847/3/6 848/1/6
f 833/6/6 837/8/6 834/5/6
f 858/4/6 838/10/6 837/8/6
f 856/9/6 838/10/6 857/7/6
f 855/11/6 839/12/6 856/9/6
f 854/13/6 840/14/6 855/11/6
f 853/15/6 841/16/6 854/13/6
f 853/15/6 843/17/6 842/18/6
f 852/19/6 844/20/6 843/17/6
f 851/21/6 845/22/6 844/20/6
f 850/23/6 846/24/6 845/22/6
f 848/1/6 846/24/6 849/25/6
f 874/1/6 862/2/6 873/3/6
f 859/6/6 863/8/6 860/5/6
f 884/4/6 864/10/6 863/8/6
f 883/7/6 865/12/6 864/10/6
f 882/9/6 866/14/6 865/12/6
f 880/13/6 866/14/6 881/11/6
f 879/15/6 867/16/6 880/13/6
f 878/19/6 868/18/6 879/15/6
f 877/21/6 869/17/6 878/19/6
f 876/23/6 870/20/6 877/21/6
f 876/23/6 872/24/6 871/22/6
f 875/25/6 873/3/6 872/24/6
f 900/1/6 888/2/6 899/3/6
f 910/4/1 886/5/1 885/6/1
f 910/4/6 890/10/6 889/8/6
f 909/7/6 891/12/6 890/10/6
f 908/9/6 892/14/6 891/12/6
f 907/11/6 893/16/6 892/14/6
f 906/13/6 894/18/6 893/16/6
f 904/19/6 894/18/6 905/15/6
f 903/21/6 895/17/6 904/19/6
f 902/23/6 896/20/6 903/21/6
f 901/25/6 897/22/6 902/23/6
f 900/1/6 898/24/6 901/25/6
f 913/26/1 925/3/1 926/1/1
f 936/4/1 912/5/1 911/6/1
f 936/4/1 916/10/1 915/8/1
f 935/7/1 917/12/1 916/10/1
f 934/9/1 918/14/1 917/12/1
f 933/11/1 919/16/1 918/14/1
f 932/13/1 920/18/1 919/16/1
f 931/15/1 921/17/1 920/18/1
f 929/21/1 921/17/1 930/19/1
f 928/23/1 922/20/1 929/21/1
f 927/25/1 923/22/1 928/23/1
f 926/1/1 924/24/1 927/25/1
f 939/26/1 951/3/1 952/1/1
f 937/6/1 941/8/1 938/5/1
f 962/4/1 942/10/1 941/8/1
f 961/7/1 943/12/1 942/10/1
f 960/9/1 944/14/1 943/12/1
f 959/11/1 945/16/1 944/14/1
f 958/13/1 946/18/1 945/16/1
f 956/19/1 946/18/1 957/15/1
f 955/21/1 947/17/1 956/19/1
f 954/23/1 948/20/1 955/21/1
f 953/25/1 949/22/1 954/23/1
f 952/1/1 950/24/1 953/25/1
f 965/26/1 977/3/1 978/1/1
f 963/6/1 967/8/1 964/5/1
f 988/4/1 968/10/1 967/8/1
f 987/7/1 969/12/1 968/10/1
f 986/9/1 970/14/1 969/12/1
f 984/13/1 970/14/1 985/11/1
f 983/15/1 971/16/1 984/13/1
f 982/19/1 972/18/1 983/15/1
f 981/21/1 973/17/1 982/19/1
f 980/23/1 974/20/1 981/21/1
f 979/25/1 975/22/1 980/23/1
f 978/1/1 976/24/1 979/25/1
f 1004/1/1 992/2/1 1003/3/1
f 1014/4/1 990/5/1 989/6/1
f 1013/7/1 993/8/1 1014/4/1
f 1012/9/1 994/10/1 1013/7/1
f 1011/11/1 995/12/1 1012/9/1
f 1010/13/1 996/14/1 1011/11/1
f 1009/15/1 997/16/1 1010/13/1
f 1008/19/1 998/18/1 1009/15/1
f 1007/21/1 999/17/1 1008/19/1
f 1006/23/1 1000/20/1 1007/21/1
f 1006/23/1 1002/24/1 1001/22/1
f 1005/25/1 1003/3/1 1002/24/1
f 1017/26/1 1029/3/1 1030/1/1
f 1040/4/1 1016/5/1 1015/6/1
f 1039/7/1 1019/8/1 1040/4/1
f 1038/9/1 1020/10/1 1039/7/1
f 1038/9/1 1022/14/1 1021/12/1
f 1037/11/1 1023/16/1 1022/14/1
f 1036/13/1 1024/18/1 1023/16/1
f 1035/15/1 1025/17/1 1024/18/1
f 1034/19/1 1026/20/1 1025/17/1
f 1033/21/1 1027/22/1 1026/20/1
f 1032/23/1 1028/24/1 1027/22/1
f 1031/25/1 1029/3/1 1028/24/1
f 1043/26/1 1055/3/1 1056/1/1
f 1041/6/1 1045/8/1 1042/5/1
f 1066/4/1 1046/10/1 1045/8/1
f 1065/7/1 1047/12/1 1046/10/1
f 1064/9/1 1048/14/1 1047/12/1
f 1063/11/1 1049/16/1 1048/14/1
f 1061/15/1 1049/16/1 1062/13/1
f 1060/19/1 1050/18/1 1061/15/1
f 1059/21/1 1051/17/1 1060/19/1
f 1058/23/1 1052/20/1 1059/21/1
f 1057/25/1 1053/22/1 1058/23/1
f 1056/1/1 1054/24/1 1057/25/1
f 16/1/1 3/26/1 4/2/1
f 26/4/1 5/8/1 2/5/1
f 25/7/1 6/10/1 5/8/1
f 24/9/1 7/12/1 6/10/1
f 23/11/1 8/14/1 7/12/1
f 22/13/1 9/16/1 8/14/1
f 21/15/1 10/18/1 9/16/1
f 21/15/1 20/19/1 11/17/1
f 20/19/1 19/21/1 12/20/1
f 19/21/1 18/23/1 13/22/1
f 18/23/1 17/25/1 14/24/1
f 17/25/1 16/1/1 15/3/1
f 29/26/1 30/2/1 41/3/1
f 27/6/1 52/4/1 31/8/1
f 52/4/1 51/7/1 32/10/1
f 51/7/1 50/9/1 33/12/1
f 50/9/1 49/11/1 34/14/1
f 49/11/1 48/13/1 35/16/1
f 47/15/1 36/18/1 35/16/1
f 46/19/1 37/17/1 36/18/1
f 45/21/1 38/20/1 37/17/1
f 44/23/1 39/22/1 38/20/1
f 43/25/1 40/24/1 39/22/1
f 42/1/1 41/3/1 40/24/1
f 68/1/1 55/26/1 56/2/1
f 53/6/1 78/4/1 57/8/1
f 77/7/1 58/10/1 57/8/1
f 76/9/1 59/12/1 58/10/1
f 76/9/1 75/11/1 60/14/1
f 75/11/1 74/13/1 61/16/1
f 73/15/1 62/18/1 61/16/1
f 73/15/1 72/19/1 63/17/1
f 72/19/1 71/21/1 64/20/1
f 70/23/1 65/22/1 64/20/1
f 70/23/1 69/25/1 66/24/1
f 69/25/1 68/1/1 67/3/1
f 94/1/1 81/26/1 82/2/1
f 104/4/1 83/8/1 80/5/1
f 103/7/1 84/10/1 83/8/1
f 102/9/1 85/12/1 84/10/1
f 101/11/1 86/14/1 85/12/1
f 100/13/1 87/16/1 86/14/1
f 100/13/1 99/15/1 88/18/1
f 99/15/1 98/19/1 89/17/1
f 98/19/1 97/21/1 90/20/1
f 97/21/1 96/23/1 91/22/1
f 96/23/1 95/25/1 92/24/1
f 95/25/1 94/1/1 93/3/1
f 107/26/1 108/2/1 119/3/1
f 105/6/2 130/4/2 109/8/2
f 130/4/2 129/7/2 110/10/2
f 128/9/2 111/12/2 110/10/2
f 127/11/2 112/14/2 111/12/2
f 126/13/3 113/16/3 112/14/3
f 125/15/3 114/18/3 113/16/3
f 124/19/1 115/17/1 114/18/1
f 123/21/1 116/20/1 115/17/1
f 122/23/1 117/22/1 116/20/1
f 121/25/1 118/24/1 117/22/1
f 120/1/1 119/3/1 118/24/1
f 133/26/2 134/2/2 145/3/2
f 131/6/2 156/4/2 135/8/2
f 156/4/2 155/7/2 136/10/2
f 155/7/2 154/9/2 137/12/2
f 154/9/2 153/11/2 138/14/2
f 153/11/2 152/13/2 139/16/2
f 152/13/2 151/15/2 140/18/2
f 150/19/2 141/17/2 140/18/2
f 150/19/2 149/21/2 142/20/2
f 149/21/2 148/23/2 143/22/2
f 148/23/2 147/25/2 144/24/2
f 146/1/2 145/3/2 144/24/2
f 172/1/2 159/26/2 160/2/2
f 157/6/3 182/4/3 161/8/3
f 181/7/3 162/10/3 161/8/3
f 181/7/3 180/9/3 163/12/3
f 180/9/3 179/11/3 164/14/3
f 178/13/2 165/16/2 164/14/2
f 178/13/2 177/15/2 166/18/2
f 176/19/2 167/17/2 166/18/2
f 175/21/2 168/20/2 167/17/2
f 175/21/2 174/23/2 169/22/2
f 174/23/2 173/25/2 170/24/2
f 172/1/2 171/3/2 170/24/2
f 185/26/3 186/2/3 197/3/3
f 208/4/4 187/8/4 184/5/4
f 208/4/4 207/7/4 188/10/4
f 206/9/4 189/12/4 188/10/4
f 206/9/4 205/11/4 190/14/4
f 204/13/4 191/16/4 190/14/4
f 204/13/3 203/15/3 192/18/3
f 202/19/3 193/17/3 192/18/3
f 202/19/3 201/21/3 194/20/3
f 200/23/3 195/22/3 194/20/3
f 200/23/3 199/25/3 196/24/3
f 198/1/3 197/3/3 196/24/3
f 224/1/4 211/26/4 212/2/4
f 209/6/4 234/4/4 213/8/4
f 233/7/4 214/10/4 213/8/4
f 233/7/4 232/9/4 215/12/4
f 231/11/4 216/14/4 215/12/4
f 231/11/4 230/13/4 217/16/4
f 229/15/4 218/18/4 217/16/4
f 229/15/4 228/19/4 219/17/4
f 228/19/4 227/21/4 220/20/4
f 226/23/4 221/22/4 220/20/4
f 226/23/4 225/25/4 222/24/4
f 224/1/4 223/3/4 222/24/4
f 237/26/4 238/2/4 249/3/4
f 235/6/5 260/4/5 239/8/5
f 259/7/5 240/10/5 239/8/5
f 258/9/4 241/12/4 240/10/4
f 258/9/4 257/11/4 242/14/4
f 256/13/4 243/16/4 242/14/4
f 256/13/4 255/15/4 244/18/4
f 254/19/4 245/17/4 244/18/4
f 254/19/4 253/21/4 246/20/4
f 252/23/4 247/22/4 246/20/4
f 252/23/4 251/25/4 248/24/4
f 251/25/4 250/1/4 249/3/4
f 263/26/5 264/2/5 275/3/5
f 261/6/1 286/4/1 265/8/1
f 285/7/1 266/10/1 265/8/1
f 284/9/1 267/12/1 266/10/1
f 284/9/1 283/11/1 268/14/1
f 282/13/1 269/16/1 268/14/1
f 282/13/1 281/15/1 270/18/1
f 280/19/1 271/17/1 270/18/1
f 279/21/5 272/20/5 271/17/5
f 279/21/5 278/23/5 273/22/5
f 277/25/5 274/24/5 273/22/5
f 277/25/5 276/1/5 275/3/5
f 289/26/1 290/2/1 301/3/1
f 312/4/1 291/8/1 288/5/1
f 311/7/1 292/10/1 291/8/1
f 310/9/1 293/12/1 292/10/1
f 309/11/1 294/14/1 293/12/1
f 308/13/1 295/16/1 294/14/1
f 307/15/1 296/18/1 295/16/1
f 306/19/1 297/17/1 296/18/1
f 305/21/1 298/20/1 297/17/1
f 304/23/1 299/22/1 298/20/1
f 303/25/1 300/24/1 299/22/1
f 303/25/1 302/1/1 301/3/1
f 328/1/1 315/26/1 316/2/1
f 338/4/1 317/8/1 314/5/1
f 338/4/1 337/7/1 318/10/1
f 336/9/1 319/12/1 318/10/1
f 335/11/1 320/14/1 319/12/1
f 335/11/1 334/13/1 321/16/1
f 333/15/1 322/18/1 321/16/1
f 333/15/1 332/19/1 323/17/1
f 331/21/1 324/20/1 323/17/1
f 330/23/1 325/22/1 324/20/1
f 330/23/1 329/25/1 326/24/1
f 328/1/1 327/3/1 326/24/1
f 354/1/1 341/26/1 342/2/1
f 339/6/1 364/4/1 343/8/1
f 363/7/1 344/10/1 343/8/1
f 363/7/1 362/9/1 345/12/1
f 361/11/1 346/14/1 345/12/1
f 361/11/1 360/13/1 347/16/1
f 359/15/1 348/18/1 347/16/1
f 359/15/1 358/19/1 349/17/1
f 357/21/1 350/20/1 349/17/1
f 356/23/1 351/22/1 350/20/1
f 356/23/1 355/25/1 352/24/1
f 354/1/1 353/3/1 352/24/1
f 367/26/1 368/2/1 379/3/1
f 390/4/1 369/8/1 366/5/1
f 390/4/1 389/7/1 370/10/1
f 388/9/1 371/12/1 370/10/1
f 388/9/1 387/11/1 372/14/1
f 386/13/1 373/16/1 372/14/1
f 386/13/1 385/15/1 374/18/1
f 384/19/1 375/17/1 374/18/1
f 384/19/1 383/21/1 376/20/1
f 383/21/1 382/23/1 377/22/1
f 381/25/1 378/24/1 377/22/1
f 381/25/1 380/1/1 379/3/1
f 406/1/1 393/26/1 394/2/1
f 416/4/1 395/8/1 392/5/1
f 416/4/1 415/7/1 396/10/1
f 414/9/1 397/12/1 396/10/1
f 414/9/1 413/11/1 398/14/1
f 412/13/1 399/16/1 398/14/1
f 412/13/1 411/15/1 400/18/1
f 410/19/1 401/17/1 400/18/1
f 410/19/1 409/21/1 402/20/1
f 408/23/1 403/22/1 402/20/1
f 408/23/1 407/25/1 404/24/1
f 406/1/1 405/3/1 404/24/1
f 432/1/1 419/26/1 420/2/1
f 442/4/1 421/8/1 418/5/1
f 442/4/1 441/7/1 422/10/1
f 440/9/1 423/12/1 422/10/1
f 440/9/1 439/11/1 424/14/1
f 439/11/1 438/13/1 425/16/1
f 438/13/1 437/15/1 426/18/1
f 437/15/1 436/19/1 427/17/1
f 436/19/1 435/21/1 428/20/1
f 435/21/1 434/23/1 429/22/1
f 434/23/1 433/25/1 430/24/1
f 433/25/1 432/1/1 431/3/1
f 458/1/1 445/26/1 446/2/1
f 443/6/1 468/4/1 447/8/1
f 467/7/1 448/10/1 447/8/1
f 467/7/1 466/9/1 449/12/1
f 465/11/1 450/14/1 449/12/1
f 465/11/1 464/13/1 451/16/1
f 463/15/1 452/18/1 451/16/1
f 463/15/1 462/19/1 453/17/1
f 462/19/1 461/21/1 454/20/1
f 460/23/1 455/22/1 454/20/1
f 460/23/1 459/25/1 456/24/1
f 458/1/1 457/3/1 456/24/1
f 471/26/1 472/2/1 483/3/1
f 469/6/1 494/4/1 473/8/1
f 493/7/1 474/10/1 473/8/1
f 492/9/1 475/12/1 474/10/1
f 492/9/1 491/11/1 476/14/1
f 490/13/1 477/16/1 476/14/1
f 490/13/1 489/15/1 478/18/1
f 488/19/1 479/17/1 478/18/1
f 487/21/1 480/20/1 479/17/1
f 487/21/1 486/23/1 481/22/1
f 485/25/1 482/24/1 481/22/1
f 485/25/1 484/1/1 483/3/1
f 497/26/1 498/2/1 509/3/1
f 520/4/1 499/8/1 496/5/1
f 520/4/1 519/7/1 500/10/1
f 519/7/1 518/9/1 501/12/1
f 517/11/1 502/14/1 501/12/1
f 517/11/1 516/13/1 503/16/1
f 515/15/1 504/18/1 503/16/1
f 514/19/1 505/17/1 504/18/1
f 514/19/1 513/21/1 506/20/1
f 512/23/1 507/22/1 506/20/1
f 511/25/1 508/24/1 507/22/1
f 511/25/1 510/1/1 509/3/1
f 536/1/1 523/26/1 524/2/1
f 546/4/1 525/8/1 522/5/1
f 545/7/1 526/10/1 525/8/1
f 545/7/1 544/9/1 527/12/1
f 543/11/1 528/14/1 527/12/1
f 542/13/1 529/16/1 528/14/1
f 542/13/1 541/15/1 530/18/1
f 540/19/1 531/17/1 530/18/1
f 540/19/1 539/21/1 532/20/1
f 539/21/1 538/23/1 533/22/1
f 537/25/1 534/24/1 533/22/1
f 537/25/1 536/1/1 535/3/1
f 562/1/1 549/26/1 550/2/1
f 547/6/1 572/4/1 551/8/1
f 571/7/1 552/10/1 551/8/1
f 570/9/1 553/12/1 552/10/1
f 570/9/1 569/11/1 554/14/1
f 568/13/1 555/16/1 554/14/1
f 568/13/1 567/15/1 556/18/1
f 567/15/1 566/19/1 557/17/1
f 565/21/1 558/20/1 557/17/1
f 565/21/1 564/23/1 559/22/1
f 564/23/1 563/25/1 560/24/1
f 562/1/1 561/3/1 560/24/1
f 575/26/1 576/2/1 587/3/1
f 573/6/1 598/4/1 577/8/1
f 598/4/1 597/7/1 578/10/1
f 596/9/1 579/12/1 578/10/1
f 596/9/1 595/11/1 580/14/1
f 595/11/1 594/13/1 581/16/1
f 593/15/1 582/18/1 581/16/1
f 593/15/1 592/19/1 583/17/1
f 592/19/1 591/21/1 584/20/1
f 590/23/1 585/22/1 584/20/1
f 590/23/1 589/25/1 586/24/1
f 588/1/1 587/3/1 586/24/1
f 601/26/1 602/2/1 613/3/1
f 624/4/6 603/8/6 600/5/6
f 623/7/6 604/10/6 603/8/6
f 623/7/6 622/9/6 605/12/6
f 622/9/6 621/11/6 606/14/6
f 620/13/6 607/16/6 606/14/6
f 619/15/6 608/18/6 607/16/6
f 619/15/6 618/19/6 609/17/6
f 617/21/6 610/20/6 609/17/6
f 616/23/6 611/22/6 610/20/6
f 616/23/1 615/25/1 612/24/1
f 615/25/1 614/1/1 613/3/1
f 640/1/6 627/26/6 628/2/6
f 650/4/6 629/8/6 626/5/6
f 649/7/6 630/10/6 629/8/6
f 648/9/6 631/12/6 630/10/6
f 648/9/6 647/11/6 632/14/6
f 647/11/6 646/13/6 633/16/6
f 645/15/6 634/18/6 633/16/6
f 644/19/6 635/17/6 634/18/6
f 644/19/6 643/21/6 636/20/6
f 643/21/6 642/23/6 637/22/6
f 641/25/6 638/24/6 637/22/6
f 640/1/6 639/3/6 638/24/6
f 666/1/6 653/26/6 654/2/6
f 676/4/6 655/8/6 652/5/6
f 676/4/6 675/7/6 656/10/6
f 675/7/6 674/9/6 657/12/6
f 673/11/6 658/14/6 657/12/6
f 672/13/6 659/16/6 658/14/6
f 671/15/6 660/18/6 659/16/6
f 671/15/6 670/19/6 661/17/6
f 670/19/6 669/21/6 662/20/6
f 668/23/6 663/22/6 662/20/6
f 667/25/6 664/24/6 663/22/6
f 667/25/6 666/1/6 665/3/6
f 679/26/6 680/2/6 691/3/6
f 702/4/6 681/8/6 678/5/6
f 701/7/6 682/10/6 681/8/6
f 701/7/6 700/9/6 683/12/6
f 700/9/6 699/11/6 684/14/6
f 699/11/6 698/13/6 685/16/6
f 697/15/6 686/18/6 685/16/6
f 696/19/6 687/17/6 686/18/6
f 695/21/6 688/20/6 687/17/6
f 695/21/6 694/23/6 689/22/6
f 694/23/6 693/25/6 690/24/6
f 692/1/6 691/3/6 690/24/6
f 718/1/6 705/26/6 706/2/6
f 728/4/6 707/8/6 704/5/6
f 727/7/6 708/10/6 707/8/6
f 726/9/6 709/12/6 708/10/6
f 726/9/6 725/11/6 710/14/6
f 725/11/6 724/13/6 711/16/6
f 724/13/6 723/15/6 712/18/6
f 722/19/6 713/17/6 712/18/6
f 721/21/6 714/20/6 713/17/6
f 720/23/6 715/22/6 714/20/6
f 720/23/6 719/25/6 716/24/6
f 719/25/6 718/1/6 717/3/6
f 744/1/6 731/26/6 732/2/6
f 754/4/6 733/8/6 730/5/6
f 753/7/6 734/10/6 733/8/6
f 752/9/6 735/12/6 734/10/6
f 752/9/6 751/11/6 736/14/6
f 751/11/6 750/13/6 737/16/6
f 750/13/6 749/15/6 738/18/6
f 748/19/6 739/17/6 738/18/6
f 747/21/6 740/20/6 739/17/6
f 746/23/6 741/22/6 740/20/6
f 746/23/6 745/25/6 742/24/6
f 745/25/6 744/1/6 743/3/6
f 770/1/6 757/26/6 758/2/6
f 780/4/6 759/8/6 756/5/6
f 780/4/6 779/7/6 760/10/6
f 779/7/6 778/9/6 761/12/6
f 778/9/6 777/11/6 762/14/6
f 777/11/6 776/13/6 763/16/6
f 775/15/6 764/18/6 763/16/6
f 774/19/6 765/17/6 764/18/6
f 773/21/6 766/20/6 765/17/6
f 773/21/6 772/23/6 767/22/6
f 772/23/6 771/25/6 768/24/6
f 771/25/6 770/1/6 769/3/6
f 783/26/6 784/2/6 795/3/6
f 781/6/6 806/4/6 785/8/6
f 806/4/6 805/7/6 786/10/6
f 804/9/6 787/12/6 786/10/6
f 803/11/6 788/14/6 787/12/6
f 802/13/6 789/16/6 788/14/6
f 801/15/6 790/18/6 789/16/6
f 801/15/6 800/19/6 791/17/6
f 800/19/6 799/21/6 792/20/6
f 799/21/6 798/23/6 793/22/6
f 798/23/6 797/25/6 794/24/6
f 796/1/6 795/3/6 794/24/6
f 822/1/6 809/26/6 810/2/6
f 832/4/6 811/8/6 808/5/6
f 831/7/6 812/10/6 811/8/6
f 831/7/6 830/9/6 813/12/6
f 830/9/6 829/11/6 814/14/6
f 829/11/6 828/13/6 815/16/6
f 828/13/6 827/15/6 816/18/6
f 827/15/6 826/19/6 817/17/6
f 825/21/6 818/20/6 817/17/6
f 824/23/6 819/22/6 818/20/6
f 823/25/6 820/24/6 819/22/6
f 823/25/6 822/1/6 821/3/6
f 835/26/6 836/2/6 847/3/6
f 833/6/6 858/4/6 837/8/6
f 858/4/6 857/7/6 838/10/6
f 856/9/6 839/12/6 838/10/6
f 855/11/6 840/14/6 839/12/6
f 854/13/6 841/16/6 840/14/6
f 853/15/6 842/18/6 841/16/6
f 853/15/6 852/19/6 843/17/6
f 852/19/6 851/21/6 844/20/6
f 851/21/6 850/23/6 845/22/6
f 850/23/6 849/25/6 846/24/6
f 848/1/6 847/3/6 846/24/6
f 874/1/6 861/26/6 862/2/6
f 859/6/6 884/4/6 863/8/6
f 884/4/6 883/7/6 864/10/6
f 883/7/6 882/9/6 865/12/6
f 882/9/6 881/11/6 866/14/6
f 880/13/6 867/16/6 866/14/6
f 879/15/6 868/18/6 867/16/6
f 878/19/6 869/17/6 868/18/6
f 877/21/6 870/20/6 869/17/6
f 876/23/6 871/22/6 870/20/6
f 876/23/6 875/25/6 872/24/6
f 875/25/6 874/1/6 873/3/6
f 900/1/6 887/26/6 888/2/6
f 910/4/1 889/8/1 886/5/1
f 910/4/6 909/7/6 890/10/6
f 909/7/6 908/9/6 891/12/6
f 908/9/6 907/11/6 892/14/6
f 907/11/6 906/13/6 893/16/6
f 906/13/6 905/15/6 894/18/6
f 904/19/6 895/17/6 894/18/6
f 903/21/6 896/20/6 895/17/6
f 902/23/6 897/22/6 896/20/6
f 901/25/6 898/24/6 897/22/6
f 900/1/6 899/3/6 898/24/6
f 913/26/1 914/2/1 925/3/1
f 936/4/1 915/8/1 912/5/1
f 936/4/1 935/7/1 916/10/1
f 935/7/1 934/9/1 917/12/1
f 934/9/1 933/11/1 918/14/1
f 933/11/1 932/13/1 919/16/1
f 932/13/1 931/15/1 920/18/1
f 931/15/1 930/19/1 921/17/1
f 929/21/1 922/20/1 921/17/1
f 928/23/1 923/22/1 922/20/1
f 927/25/1 924/24/1 923/22/1
f 926/1/1 925/3/1 924/24/1
f 939/26/1 940/2/1 951/3/1
f 937/6/1 962/4/1 941/8/1
f 962/4/1 961/7/1 942/10/1
f 961/7/1 960/9/1 943/12/1
f 960/9/1 959/11/1 944/14/1
f 959/11/1 958/13/1 945/16/1
f 958/13/1 957/15/1 946/18/1
f 956/19/1 947/17/1 946/18/1
f 955/21/1 948/20/1 947/17/1
f 954/23/1 949/22/1 948/20/1
f 953/25/1 950/24/1 949/22/1
f 952/1/1 951/3/1 950/24/1
f 965/26/1 966/2/1 977/3/1
f 963/6/1 988/4/1 967/8/1
f 988/4/1 987/7/1 968/10/1
f 987/7/1 986/9/1 969/12/1
f 986/9/1 985/11/1 970/14/1
f 984/13/1 971/16/1 970/14/1
f 983/15/1 972/18/1 971/16/1
f 982/19/1 973/17/1 972/18/1
f 981/21/1 974/20/1 973/17/1
f 980/23/1 975/22/1 974/20/1
f 979/25/1 976/24/1 975/22/1
f 978/1/1 977/3/1 976/24/1
f 1004/1/1 991/26/1 992/2/1
f 1014/4/1 993/8/1 990/5/1
f 1013/7/1 994/10/1 993/8/1
f 1012/9/1 995/12/1 994/10/1
f 1011/11/1 996/14/1 995/12/1
f 1010/13/1 997/16/1 996/14/1
f 1009/15/1 998/18/1 997/16/1
f 1008/19/1 999/17/1 998/18/1
f 1007/21/1 1000/20/1 999/17/1
f 1006/23/1 1001/22/1 1000/20/1
f 1006/23/1 1005/25/1 1002/24/1
f 1005/25/1 1004/1/1 1003/3/1
f 1017/26/1 1018/2/1 1029/3/1
f 1040/4/1 1019/8/1 1016/5/1
f 1039/7/1 1020/10/1 1019/8/1
f 1038/9/1 1021/12/1 1020/10/1
f 1038/9/1 1037/11/1 1022/14/1
f 1037/11/1 1036/13/1 1023/16/1
f 1036/13/1 1035/15/1 1024/18/1
f 1035/15/1 1034/19/1 1025/17/1
f 1034/19/1 1033/21/1 1026/20/1
f 1033/21/1 1032/23/1 1027/22/1
f 1032/23/1 1031/25/1 1028/24/1
f 1031/25/1 1030/1/1 1029/3/1
f 1043/26/1 1044/2/1 1055/3/1
f 1041/6/1 1066/4/1 1045/8/1
f 1066/4/1 1065/7/1 1046/10/1
f 1065/7/1 1064/9/1 1047/12/1
f 1064/9/1 1063/11/1 1048/14/1
f 1063/11/1 1062/13/1 1049/16/1
f 1061/15/1 1050/18/1 1049/16/1
f 1060/19/1 1051/17/1 1050/18/1
f 1059/21/1 1052/20/1 1051/17/1
f 1058/23/1 1053/22/1 1052/20/1
f 1057/25/1 1054/24/1 1053/22/1
f 1056/1/1 1055/3/1 1054/24/1
