# Blender 5.1.0
# www.blender.org
mtllib wall.mtl
o Cube
v -1.000000 -1.000000 1.000000
v -1.000000 1.000000 1.000000
v -1.000000 -1.000000 -1.000000
v -1.000000 1.000000 -1.000000
v -0.538697 -1.000000 1.000000
v -0.538697 1.000000 1.000000
v -0.538697 -1.000000 -1.000000
v -0.538697 1.000000 -1.000000
v -1.000000 -1.000000 3.936040
v -1.000000 1.000000 3.936040
v -0.538697 1.000000 3.936040
v -0.538697 -1.000000 3.936040
vn -1.0000 -0.0000 -0.0000
vn -0.0000 -0.0000 -1.0000
vn 1.0000 -0.0000 -0.0000
vn -0.0000 1.0000 -0.0000
vn -0.0000 -1.0000 -0.0000
vn -0.0000 -0.0000 1.0000
vt 0.625000 0.000000
vt 0.375000 0.250000
vt 0.375000 0.000000
vt 0.625000 0.250000
vt 0.375000 0.500000
vt 0.625000 0.500000
vt 0.375000 0.750000
vt 0.875000 0.750000
vt 0.625000 0.750000
vt 0.125000 0.750000
vt 0.125000 0.500000
vt 0.875000 0.500000
vt 0.375000 1.000000
vt 0.625000 1.000000
s 0
f 2/1/1 3/2/1 1/3/1
f 4/4/2 7/5/2 3/2/2
f 8/6/3 5/7/3 7/5/3
f 2/8/4 11/9/4 6/9/4
f 7/5/5 1/10/5 3/11/5
f 4/12/4 6/9/4 8/6/4
f 11/9/6 9/13/6 12/7/6
f 6/9/3 12/7/3 5/7/3
f 1/3/1 10/1/1 2/1/1
f 5/7/5 9/10/5 1/10/5
f 2/1/1 4/4/1 3/2/1
f 4/4/2 8/6/2 7/5/2
f 8/6/3 6/9/3 5/7/3
f 2/8/4 10/8/4 11/9/4
f 7/5/5 5/7/5 1/10/5
f 4/12/4 2/8/4 6/9/4
f 11/9/6 10/14/6 9/13/6
f 6/9/3 11/9/3 12/7/3
f 1/3/1 9/3/1 10/1/1
f 5/7/5 12/7/5 9/10/5
